<svg width="68" height="68" viewBox="0 0 68 68" fill="none" xmlns="http://www.w3.org/2000/svg">
<circle cx="34.25" cy="33.75" r="32.55" stroke="#3F3D56" stroke-width="2.4"/>
<path fill-rule="evenodd" clip-rule="evenodd" d="M43.839 40.9498L43.7128 41.4036C45.6693 41.987 51.9173 43.9319 52.9271 47.4327C53.8738 50.6094 54 56.5737 54 56.8331C54 57.4165 53.5582 57.9352 52.9902 57.9352C52.4222 57.9352 51.9804 57.4814 51.9804 56.8979C51.9804 56.8331 51.7911 50.9984 51.0969 48.1459C50.5289 46.1361 46.1111 44.2561 43.2079 43.5429L41.9457 47.9514C41.8195 48.2755 41.6301 48.47 41.3777 48.5997C41.1252 48.7942 40.8097 48.7942 40.5572 48.6645L38.3483 47.7569L37.7172 49.3776L40.0524 56.4441C40.1786 56.9627 39.9261 57.5462 39.3581 57.7407C39.295 57.8055 39.1688 57.8055 39.0426 57.8055C38.6639 57.8055 38.2852 57.5462 38.0959 57.0924L35.9501 50.4797H34.1199L31.9741 56.8979C31.8479 57.4165 31.2798 57.7407 30.7118 57.5462C30.207 57.4165 29.8914 56.8331 30.0807 56.2496L32.3527 49.4425L31.7216 47.7569L29.4496 48.6645C29.3234 48.7293 29.1972 48.7293 29.0709 48.7293C28.941 48.7293 28.8705 48.6988 28.7779 48.6587C28.7356 48.6404 28.6886 48.62 28.6292 48.5997C28.3136 48.47 28.1243 48.2107 28.0612 47.9514L26.7989 43.5429C23.9589 44.3209 19.7304 46.0713 19.0362 48.081L18.0264 57.0924C17.9633 57.611 17.5215 58 17.0166 58H16.8904C16.3224 57.9352 15.9437 57.4165 16.0069 56.8331L17.0166 47.6921C17.0166 47.6596 17.0324 47.6272 17.0482 47.5948C17.064 47.5624 17.0798 47.53 17.0798 47.4976C18.0895 43.9968 24.1482 42.0519 26.2309 41.4684L26.0416 40.9498C25.9154 40.5608 26.0416 40.107 26.294 39.8476L27.8718 38.2917C28.2505 37.9028 28.8816 37.9028 29.2603 38.2917L34.9403 43.8023L40.6204 38.2917C40.999 37.9028 41.6301 37.9028 42.0088 38.2917L43.5866 39.8476C43.839 40.1718 43.9653 40.5608 43.839 40.9498ZM28.5029 40.6256L28.0612 41.0146L29.5758 46.1361L32.7945 44.8395L28.5029 40.6256ZM33.9305 48.2107L33.4256 46.8493L34.8772 46.2658L36.3288 46.9141L35.8239 48.2107H33.9305ZM36.9599 44.7747L40.2417 46.1361L41.6933 41.0146L41.2515 40.5608L36.9599 44.7747Z" fill="#3F3D56"/>
<path d="M47.9333 52H44.0667C43.4667 52 43 52.4375 43 53C43 53.5625 43.4667 54 44.0667 54H47.9333C48.5333 54 49 53.5625 49 53C49 52.4375 48.5333 52 47.9333 52Z" fill="#3F3D56"/>
<path fill-rule="evenodd" clip-rule="evenodd" d="M54.942 19.6752C54.6872 18.8982 54.2412 18.1859 53.5404 17.7326L36.1473 7.43708C35.1917 6.85431 33.9812 6.85431 33.0255 7.43708L27.1641 10.9984V8.14935C27.1641 7.56658 26.7181 7.11332 26.1447 7.11332H21.685C21.1116 7.11332 20.6656 7.56658 20.6656 8.14935V14.9483L16.5244 17.4736C15.059 18.3154 14.5493 20.258 15.4413 21.7473C15.8236 22.4595 16.5244 22.9775 17.3526 23.1718C18.1171 23.4308 18.9454 23.3013 19.7099 22.848L20.7293 22.2653V36.964C20.7293 37.5467 21.1753 38 21.7487 38H30.8593H38.4409H47.5516C48.125 38 48.5709 37.5467 48.5709 36.964V22.0063L50.3548 23.107C50.8008 23.3661 51.3742 23.5603 51.9476 23.5603C53.0307 23.5603 54.0501 22.9775 54.5598 22.0063C55.0057 21.294 55.0695 20.4522 54.942 19.6752ZM22.6406 9.18538H25.0616V12.2287L22.5769 13.718V9.18538H22.6406ZM31.815 24.3373V35.8632H37.4215V24.3373H31.815ZM46.5322 21.035V35.8632H39.3966V23.2366C39.3966 22.6538 38.9506 22.2005 38.3772 22.2005H30.7319C30.1585 22.2005 29.7125 22.6538 29.7125 23.2366V35.7984H22.6406V21.035V20.9702L34.6183 13.718L46.5959 20.8407C46.5322 20.9055 46.5322 20.9702 46.5322 21.035ZM51.3742 21.294C51.8202 21.6825 52.521 21.4235 52.7759 20.9702C52.967 20.7112 52.967 20.4522 52.9033 20.1932C52.8396 19.8695 52.7121 19.6752 52.4573 19.5457L35.0642 9.18538C34.682 8.99112 34.2997 8.99112 33.9812 9.18538L17.48 19.2219C16.9703 19.4809 16.8429 20.1285 17.0978 20.6465C17.2252 20.8407 17.48 21.035 17.7349 21.0997C17.9897 21.1645 18.2446 21.1645 18.4994 20.9702L34.1086 11.646C34.2997 11.5164 34.4908 11.4517 34.6183 11.4517C34.7457 11.4517 34.9368 11.5164 35.1279 11.646L51.3742 21.294Z" fill="#3F3D56"/>
</svg>
