<svg width="73" height="72" viewBox="0 0 73 72" fill="none" xmlns="http://www.w3.org/2000/svg">
<circle cx="36.5999" cy="35.7" r="34.3" stroke="black" stroke-width="2.8"/>
<path fill-rule="evenodd" clip-rule="evenodd" d="M53.461 21.6574C54.2706 21.6574 55.034 22.0115 55.5555 22.6288C56.0771 23.246 56.2973 24.0562 56.1597 24.8516L55.846 26.6658C55.5064 28.6295 53.8092 30.0547 51.8106 30.0547H48.8318V33.3416C48.8318 36.4576 48.2463 39.4983 47.0912 42.3841L49.0495 49.8504L49.643 50.4699C50.2151 51.0672 50.3681 51.9098 50.0423 52.6691C49.7165 53.4283 48.9996 53.8999 48.1713 53.8999H27.0396C22.5105 53.8999 18.7203 50.6854 17.8439 46.4248C14.7011 44.7602 12.7314 41.4397 12.8016 37.8758C12.9022 32.7682 17.1 28.6124 22.1613 28.6068L22.1642 28.6066L22.1718 28.6066C22.1757 28.6066 22.1794 28.6071 22.1833 28.6072C22.8594 28.6124 23.4506 29.0714 23.6235 29.7276C23.7877 30.351 23.5224 30.981 22.9632 31.2954C20.8988 32.4564 19.6164 34.6434 19.6164 37.0031C19.6164 37.4664 19.664 37.9206 19.7577 38.3636C20.6495 37.2109 21.7974 36.2431 23.1506 35.547L28.083 33.0097C28.4987 32.7956 29.0103 32.9584 29.2249 33.3732C29.4396 33.788 29.2763 34.2977 28.8603 34.5117L23.928 37.0489C21.1032 38.502 19.3485 41.3732 19.3485 44.5421C19.3485 48.77 22.7987 52.2098 27.0396 52.2098H38.8235C38.4367 50.5035 36.9037 49.2255 35.0769 49.2255H27.1781C26.71 49.2255 26.3304 48.8472 26.3304 48.3805C26.3304 47.9137 26.71 47.5354 27.1781 47.5354H32.4008L32.0699 45.5779C31.7819 43.8744 30.5006 42.542 28.8055 42.1836L27.2021 41.8446C26.7441 41.7477 26.4515 41.2992 26.5487 40.8426C26.6458 40.3861 27.0962 40.0945 27.5538 40.1913L29.1572 40.5303C31.5378 41.0336 33.3373 42.9047 33.7417 45.297L34.1201 47.5355H35.0769C37.8414 47.5355 40.1391 49.5661 40.5483 52.2098H43.5302L40.0659 43.2617C40.0283 43.1646 40.0091 43.0614 40.0091 42.9574V38.892C40.0091 38.4252 40.3886 38.0469 40.8567 38.0469C41.3248 38.0469 41.7044 38.4252 41.7044 38.892V42.7999L45.3473 52.21H48.1712C48.3663 52.21 48.4506 52.0812 48.4836 52.0045C48.5166 51.9278 48.5516 51.7781 48.417 51.6375L47.6719 50.8597C47.5725 50.7559 47.5013 50.6286 47.4649 50.4898L45.3799 42.5403C45.3333 42.3624 45.346 42.1742 45.4164 42.0043C46.5578 39.2454 47.1366 36.3309 47.1366 33.3417V29.2097C47.1366 28.743 47.5161 28.3646 47.9842 28.3646C47.9893 28.3646 47.9942 28.365 47.9991 28.3653C48.0029 28.3656 48.0067 28.3659 48.0105 28.366C48.014 28.3658 48.0175 28.3656 48.021 28.3653C48.0262 28.365 48.0314 28.3646 48.0368 28.3646H51.8106C52.9818 28.3646 53.9763 27.5295 54.1754 26.3788L54.4891 24.5646C54.5415 24.2615 54.4576 23.9529 54.2589 23.7177C54.0602 23.4825 53.7694 23.3477 53.461 23.3477H50.9922C50.6515 23.3477 50.3439 23.1443 50.2114 22.8313C49.71 21.6476 48.5533 20.8827 47.2645 20.8827H46.0149C45.5469 20.8827 45.1673 20.5044 45.1673 20.0377V17.1793C43.3481 17.5686 41.98 19.1844 41.98 21.1126V23.7536C41.98 26.2267 40.6105 28.4675 38.4058 29.6016L35.6382 31.0253C35.5139 31.0893 35.3811 31.1196 35.2502 31.1196C34.943 31.1196 34.6467 30.9526 34.4962 30.6618C34.2816 30.247 34.4448 29.7374 34.8609 29.5233L37.6285 28.0996C39.2669 27.2568 40.2846 25.5914 40.2846 23.7535V21.1127C40.2846 17.9627 42.8553 15.3999 46.0149 15.3999C46.4831 15.3999 46.8626 15.7782 46.8626 16.245V19.1926H47.2645C49.0419 19.1926 50.6552 20.1435 51.5179 21.6574H53.461ZM21.3172 30.3455C17.5595 30.7754 14.5736 34.0034 14.4967 37.909C14.4468 40.4455 15.6545 42.8318 17.6571 44.3137C17.6889 42.8872 18.0165 41.5155 18.5968 40.2698C18.1486 39.2388 17.9213 38.142 17.9213 37.0031C17.9213 34.3581 19.2016 31.8858 21.3172 30.3455Z" fill="black"/>
<path d="M48.2945 24.2948C48.4246 24.1646 48.4996 23.984 48.4996 23.7999C48.4996 23.6158 48.4247 23.4352 48.2945 23.305C48.1643 23.1748 47.9836 23.0999 47.7996 23.0999C47.6148 23.0999 47.4349 23.1748 47.3047 23.305C47.1739 23.4352 47.0996 23.6158 47.0996 23.7999C47.0996 23.984 47.1739 24.1646 47.3047 24.2948C47.4349 24.425 47.6155 24.4999 47.7996 24.4999C47.9836 24.4999 48.1636 24.425 48.2945 24.2948Z" fill="black"/>
<path d="M31.7 32.9C31.8842 32.9 32.064 32.8258 32.1949 32.6955C32.3251 32.5645 32.4 32.3845 32.4 32.2004C32.4 32.0162 32.3252 31.8355 32.1949 31.7045C32.0647 31.5742 31.8842 31.5 31.7 31.5C31.5152 31.5 31.3346 31.5742 31.2045 31.7045C31.0743 31.8348 31 32.0155 31 32.2004C31 32.3845 31.0743 32.5652 31.2045 32.6955C31.3347 32.8258 31.5153 32.9 31.7 32.9Z" fill="black"/>
</svg>
