<svg width="73" height="72" viewBox="0 0 73 72" fill="none" xmlns="http://www.w3.org/2000/svg">
<circle cx="36.4998" cy="36" r="35" stroke="black" stroke-width="1.4"/>
<path d="M19.8182 21.7124L18.2998 20.4928L26.8147 12.9001H48.3998V19.5856L34.4142 29.0001L19.8182 21.7124Z" fill="#3F3D56"/>
<path d="M52.0849 17.1082V13.0544H49.2476V14.0458L48.1965 12.9001L41.2872 20.3982L38.5896 22.2048L34.3999 52.7845L40.7139 59.1001H55.3999V20.6993L52.0849 17.1082Z" fill="#CCCCCC"/>
<rect x="18.2998" y="20.6001" width="23.1" height="38.5" fill="#F2F2F2"/>
<rect x="27.3999" y="50.0002" width="4.2" height="9.1" fill="#CCCCCC"/>
<path d="M22.4999 52.1002V50.7002H20.3999V52.1002H22.3285H22.4999Z" fill="#3F3D56"/>
<path d="M22.3285 53.5002H20.3999V54.9002H22.4999V53.5002H22.3285Z" fill="#3F3D56"/>
<rect x="23.8999" y="50.7002" width="2.1" height="1.4" fill="#3F3D56"/>
<rect x="23.8999" y="53.5002" width="2.1" height="1.4" fill="#3F3D56"/>
<path d="M35.1 52.1002V50.7002H33V52.1002H34.92H35.1Z" fill="#3F3D56"/>
<path d="M34.92 53.5002H33V54.9002H35.1V53.5002H34.92Z" fill="#3F3D56"/>
<rect x="35.7998" y="50.7002" width="2.1" height="1.4" fill="#3F3D56"/>
<rect x="35.7998" y="53.5002" width="2.1" height="1.4" fill="#3F3D56"/>
<path d="M47.6996 22.0001V20.6001H45.5996V22.0001H47.5203H47.6996Z" fill="#3F3D56"/>
<path d="M47.5203 23.4001H45.5996V24.8001H47.6996V23.4001H47.5203Z" fill="#3F3D56"/>
<rect x="49.0996" y="20.6001" width="2.1" height="1.4" fill="#3F3D56"/>
<rect x="49.0996" y="23.4001" width="2.1" height="1.4" fill="#3F3D56"/>
<path d="M47.6996 30.4002V29.0002H45.5996V30.4002H47.5203H47.6996Z" fill="#3F3D56"/>
<path d="M47.5203 31.8H45.5996V33.2H47.6996V31.8H47.5203Z" fill="#3F3D56"/>
<rect x="49.0996" y="29.0002" width="2.1" height="1.4" fill="#3F3D56"/>
<rect x="49.0996" y="31.8" width="2.1" height="1.4" fill="#3F3D56"/>
<path d="M47.6996 38.8001V37.4001H45.5996V38.8001H47.5203H47.6996Z" fill="#3F3D56"/>
<path d="M47.5203 40.2002H45.5996V41.6002H47.6996V40.2002H47.5203Z" fill="#3F3D56"/>
<rect x="49.0996" y="37.4001" width="2.1" height="1.4" fill="#3F3D56"/>
<rect x="49.0996" y="40.2002" width="2.1" height="1.4" fill="#3F3D56"/>
<path d="M47.6996 47.2V45.8H45.5996V47.2H47.5203H47.6996Z" fill="#3F3D56"/>
<path d="M47.5203 48.6001H45.5996V50.0001H47.6996V48.6001H47.5203Z" fill="#3F3D56"/>
<rect x="49.0996" y="45.8" width="2.1" height="1.4" fill="#3F3D56"/>
<rect x="49.0996" y="48.6001" width="2.1" height="1.4" fill="#3F3D56"/>
<rect x="21.0996" y="22.7002" width="17.5" height="3.5" fill="#3F3D56"/>
<rect x="21.0996" y="29.7002" width="17.5" height="3.5" fill="#3F3D56"/>
<rect x="21.0996" y="36.7002" width="17.5" height="3.5" fill="#3F3D56"/>
<rect x="21.0996" y="43.7002" width="17.5" height="3.5" fill="#3F3D56"/>
</svg>
