<svg width="86" height="86" viewBox="0 0 86 86" fill="none" xmlns="http://www.w3.org/2000/svg">
<circle cx="42.84" cy="42.84" r="41.16" stroke="black" stroke-width="3.36"/>
<path d="M62.7565 17.6399H23.7628C23.1639 17.6399 22.6797 18.1237 22.6797 18.7222V72.8376C22.6797 73.4361 23.1639 73.9199 23.7628 73.9199C24.3618 73.9199 24.846 73.4361 24.846 72.8376V19.8045H61.6734V72.8376C61.6734 73.4361 62.1575 73.9199 62.7565 73.9199C63.3555 73.9199 63.8397 73.4361 63.8397 72.8376V18.7222C63.8397 18.1237 63.3555 17.6399 62.7565 17.6399Z" fill="black"/>
<path d="M59.4038 20.1599H27.1163C26.5211 20.1599 26.04 20.6503 26.04 21.2571V72.8228C26.04 73.4295 26.5211 73.9199 27.1163 73.9199C27.7115 73.9199 28.1925 73.4295 28.1925 72.8228V22.3542H58.3275V72.8228C58.3275 73.4295 58.8086 73.9199 59.4038 73.9199C59.999 73.9199 60.48 73.4295 60.48 72.8228V21.2571C60.48 20.6503 59.999 20.1599 59.4038 20.1599Z" fill="black"/>
<path d="M69.4126 39.7879C69.0021 39.3773 68.3386 39.3773 67.9281 39.7879L65.8284 41.8877C65.4179 42.2983 65.4179 42.9618 65.8284 43.3723C66.0331 43.5771 66.3019 43.68 66.5706 43.68C66.8394 43.68 67.1082 43.5771 67.3129 43.3723L69.4126 41.2725C69.8231 40.862 69.8231 40.1984 69.4126 39.7879Z" fill="black"/>
<path d="M71.9322 41.8877L69.8324 39.7879C69.4219 39.3773 68.7584 39.3773 68.3479 39.7879C67.9374 40.1984 67.9374 40.862 68.3479 41.2725L70.4477 43.3723C70.6524 43.5771 70.9211 43.68 71.1899 43.68C71.4587 43.68 71.7274 43.5771 71.9322 43.3723C72.3427 42.9618 72.3427 42.2983 71.9322 41.8877Z" fill="black"/>
<path d="M71.9322 48.1879C71.5217 47.7774 70.8581 47.7774 70.4477 48.1879L68.3479 50.2878C67.9374 50.6983 67.9374 51.3618 68.3479 51.7724C68.5526 51.9771 68.8214 52.08 69.0902 52.08C69.3589 52.08 69.6277 51.9771 69.8324 51.7724L71.9322 49.6725C72.3427 49.262 72.3427 48.5984 71.9322 48.1879Z" fill="black"/>
<path d="M69.4126 50.2878L67.3129 48.1879C66.9024 47.7774 66.2389 47.7774 65.8284 48.1879C65.4179 48.5984 65.4179 49.262 65.8284 49.6725L67.9281 51.7724C68.1328 51.9771 68.4016 52.08 68.6704 52.08C68.9391 52.08 69.2079 51.9771 69.4126 51.7724C69.8231 51.3618 69.8231 50.6983 69.4126 50.2878Z" fill="black"/>
<path d="M43.26 20.1599C42.5632 20.1599 42 20.6503 42 21.2571V72.8228C42 73.4295 42.5632 73.9199 43.26 73.9199C43.9568 73.9199 44.52 73.4295 44.52 72.8228V21.2571C44.52 20.6503 43.9568 20.1599 43.26 20.1599Z" fill="black"/>
<path d="M64.4402 71.3999H21.2402C20.6429 71.3999 20.1602 71.9631 20.1602 72.6599C20.1602 73.3567 20.6429 73.9199 21.2402 73.9199H64.4402C65.0374 73.9199 65.5202 73.3567 65.5202 72.6599C65.5202 71.9631 65.0374 71.3999 64.4402 71.3999Z" fill="black"/>
<path d="M43.2606 4.19995C37.9336 4.19995 33.6006 8.60836 33.6006 14.028C33.6006 14.6318 34.0804 15.12 34.6739 15.12C35.2675 15.12 35.7473 14.6318 35.7473 14.028C35.7473 9.81392 39.1186 6.38395 43.2606 6.38395C47.4026 6.38395 50.7739 9.81392 50.7739 14.028C50.7739 14.6318 51.2537 15.12 51.8473 15.12C52.4408 15.12 52.9206 14.6318 52.9206 14.028C52.9206 8.60836 48.5875 4.19995 43.2606 4.19995Z" fill="black"/>
<path d="M51.8473 12.6H34.6739C34.0804 12.6 33.6006 13.1632 33.6006 13.86C33.6006 14.5568 34.0804 15.12 34.6739 15.12H51.8473C52.4408 15.12 52.9206 14.5568 52.9206 13.86C52.9206 13.1632 52.4408 12.6 51.8473 12.6Z" fill="black"/>
<path d="M43.26 8.3999C42.5632 8.3999 42 8.90054 42 9.5199V13.9999C42 14.6193 42.5632 15.1199 43.26 15.1199C43.9568 15.1199 44.52 14.6193 44.52 13.9999V9.5199C44.52 8.90054 43.9568 8.3999 43.26 8.3999Z" fill="black"/>
</svg>
