<svg width="238" height="238" viewBox="0 0 238 238" fill="none" xmlns="http://www.w3.org/2000/svg">
<g clip-path="url(#clip0)" filter="url(#filter0_d)">
<path d="M224 119C224.017 132.489 221.427 145.853 216.374 158.359C216.361 158.387 216.352 158.412 216.339 158.44V158.443C212.943 166.818 208.475 174.716 203.047 181.941C202 183.339 200.92 184.708 199.807 186.048C199.4 186.539 198.987 187.026 198.573 187.508C196.445 189.978 194.207 192.344 191.857 194.606C191.31 195.134 190.757 195.656 190.198 196.172C190.068 196.293 189.937 196.411 189.807 196.532C187.07 199.033 184.203 201.387 181.217 203.584C179.214 205.066 177.157 206.473 175.048 207.806C174.585 208.101 174.119 208.391 173.65 208.676C172.836 209.173 172.015 209.658 171.186 210.133C170.105 210.754 169.011 211.355 167.903 211.937C167.455 212.177 167.005 212.407 166.555 212.636C165.896 212.975 165.234 213.301 164.566 213.621C164.451 213.677 164.337 213.733 164.222 213.786C163.787 213.997 163.346 214.202 162.904 214.407C157.159 217.057 151.185 219.177 145.054 220.741C145.02 220.751 144.989 220.757 144.955 220.766C144.554 220.869 144.15 220.968 143.747 221.064C143.445 221.139 143.141 221.21 142.836 221.279C142.799 221.291 142.76 221.3 142.721 221.307C142.097 221.453 141.473 221.592 140.842 221.72C140.488 221.794 140.134 221.869 139.78 221.94C139.565 221.987 139.348 222.027 139.133 222.068C138.863 222.121 138.596 222.17 138.326 222.223C138.177 222.254 138.028 222.279 137.875 222.304C137.534 222.366 137.192 222.428 136.853 222.487C136.275 222.587 135.691 222.683 135.11 222.77C134.688 222.835 134.269 222.897 133.846 222.956C133.349 223.028 132.852 223.093 132.352 223.155C132.215 223.177 132.079 223.192 131.942 223.208C131.765 223.23 131.588 223.251 131.411 223.273C131.053 223.317 130.696 223.357 130.336 223.394C130.149 223.416 129.966 223.435 129.78 223.453C129.426 223.491 129.071 223.525 128.717 223.556C128.261 223.599 127.804 223.637 127.344 223.674C126.785 223.717 126.229 223.758 125.667 223.792C125.306 223.814 124.946 223.835 124.583 223.854C123.657 223.904 122.731 223.938 121.799 223.963C121.336 223.975 120.87 223.984 120.404 223.991H120.395C119.932 223.997 119.466 224 119 224C114.278 224.002 109.561 223.686 104.881 223.056C101.448 222.596 98.0706 221.972 94.7476 221.186C94.614 221.154 94.4805 221.123 94.35 221.089C94.0145 221.012 93.6821 220.928 93.3497 220.844C93.0546 220.769 92.7626 220.692 92.4675 220.614C84.8616 218.635 77.5041 215.801 70.5355 212.167C70.5013 212.149 70.464 212.13 70.4299 212.111C70.2279 212.006 70.0291 211.903 69.8303 211.795C69.3923 211.565 68.9564 211.331 68.5225 211.092C66.0528 209.735 63.6463 208.283 61.3029 206.737C60.7003 206.343 60.1038 205.942 59.5136 205.535C59.3241 205.404 59.1377 205.274 58.9513 205.143C58.7556 205.007 58.5599 204.87 58.3673 204.733C57.8547 204.37 57.3453 204.002 56.8389 203.631C54.742 202.09 52.7072 200.473 50.7346 198.781C43.7426 192.793 37.5642 185.916 32.3565 178.325C30.5392 175.678 28.843 172.947 27.268 170.13C18.5397 154.504 13.9711 136.898 14.0001 119C14.0001 61.0108 61.0109 14 119 14C176.989 14 224 61.0108 224 119Z" fill="white"/>
<path opacity="0.2" d="M153.882 84.3692C155.864 95.5518 151.489 105.677 151.489 105.677C151.489 105.677 143.9 97.6725 141.918 86.4899C139.936 75.3073 144.311 65.1816 144.311 65.1816C144.311 65.1816 151.9 73.1866 153.882 84.3692Z" fill="black"/>
<path d="M150.674 180.593L151.053 180.788C151.016 181.192 150.925 181.441 150.674 180.593Z" fill="#2F2E41"/>
<path d="M151.174 180.723C151.177 180.766 151.183 180.813 151.186 180.856L151.053 180.788C151.056 180.748 151.059 180.704 151.065 180.661C151.096 180.117 151.059 179.474 151.174 180.723Z" fill="#2F2E41"/>
<path d="M110.824 165.861C138.997 165.861 161.836 143.023 161.836 114.85C161.836 86.6766 138.997 63.8379 110.824 63.8379C82.6512 63.8379 59.8125 86.6766 59.8125 114.85C59.8125 143.023 82.6512 165.861 110.824 165.861Z" fill="#0B3D91"/>
<path d="M115.023 163.783C132.085 163.783 145.916 149.952 145.916 132.891C145.916 115.829 132.085 101.998 115.023 101.998C97.9619 101.998 84.1309 115.829 84.1309 132.891C84.1309 149.952 97.9619 163.783 115.023 163.783Z" fill="#D0CDE1"/>
<path d="M185.562 192.099L185.525 192.109L178.34 193.833L163.379 197.424L161.338 197.915L138.586 203.373L136.653 203.839L81.4539 217.085C77.7223 215.658 74.0765 214.016 70.5345 212.167C70.5003 212.149 70.463 212.13 70.4289 212.111C70.2269 212.006 70.0281 211.903 69.8293 211.795C69.3913 211.565 68.9553 211.331 68.5215 211.093C66.0518 209.735 63.6453 208.283 61.3019 206.737C60.6993 206.343 60.1028 205.942 59.5126 205.535C59.3231 205.405 59.1367 205.274 58.9503 205.144C58.7546 205.007 58.5589 204.87 58.3663 204.734C57.8537 204.37 57.3443 204.002 56.8379 203.631C62.1997 193.886 74.9675 187.409 87.7352 183.864C97.3716 181.186 99.4902 172.385 99.307 164.554C99.2604 162.768 99.1089 160.986 98.8534 159.217C98.4641 156.402 97.8449 153.624 97.0019 150.91L127.896 151.942L131.083 159.285C130.996 160.092 130.968 160.904 131 161.715C131.242 167.738 134.96 171.634 139.549 174.147C140.145 174.473 140.757 174.777 141.378 175.06C148.902 178.48 157.759 178.713 157.759 178.713C160.456 178.415 163.18 178.466 165.864 178.866C166.516 178.965 167.15 179.084 167.765 179.223C171.356 180.025 174.749 181.544 177.74 183.687C178.883 184.5 179.964 185.396 180.974 186.368C182.77 188.049 184.315 189.979 185.562 192.099Z" fill="#D0CDE1"/>
<path d="M190.199 196.171C190.068 196.292 189.938 196.411 189.807 196.532C187.071 199.032 184.204 201.386 181.218 203.583C179.214 205.065 177.158 206.473 175.048 207.805C174.586 208.1 174.12 208.39 173.65 208.675C172.837 209.172 172.015 209.658 171.187 210.132C170.106 210.753 169.011 211.355 167.903 211.937C167.456 212.176 167.006 212.406 166.555 212.636C165.897 212.974 165.235 213.301 164.567 213.621C164.452 213.677 164.337 213.732 164.222 213.785L162.908 212.695L178.341 193.832L181.445 190.039C181.445 190.039 182.684 190.039 185.527 192.108C187.098 193.277 188.582 194.558 189.969 195.941C190.044 196.019 190.121 196.094 190.199 196.171Z" fill="#D0CDE1"/>
<path d="M189.98 195.961C189.939 196.156 189.881 196.347 189.807 196.533C187.07 199.033 184.203 201.387 181.217 203.584C178.627 204.518 175.939 205.157 173.205 205.489C173.205 205.489 173.438 206.657 173.65 208.676C172.836 209.173 172.015 209.659 171.186 210.133C170.105 210.754 169.011 211.356 167.903 211.938C167.455 212.177 167.005 212.407 166.554 212.637C165.896 212.975 165.234 213.301 164.566 213.621C164.451 213.677 164.336 213.733 164.221 213.786C163.786 213.997 163.345 214.202 162.904 214.407C157.159 217.057 151.184 219.177 145.054 220.742C145.02 220.751 144.989 220.757 144.955 220.766C144.554 220.869 144.15 220.968 143.746 221.065C143.445 221.139 143.141 221.211 142.836 221.279C142.799 221.291 142.76 221.301 142.721 221.307C142.097 221.453 141.472 221.593 140.842 221.72C140.488 221.795 140.133 221.869 139.779 221.941C139.565 221.987 139.348 222.028 139.133 222.068C138.863 222.121 138.596 222.171 138.325 222.223C138.176 222.254 138.027 222.279 137.875 222.304C137.533 222.366 137.192 222.428 136.853 222.487C136.275 222.587 135.691 222.683 135.11 222.77C134.688 222.835 134.268 222.897 133.846 222.957C133.349 223.028 132.852 223.093 132.352 223.155C132.215 223.177 132.078 223.193 131.942 223.208C131.765 223.23 131.587 223.252 131.41 223.273C131.053 223.317 130.696 223.357 130.336 223.395C130.149 223.416 129.966 223.435 129.779 223.454C129.425 223.491 129.071 223.525 128.717 223.556C128.26 223.6 127.804 223.637 127.344 223.674C126.785 223.718 126.229 223.758 125.666 223.792C125.306 223.814 124.946 223.836 124.582 223.854C123.657 223.904 122.731 223.938 121.799 223.963C121.336 223.975 120.87 223.985 120.404 223.991H120.395C119.932 223.997 119.466 224 119 224C114.278 224.002 109.561 223.687 104.881 223.056C101.448 222.596 98.0703 221.973 94.7474 221.186C94.6138 221.155 94.4802 221.124 94.3498 221.09C94.0143 221.012 93.6818 220.928 93.3494 220.844C93.0543 220.77 92.7623 220.692 92.4672 220.614C84.8614 218.635 77.5039 215.801 70.5353 212.168C70.5011 212.149 70.4638 212.13 70.4296 212.112C70.2277 212.006 70.0289 211.904 69.8301 211.795C86.8817 207.822 113.828 201.556 137.21 196.188C137.866 196.039 138.517 195.89 139.164 195.74C147.8 193.758 155.89 191.913 162.733 190.369C163.442 190.211 164.135 190.055 164.815 189.903C172.168 188.251 177.878 186.996 180.975 186.368C181.81 186.177 182.654 186.029 183.503 185.924L189.968 195.942L189.98 195.961Z" fill="#0B3D91"/>
<path d="M64.154 93.1429C72.5459 93.1429 79.3489 86.3398 79.3489 77.9479C79.3489 69.5559 72.5459 62.7529 64.154 62.7529C55.762 62.7529 48.959 69.5559 48.959 77.9479C48.959 86.3398 55.762 93.1429 64.154 93.1429Z" fill="#0B3D91"/>
<path d="M157.496 88.8011C165.888 88.8011 172.691 81.9981 172.691 73.6061C172.691 65.2142 165.888 58.4111 157.496 58.4111C149.104 58.4111 142.301 65.2142 142.301 73.6061C142.301 81.9981 149.104 88.8011 157.496 88.8011Z" fill="#0B3D91"/>
<path d="M141.215 67.0944C141.216 63.3467 142.602 59.7314 145.106 56.9432C147.61 54.1551 151.056 52.3907 154.782 51.9893C152.66 51.7575 150.513 51.9754 148.481 52.6288C146.449 53.2822 144.577 54.3565 142.988 55.7816C141.399 57.2067 140.128 58.9507 139.257 60.8999C138.387 62.8491 137.938 64.9598 137.938 67.0944C137.938 69.229 138.387 71.3397 139.257 73.2889C140.128 75.2381 141.399 76.9821 142.988 78.4072C144.577 79.8323 146.449 80.9066 148.481 81.56C150.513 82.2134 152.66 82.4313 154.782 82.1995C151.056 81.7981 147.61 80.0337 145.106 77.2456C142.602 74.4574 141.216 70.8421 141.215 67.0944Z" fill="#0B3D91"/>
<path d="M47.177 90.2384C44.5545 87.5611 43.014 84.0091 42.8514 80.2649C42.6888 76.5208 43.9156 72.8486 46.2962 69.9541C44.6182 71.2736 43.2372 72.9319 42.2429 74.8209C41.2487 76.7098 40.6636 78.7871 40.5258 80.9173C40.388 83.0474 40.7006 85.1827 41.4432 87.184C42.1858 89.1854 43.3417 91.0077 44.8356 92.5325C46.3296 94.0572 48.128 95.25 50.1137 96.0333C52.0995 96.8165 54.228 97.1726 56.3605 97.0783C58.4931 96.9839 60.5818 96.4413 62.4907 95.4859C64.3995 94.5304 66.0856 93.1834 67.4391 91.5327C64.4966 93.8537 60.8002 95.0054 57.0601 94.7665C53.3201 94.5276 49.8002 92.9149 47.177 90.2384Z" fill="#0B3D91"/>
<path d="M110.824 90.9717C92.8416 90.9717 78.2637 99.4755 78.2637 109.965C78.2637 114.659 81.1939 118.949 86.0309 122.263L92.2992 117.721L90.5945 124.836C91.3018 125.164 92.024 125.481 92.7773 125.774L102.141 114.849V128.271C105.013 128.731 107.916 128.961 110.824 128.959C128.807 128.959 143.385 120.455 143.385 109.965C143.385 99.4755 128.807 90.9717 110.824 90.9717Z" fill="#0B3D91"/>
<path d="M142.301 73.6064C142.301 73.6064 139.941 84.46 154.688 88.8014L142.301 73.6064Z" fill="#0B3D91"/>
<path d="M78.2637 75.582C78.2637 75.582 83.6905 87.7162 67.4102 93.143L78.2637 75.582Z" fill="#0B3D91"/>
<path d="M86.3123 145.018C87.6814 144.635 88.0456 141.66 87.1257 138.374C86.2058 135.088 84.3502 132.735 82.981 133.118C81.6119 133.502 81.2477 136.476 82.1676 139.762C83.0875 143.048 84.9431 145.401 86.3123 145.018Z" fill="#D0CDE1"/>
<path d="M149.001 134.078C149.211 130.673 148.231 127.841 146.812 127.753C145.392 127.666 144.072 130.356 143.862 133.762C143.652 137.168 144.633 140 146.052 140.087C147.471 140.174 148.792 137.484 149.001 134.078Z" fill="#D0CDE1"/>
</g>
<defs>
<filter id="filter0_d" x="0" y="0" width="238" height="238" filterUnits="userSpaceOnUse" color-interpolation-filters="sRGB">
<feFlood flood-opacity="0" result="BackgroundImageFix"/>
<feColorMatrix in="SourceAlpha" type="matrix" values="0 0 0 0 0 0 0 0 0 0 0 0 0 0 0 0 0 0 127 0"/>
<feOffset/>
<feGaussianBlur stdDeviation="7"/>
<feColorMatrix type="matrix" values="0 0 0 0 0 0 0 0 0 0 0 0 0 0 0 0 0 0 0.05 0"/>
<feBlend mode="normal" in2="BackgroundImageFix" result="effect1_dropShadow"/>
<feBlend mode="normal" in="SourceGraphic" in2="effect1_dropShadow" result="shape"/>
</filter>
<clipPath id="clip0">
<rect width="210" height="210" fill="white" transform="translate(14 14)"/>
</clipPath>
</defs>
</svg>
