<svg width="238" height="238" viewBox="0 0 238 238" fill="none" xmlns="http://www.w3.org/2000/svg">
<g clip-path="url(#clip0)" filter="url(#filter0_d)">
<path d="M224 119C224.019 133.214 221.142 147.282 215.544 160.348L215.196 161.149C205.728 182.689 189.31 200.432 168.568 211.541C147.825 222.649 123.957 226.482 100.78 222.425C100.15 222.313 99.5201 222.197 98.8916 222.077C92.3969 220.818 86.037 218.942 79.8984 216.476C78.9012 216.075 77.9113 215.66 76.9286 215.23C76.2576 214.938 75.5865 214.637 74.9217 214.326C56.736 205.898 41.3389 192.446 30.5451 175.557C19.7512 158.667 14.0107 139.044 14 119C14 61.0108 61.0108 14 119 14C176.989 14 224 61.0108 224 119Z" fill="white"/>
<path opacity="0.2" d="M82.8766 89.0283C80.8945 100.211 85.27 110.337 85.27 110.337C85.27 110.337 92.8592 102.332 94.8413 91.1491C96.8234 79.9665 92.4478 69.8408 92.4478 69.8408C92.4478 69.8408 84.8587 77.8457 82.8766 89.0283Z" fill="black"/>
<path d="M118.784 142.252C141.392 142.252 159.719 123.925 159.719 101.317C159.719 78.7098 141.392 60.3828 118.784 60.3828C96.1766 60.3828 77.8496 78.7098 77.8496 101.317C77.8496 123.925 96.1766 142.252 118.784 142.252Z" fill="#D0CDE1"/>
<path d="M102.795 132.658C102.795 132.658 107.912 156.963 107.912 159.522C107.912 162.08 132.217 173.593 132.217 173.593L153.963 169.755L161.638 146.729C161.638 146.729 148.846 127.541 148.846 119.866L102.795 132.658Z" fill="#D0CDE1"/>
<path d="M215.544 160.347L215.196 161.149C205.728 182.689 189.31 200.432 168.568 211.541C147.826 222.649 123.958 226.482 100.781 222.425C100.15 222.313 99.5205 222.197 98.8919 222.077C92.3972 220.818 86.0373 218.942 79.8987 216.476C78.9015 216.075 77.9116 215.66 76.9289 215.23C76.2579 214.938 75.5869 214.637 74.9221 214.326C68.8963 211.534 63.1494 208.177 57.7586 204.298L52.9062 190.223L55.6338 188.141L61.2441 183.857L67.2304 179.288L68.7867 178.098L92.275 160.167L94.0085 158.844L106.217 149.524L106.22 149.521C106.22 149.521 119.423 171.034 138.612 164.638C157.801 158.241 157.381 139.9 157.381 139.9L215.544 160.347Z" fill="#0B3D91"/>
<path d="M83.2854 68.3376C83.2854 68.3376 96.2819 40.1784 121.192 46.6767C146.102 53.175 160.182 62.9224 161.265 72.6698C162.348 82.4172 160.723 97.0383 160.723 97.0383C160.723 97.0383 158.016 77.002 140.687 81.3342C123.358 85.6664 96.2819 82.4172 96.2819 82.4172L91.9498 121.407C91.9498 121.407 87.076 114.367 81.6608 118.699C76.2456 123.031 65.9567 77.002 83.2854 68.3376Z" fill="#0B3D91"/>
<path d="M79.8994 216.476C78.9022 216.075 77.9123 215.66 76.9296 215.23C76.2586 214.938 75.5876 214.637 74.9228 214.326C64.9569 209.705 55.7757 203.552 47.7129 196.091C50.5678 192.201 52.907 190.223 52.907 190.223H72.0959L74.9725 199.896L79.8994 216.476Z" fill="#0B3D91"/>
<path d="M198.734 158.241L215.195 161.149C210.79 171.185 204.84 180.468 197.562 188.663L198.734 158.241Z" fill="#0B3D91"/>
</g>
<defs>
<filter id="filter0_d" x="0" y="0" width="238" height="238" filterUnits="userSpaceOnUse" color-interpolation-filters="sRGB">
<feFlood flood-opacity="0" result="BackgroundImageFix"/>
<feColorMatrix in="SourceAlpha" type="matrix" values="0 0 0 0 0 0 0 0 0 0 0 0 0 0 0 0 0 0 127 0"/>
<feOffset/>
<feGaussianBlur stdDeviation="7"/>
<feColorMatrix type="matrix" values="0 0 0 0 0 0 0 0 0 0 0 0 0 0 0 0 0 0 0.05 0"/>
<feBlend mode="normal" in2="BackgroundImageFix" result="effect1_dropShadow"/>
<feBlend mode="normal" in="SourceGraphic" in2="effect1_dropShadow" result="shape"/>
</filter>
<clipPath id="clip0">
<rect width="210" height="210" fill="white" transform="translate(14 14)"/>
</clipPath>
</defs>
</svg>
