<svg width="72" height="72" viewBox="0 0 72 72" fill="none" xmlns="http://www.w3.org/2000/svg">
<circle cx="36.3001" cy="35.9998" r="34.3" stroke="black" stroke-width="2.8"/>
<path d="M50.6537 56.2997H24.5639C22.3822 56.2997 20.3822 54.8065 19.8368 52.6599L16.746 42.5805C16.5642 41.8339 16.9278 41.0872 17.6551 40.9006C18.3823 40.7139 19.1096 41.0872 19.2914 41.8339L22.3822 51.9133C22.6549 52.9399 23.5639 53.5932 24.5639 53.5932H50.6537C51.6537 53.5932 52.5627 52.9399 52.8354 51.9133L56.108 41.1806C56.2898 40.4339 57.108 40.0606 57.7443 40.2473C58.4716 40.4339 58.8352 41.2739 58.6534 41.9272L55.4717 52.5666C54.8354 54.8065 52.9263 56.2997 50.6537 56.2997Z" fill="black"/>
<path d="M39.8568 42.9997H27.1428C26.4265 42.9997 25.7998 42.3464 25.7998 41.5997C25.7998 40.853 26.4265 40.1997 27.1428 40.1997H39.8568C40.5731 40.1997 41.1998 40.853 41.1998 41.5997C41.1998 42.3464 40.5731 42.9997 39.8568 42.9997Z" fill="black"/>
<path d="M57.7468 42.9998H52.4376C51.7053 42.9998 51.0645 42.3425 51.0645 41.5913C51.0645 40.84 51.7053 40.1827 52.4376 40.1827H57.7468C58.3876 40.1827 58.8453 39.7132 58.8453 39.0559C58.8453 38.3986 58.3876 37.9291 57.7468 37.9291H17.653C17.0122 37.9291 16.5545 38.3986 16.5545 39.0559C16.5545 39.6193 17.0122 40.1827 17.653 40.1827H22.5961C23.3284 40.1827 23.9691 40.84 23.9691 41.5913C23.9691 42.3425 23.3284 42.9998 22.5961 42.9998H17.653C15.5476 42.9998 13.8999 41.3096 13.8999 39.1498C13.8999 36.99 15.5476 35.2998 17.653 35.2998H57.7468C59.8522 35.2998 61.4999 36.99 61.4999 39.1498C61.4999 41.2157 59.8522 42.9998 57.7468 42.9998Z" fill="black"/>
<path d="M20.0789 58.3998C19.8087 58.3998 19.4484 58.3052 19.2683 58.116C18.7279 57.6431 18.6378 56.7917 19.0882 56.1296L21.3399 53.2918C21.7902 52.7243 22.6008 52.6297 23.2313 53.1026C23.7717 53.5756 23.8618 54.4269 23.4115 55.0891L21.1597 57.9268C20.7995 58.2106 20.4392 58.3998 20.0789 58.3998Z" fill="black"/>
<path d="M55.2305 58.3998C54.8703 58.3998 54.51 58.2106 54.2398 57.9268L51.9881 55.0891C51.5377 54.5215 51.6278 53.6702 52.1682 53.1026C52.7086 52.6297 53.5192 52.7243 54.0596 53.2918L56.3114 56.1296C56.7617 56.6971 56.6716 57.5485 56.1312 58.116C55.861 58.3052 55.5908 58.3998 55.2305 58.3998Z" fill="black"/>
<path d="M18.0379 38.0998C17.3242 38.0998 16.6997 37.4615 16.6997 36.732V22.7803C16.6997 21.4124 16.6997 20.1358 16.6997 18.9504C16.6997 16.3971 18.7517 14.2998 21.2497 14.2998C23.7477 14.2998 25.7997 16.3971 25.7997 18.9504V19.4063C25.7997 20.1358 25.1752 20.7741 24.4615 20.7741C23.7477 20.7741 23.1232 20.1358 23.1232 19.4063V18.9504C23.1232 17.8561 22.2311 16.9442 21.1605 16.9442C20.0899 16.9442 19.1977 17.8561 19.1977 18.9504C19.1977 20.0446 19.1977 21.3213 19.1977 22.6891V36.732C19.3762 37.5527 18.8409 38.0998 18.0379 38.0998Z" fill="black"/>
<path fill-rule="evenodd" clip-rule="evenodd" d="M23.5267 26.016C23.7064 26.1079 23.8861 26.1998 24.1558 26.1998C24.2456 26.1998 24.3355 26.1998 24.4254 26.1079L31.0759 24.3613C31.4354 24.2694 31.7051 23.9936 31.8848 23.7178C32.0645 23.442 32.1544 23.0743 32.0645 22.7066L31.6152 21.052C31.3456 19.9489 30.6266 18.9377 29.638 18.3861C28.6494 17.8346 27.481 17.6507 26.4026 17.9265L25.5038 18.2023C23.257 18.8458 21.8191 21.2358 22.4482 23.534L22.8975 25.1886C22.9874 25.5563 23.257 25.8321 23.5267 26.016ZM27.0317 20.6843C27.2114 20.5923 27.3013 20.5923 27.481 20.5923C27.7507 20.5923 28.0203 20.5923 28.2899 20.7762C28.6494 20.96 28.919 21.3278 29.0089 21.7874L29.0988 22.1551L25.0545 23.2582L24.9646 22.8905C24.695 21.9712 25.2342 21.052 26.133 20.96L27.0317 20.6843Z" fill="black"/>
<path d="M27.2761 28.9997C27.0477 28.9997 26.8193 28.7938 26.7432 28.3819L26.5148 27.1463C26.4386 26.7345 26.667 26.3226 26.9716 26.2197C27.2761 26.1167 27.5807 26.4256 27.6568 26.8375L27.8852 28.073C27.9614 28.4849 27.733 28.8967 27.4284 28.9997C27.4284 28.9997 27.3523 28.9997 27.2761 28.9997Z" fill="black"/>
<path d="M27.9758 31.8C27.7474 31.8 27.519 31.5941 27.4429 31.1822L27.2145 29.9466C27.1383 29.5348 27.3667 29.1229 27.6713 29.02C27.9758 28.917 28.2804 29.2259 28.3565 29.6377L28.585 30.8733C28.6611 31.2852 28.4327 31.697 28.1281 31.8C28.052 31.8 28.052 31.8 27.9758 31.8Z" fill="black"/>
<path d="M28.676 35.3C28.4476 35.3 28.2192 35.0941 28.1431 34.6822L27.9147 33.4466C27.8385 33.0348 28.0669 32.6229 28.3715 32.52C28.676 32.417 28.9806 32.7259 29.0567 33.1377L29.2851 34.3733C29.3613 34.7852 29.1329 35.197 28.8283 35.3C28.7522 35.3 28.676 35.3 28.676 35.3Z" fill="black"/>
<path d="M29.3762 28.9997C29.1478 28.9997 28.9194 28.7938 28.8433 28.3819L28.6149 27.1463C28.5387 26.7345 28.7671 26.3226 29.0717 26.2197C29.3762 26.1167 29.6808 26.4256 29.7569 26.8375L29.9853 28.073C30.0615 28.4849 29.8331 28.8967 29.5285 28.9997C29.4524 28.9997 29.3762 28.9997 29.3762 28.9997Z" fill="black"/>
<path d="M30.0759 31.8C29.8475 31.8 29.6191 31.5941 29.543 31.1822L29.3146 29.9466C29.2384 29.5348 29.4668 29.1229 29.7714 29.02C30.0759 28.917 30.3805 29.2259 30.4566 29.6377L30.685 30.8733C30.7612 31.2852 30.5328 31.697 30.2282 31.8C30.1521 31.8 30.1521 31.8 30.0759 31.8Z" fill="black"/>
<path d="M30.7761 35.3C30.5477 35.3 30.3193 35.0941 30.2432 34.6822L30.0148 33.4466C29.9386 33.0348 30.167 32.6229 30.4716 32.52C30.7761 32.417 31.0807 32.7259 31.1568 33.1377L31.3852 34.3733C31.4614 34.7852 31.233 35.197 30.9284 35.3C30.8523 35.3 30.7761 35.3 30.7761 35.3Z" fill="black"/>
<path d="M31.4758 27.5998C31.2474 27.5998 31.019 27.3939 30.9429 26.982L30.7145 25.7464C30.6383 25.3346 30.8667 24.9227 31.1713 24.8198C31.4758 24.7168 31.7804 25.0257 31.8565 25.4375L32.085 26.6731C32.1611 27.085 31.9327 27.4968 31.6281 27.5998C31.552 27.5998 31.4758 27.5998 31.4758 27.5998Z" fill="black"/>
<path d="M32.176 30.3996C31.9476 30.3996 31.7192 30.1937 31.6431 29.7818L31.4147 28.5462C31.3385 28.1344 31.5669 27.7225 31.8715 27.6196C32.176 27.5166 32.4806 27.8255 32.5567 28.2374L32.7851 29.4729C32.8613 29.8848 32.6329 30.2966 32.3283 30.3996C32.2522 30.3996 32.2522 30.3996 32.176 30.3996Z" fill="black"/>
<path d="M32.8762 33.8996C32.6478 33.8996 32.4194 33.6937 32.3433 33.2818L32.1149 32.0462C32.0387 31.6344 32.2671 31.2225 32.5717 31.1196C32.8762 31.0166 33.1808 31.3255 33.2569 31.7374L33.4853 32.9729C33.5615 33.3848 33.3331 33.7966 33.0285 33.8996C32.9524 33.8996 32.8762 33.8996 32.8762 33.8996Z" fill="black"/>
<path fill-rule="evenodd" clip-rule="evenodd" d="M40.4908 49.9998H51.7094C52.4511 49.9998 53.1001 49.3646 53.1001 48.6387V36.6609C53.1001 35.935 52.4511 35.2998 51.7094 35.2998H40.4908C39.7491 35.2998 39.1001 35.935 39.1001 36.6609V48.6387C39.1001 49.3646 39.7491 49.9998 40.4908 49.9998ZM50.3186 47.3683H41.7888V38.022H50.3186V47.3683Z" fill="black"/>
<path d="M56.557 34.4992C56.4668 34.4992 56.3766 34.4992 56.2864 34.4992C55.5651 34.3204 55.1142 33.6945 55.2946 32.9793C55.2946 32.8005 55.3847 32.6217 55.3847 32.4429C55.3847 31.5489 55.1142 29.4926 52.4091 29.4926C51.8681 29.4926 51.5975 29.6714 50.6958 30.7442C50.3351 31.1912 49.6138 31.3701 49.0727 31.1018L48.7121 30.923C48.4415 30.7442 47.7202 30.3866 47.5398 30.3866C46.7283 30.3866 46.0971 30.6548 45.4659 31.2807C45.1052 31.6383 44.5642 31.8171 44.1133 31.6383C43.7526 31.5489 43.3919 31.5489 43.0313 31.4595C41.4983 31.1912 40.5065 32.3535 40.3261 33.5157C40.1458 34.231 39.5146 34.678 38.7932 34.5886C38.0718 34.4992 37.621 33.7839 37.7111 33.0687C38.162 30.7442 40.3261 28.5092 43.3018 28.8668C43.5723 28.8668 43.8428 28.8668 44.1133 28.9562C45.1052 28.1515 46.2774 27.7045 47.5398 27.7045C48.171 27.7045 48.8022 27.9727 49.4334 28.2409C50.1548 27.5257 51.0565 26.8999 52.4091 26.8999C55.7454 26.8999 57.9997 29.135 57.9997 32.4429C57.9997 32.8005 57.9997 33.1581 57.9095 33.5157C57.7292 34.0521 57.1882 34.4992 56.557 34.4992Z" fill="black"/>
</svg>