<svg width="72" height="72" viewBox="0 0 72 72" fill="none" xmlns="http://www.w3.org/2000/svg">
<circle cx="35.9998" cy="35.7" r="34.3" stroke="#3B69B6" stroke-width="2.8"/>
<path d="M35.6502 10.5C28.5096 10.5 22.7002 16.2616 22.7002 23.3436V31.5H24.1129V23.3436C24.1129 17.0341 29.2885 11.9011 35.6502 11.9011C42.0119 11.9011 47.1875 17.0341 47.1875 23.3436V31.5H48.6002V23.3436C48.6002 16.2616 42.7908 10.5 35.6502 10.5Z" fill="black"/>
<path fill-rule="evenodd" clip-rule="evenodd" d="M35.65 13.3C30.0533 13.3 25.5 17.9149 25.5 23.5873V32.2H26.9163V24.0665H34.9419V32.2H36.3581V24.0665H44.3837V32.2H45.8V23.5874C45.8 17.9149 41.2467 13.3 35.65 13.3ZM34.9419 22.6311H26.9675C27.4144 18.4333 30.7685 15.1058 34.9419 14.7648V22.6311ZM36.3581 14.7648V22.6311H44.3325C43.8856 18.4333 40.5315 15.1058 36.3581 14.7648Z" fill="black"/>
<path fill-rule="evenodd" clip-rule="evenodd" d="M58.0651 34.3207V36.3038C58.0651 37.23 57.4735 38.0196 56.65 38.313V40.2952L58.281 47.3092C58.5037 48.0535 58.3689 48.8377 57.9095 49.4653C57.5891 49.9027 57.1493 50.2116 56.65 50.3615V51.5135C57.5793 51.8142 58.2537 52.6906 58.2537 53.7224C58.2537 54.7543 57.5793 55.6306 56.65 55.9314V57.3789H57.3575V58.7997H54.5275V57.3789H55.235V55.9314C54.3057 55.6307 53.6313 54.7543 53.6313 53.7224C53.6313 52.6906 54.3057 51.8143 55.235 51.5135V50.3614C54.7357 50.2116 54.2958 49.9027 53.9754 49.4652C53.516 48.8377 53.3813 48.0534 53.6039 47.3091L55.235 40.295V38.313C54.4115 38.0197 53.82 37.23 53.82 36.3039V34.3208H47.9189V36.3039C47.9189 37.2301 47.3273 38.0197 46.5038 38.313V40.2951L48.1348 47.3092C48.3575 48.0535 48.2227 48.8377 47.7633 49.4653C47.4429 49.9027 47.003 50.2116 46.5038 50.3615V51.5137C47.4331 51.8144 48.1075 52.6908 48.1075 53.7226C48.1075 54.7545 47.4331 55.6308 46.5038 55.9316V57.3791H47.2113V58.7999H44.3813V57.3791H45.0888V55.9316C44.1595 55.6309 43.4851 54.7545 43.4851 53.7226C43.4851 52.6908 44.1595 51.8145 45.0888 51.5137V50.3616C44.5894 50.2117 44.1495 49.9028 43.8292 49.4653C43.3697 48.8377 43.235 48.0534 43.4577 47.3091L45.0887 40.2951V38.313C44.2652 38.0197 43.6736 37.23 43.6736 36.3039V34.3208H37.7726V36.3039C37.7726 37.2301 37.181 38.0197 36.3575 38.313V40.2951L37.9885 47.3091C38.2112 48.0534 38.0764 48.8376 37.617 49.4652C37.2966 49.9026 36.8567 50.2115 36.3575 50.3614V51.5134C37.2868 51.8141 37.9612 52.6905 37.9612 53.7224C37.9612 54.7542 37.2868 55.6305 36.3575 55.9313V57.3788H37.065V58.7996H34.235V57.3788H34.9425V55.9313C34.0132 55.6306 33.3388 54.7542 33.3388 53.7224C33.3388 52.6905 34.0132 51.8142 34.9425 51.5134V50.3613C34.4432 50.2114 34.0034 49.9025 33.683 49.4651C33.2236 48.8377 33.0889 48.0533 33.3115 47.309L34.9425 40.2949V38.3128C34.119 38.0195 33.5274 37.2298 33.5274 36.3038V34.3206H27.6265V36.3038C27.6265 37.23 27.035 38.0196 26.2115 38.3129V40.295L27.8425 47.309C28.0652 48.0534 27.9304 48.8376 27.471 49.4652C27.1507 49.9027 26.7107 50.2116 26.2114 50.3615V51.5137C27.1407 51.8144 27.8151 52.6908 27.8151 53.7226C27.8151 54.7545 27.1407 55.6308 26.2114 55.9316V57.3791H26.9189V58.7999H24.0888V57.3791H24.7964V55.9316C23.8671 55.6309 23.1927 54.7545 23.1927 53.7226C23.1927 52.6908 23.8671 51.8145 24.7964 51.5137V50.3616C24.297 50.2117 23.8573 49.9028 23.5369 49.4654C23.0775 48.8379 22.9428 48.0536 23.1654 47.3093L24.7964 40.2952V38.313C23.9729 38.0198 23.3813 37.2301 23.3813 36.304V34.3209H17.4802V36.304C17.4802 37.2302 16.8887 38.0198 16.0652 38.313V40.295L17.6963 47.3091C17.919 48.0534 17.7842 48.8376 17.3248 49.4652C17.0044 49.9026 16.5645 50.2115 16.0652 50.3614V51.5135C16.9945 51.8142 17.6689 52.6906 17.6689 53.7224C17.6689 54.7543 16.9945 55.6306 16.0652 55.9314V57.3789H16.7727V58.7997H13.9426V57.3789H14.6502V55.9314C13.7209 55.6307 13.0464 54.7543 13.0464 53.7224C13.0464 52.6906 13.7209 51.8143 14.6502 51.5135V50.3614C14.1508 50.2115 13.711 49.9026 13.3907 49.4652C12.9313 48.8377 12.7966 48.0534 13.0192 47.3091L14.6502 40.2951V38.3129C13.8267 38.0196 13.2351 37.2299 13.2351 36.3038V34.3207H11.5V32.8999H59.8V34.3207H58.0651ZM15.3577 54.6225C15.8518 54.6225 16.2539 54.2188 16.2539 53.7226C16.2539 53.2264 15.8518 52.8228 15.3577 52.8228C14.8635 52.8228 14.4615 53.2265 14.4615 53.7226C14.4615 54.2188 14.8635 54.6225 15.3577 54.6225ZM16.3236 47.6555L16.3374 47.7058C16.4358 48.0221 16.3801 48.3567 16.1846 48.6236C15.9892 48.8906 15.6877 49.0438 15.3576 49.0438C15.0276 49.0438 14.7262 48.8906 14.5306 48.6237C14.3352 48.3567 14.2795 48.0221 14.3779 47.7058L15.3576 43.5013L16.3236 47.6555ZM15.3577 37.0144C15.7479 37.0144 16.0652 36.6958 16.0652 36.304V34.3209H14.6502V36.304C14.6502 36.6958 14.9675 37.0144 15.3577 37.0144ZM24.7963 36.304V34.3209H26.2113V36.304C26.2113 36.6958 25.894 37.0144 25.5038 37.0144C25.1136 37.0144 24.7963 36.6957 24.7963 36.304ZM25.5038 54.6225C25.998 54.6225 26.4 54.2188 26.4 53.7226C26.4 53.2264 25.9979 52.8228 25.5038 52.8228C25.0097 52.8228 24.6076 53.2265 24.6076 53.7226C24.6076 54.2188 25.0097 54.6225 25.5038 54.6225ZM26.4697 47.6555L26.4835 47.7058C26.5819 48.0221 26.5262 48.3567 26.3308 48.6236C26.1354 48.8906 25.8339 49.0438 25.5038 49.0438C25.1738 49.0438 24.8724 48.8906 24.6768 48.6237C24.4814 48.3567 24.4257 48.0221 24.5241 47.7058L25.5038 43.5014L26.4697 47.6555ZM35.65 54.6225C36.1441 54.6225 36.5462 54.2188 36.5462 53.7226C36.5462 53.2264 36.1441 52.8228 35.65 52.8228C35.1559 52.8228 34.7538 53.2265 34.7538 53.7226C34.7538 54.2188 35.1559 54.6225 35.65 54.6225ZM36.6159 47.6555L36.6297 47.7058C36.7281 48.0221 36.6724 48.3567 36.4769 48.6237C36.2815 48.8906 35.98 49.0438 35.65 49.0438C35.32 49.0438 35.0186 48.8906 34.8231 48.6237C34.6276 48.3567 34.5719 48.0221 34.6703 47.7058L35.65 43.5015L36.6159 47.6555ZM35.65 37.0144C36.0402 37.0144 36.3575 36.6958 36.3575 36.304V34.3209H34.9425V36.304C34.9425 36.6958 35.2598 37.0144 35.65 37.0144ZM45.0887 34.3209H46.5037V36.304C46.5037 36.6958 46.1864 37.0144 45.7962 37.0144C45.406 37.0144 45.0887 36.6958 45.0887 36.304V34.3209ZM45.7962 54.6225C46.2903 54.6225 46.6924 54.2188 46.6924 53.7226C46.6924 53.2264 46.2903 52.8228 45.7962 52.8228C45.3021 52.8228 44.9 53.2265 44.9 53.7226C44.9 54.2188 45.3021 54.6225 45.7962 54.6225ZM46.762 47.6555L46.7758 47.7058C46.8742 48.0221 46.8185 48.3567 46.6231 48.6237C46.4276 48.8906 46.1261 49.0438 45.7961 49.0438C45.466 49.0438 45.1646 48.8906 44.9691 48.6236C44.7737 48.3567 44.718 48.0221 44.8164 47.7058L45.7961 43.5014L46.762 47.6555ZM55.2348 34.3209V36.304C55.2348 36.6957 55.5521 37.0144 55.9423 37.0144C56.3325 37.0144 56.6498 36.6958 56.6498 36.304V34.3209H55.2348ZM56.8385 53.7226C56.8385 54.2188 56.4365 54.6225 55.9423 54.6225C55.4482 54.6225 55.0461 54.2188 55.0461 53.7226C55.0461 53.2265 55.4482 52.8228 55.9423 52.8228C56.4365 52.8228 56.8385 53.2264 56.8385 53.7226ZM56.922 47.7058L56.9082 47.6555L55.9423 43.5013L54.9625 47.7058C54.8642 48.0221 54.9198 48.3567 55.1153 48.6236C55.3108 48.8906 55.6122 49.0438 55.9423 49.0438C56.2723 49.0438 56.5738 48.8906 56.7693 48.6237C56.9647 48.3567 57.0204 48.0221 56.922 47.7058Z" fill="black"/>
<rect x="11.5" y="20.3" width="1.4" height="1.4" fill="black"/>
<rect x="17.1001" y="20.3" width="1.4" height="1.4" fill="black"/>
<rect x="14.2998" y="20.3" width="1.4" height="1.4" fill="black"/>
<rect x="18.5" y="38.5" width="1.4" height="1.4" fill="black"/>
<rect x="21.2998" y="38.5" width="1.4" height="1.4" fill="black"/>
<rect x="28.2998" y="38.5" width="1.4" height="1.4" fill="black"/>
<rect x="31.1001" y="38.5" width="1.4" height="1.4" fill="black"/>
<rect x="41.6001" y="38.5" width="1.4" height="1.4" fill="black"/>
<rect x="38.7998" y="38.5" width="1.4" height="1.4" fill="black"/>
<rect x="48.6001" y="38.5" width="1.4" height="1.4" fill="black"/>
<rect x="51.3999" y="38.5" width="1.4" height="1.4" fill="black"/>
<rect x="19.8999" y="53.2" width="1.4" height="1.4" fill="black"/>
<rect x="29.7002" y="53.2" width="1.4" height="1.4" fill="black"/>
<rect x="40.2002" y="53.2" width="1.4" height="1.4" fill="black"/>
<rect x="50" y="53.2" width="1.4" height="1.4" fill="black"/>
<rect x="55.6001" y="20.3" width="1.4" height="1.4" fill="black"/>
<rect x="58.3999" y="20.3" width="1.4" height="1.4" fill="black"/>
<rect x="52.7998" y="20.3" width="1.4" height="1.4" fill="black"/>
</svg>
