<svg width="72" height="72" viewBox="0 0 72 72" fill="none" xmlns="http://www.w3.org/2000/svg">
<circle cx="36.2" cy="35.7" r="34.3" stroke="black" stroke-width="2.8"/>
<path fill-rule="evenodd" clip-rule="evenodd" d="M53.4214 18.4788C48.7276 13.7851 42.4874 11.2002 35.85 11.2002C29.9843 11.2002 24.2906 13.2826 19.8173 17.0638L20.7573 18.1759C24.968 14.6165 30.3281 12.6562 35.85 12.6562C42.0984 12.6562 47.9731 15.0897 52.3918 19.5084C56.8105 23.9271 59.2439 29.8018 59.2439 36.0502C59.2439 38.9393 58.7236 41.7505 57.6992 44.4196L46.7439 33.4643L41.2969 38.9112L35.85 33.4643L18.0647 51.2497C14.4431 47.0149 12.4561 41.648 12.4561 36.0502C12.4561 29.7696 14.9112 23.8734 19.3691 19.4478L18.3432 18.4145C13.6079 23.1155 11 29.3787 11 36.0502C11 42.2673 13.306 48.2172 17.4936 52.8044C19.8042 55.3306 22.5491 57.3203 25.6522 58.7184C28.8653 60.1662 32.2964 60.9002 35.85 60.9002C40.8293 60.9002 45.6339 59.4323 49.7445 56.6552C53.755 53.9457 56.8671 50.1664 58.7439 45.726C60.0419 42.6586 60.7 39.4032 60.7 36.0502C60.7 29.4128 58.115 23.1725 53.4214 18.4788ZM41.0454 40.719L38.9625 42.8019L35.85 39.6894L32.7375 42.8018L30.6546 40.7189L35.85 35.5235L41.0454 40.719ZM35.85 59.4441C40.5376 59.4441 45.0604 58.0625 48.9294 55.4487C50.2853 54.5326 51.5315 53.4861 52.6545 52.328L48.5633 48.2367L49.5929 47.2072L53.6368 51.2511C55.0236 49.6301 56.1853 47.8219 57.0883 45.8681L46.7437 35.5234L42.3263 39.9408L48.4743 46.0887L47.4447 47.1182L42.0749 41.7485L38.9625 44.861L35.85 41.7485L32.7375 44.861L29.625 41.7485L19.0458 52.3277C21.119 54.4673 23.5393 56.1695 26.2503 57.3909C29.2742 58.7533 32.5039 59.4441 35.85 59.4441Z" fill="black"/>
<path fill-rule="evenodd" clip-rule="evenodd" d="M38.2997 16.1001C42.5454 16.1001 45.9996 19.5542 45.9996 23.8C45.9996 28.0458 42.5455 31.5 38.2997 31.5001C34.0538 31.5001 30.5996 28.0458 30.5996 23.8C30.5996 19.5543 34.0538 16.1001 38.2997 16.1001ZM38.2998 17.5503C34.8536 17.5503 32.0499 20.3539 32.0499 23.8C32.0499 27.2462 34.8536 30.0499 38.2998 30.0499C41.746 30.0499 44.5495 27.2462 44.5495 23.8C44.5495 20.3539 41.746 17.5503 38.2998 17.5503Z" fill="black"/>
<path d="M38.3004 18.9004C35.5985 18.9004 33.4004 21.0985 33.4004 23.8004H34.9451C34.9451 21.9503 36.4503 20.4451 38.3004 20.4451V18.9004Z" fill="black"/>
<path d="M47.4004 29.4004H48.8004V30.8004H47.4004V29.4004Z" fill="black"/>
<path d="M50.9004 29.4004H52.3004V30.8004H50.9004V29.4004Z" fill="black"/>
<path d="M24.2998 37.8003H25.6998V39.2003H24.2998V37.8003Z" fill="black"/>
<path d="M20.7998 37.8003H22.1998V39.2003H20.7998V37.8003Z" fill="black"/>
<path d="M24.8682 20.3003C23.0298 21.421 21.4254 22.7885 20.0996 24.3645L21.2877 25.2003C22.5135 23.7433 23.9978 22.4784 25.6996 21.4409L24.8682 20.3003Z" fill="black"/>
</svg>
