<svg width="86" height="86" viewBox="0 0 86 86" fill="none" xmlns="http://www.w3.org/2000/svg">
<circle cx="42.84" cy="42.84" r="41.16" stroke="black" stroke-width="3.36"/>
<path d="M52.5 24.36C55.5031 24.36 57.96 21.903 57.96 18.9C57.96 15.897 55.5031 13.44 52.5 13.44C49.497 13.44 47.04 15.897 47.04 18.9C47.04 21.903 49.497 24.36 52.5 24.36Z" fill="black"/>
<path fill-rule="evenodd" clip-rule="evenodd" d="M10.9199 54.6C10.9199 47.208 16.9679 41.16 24.3599 41.16C31.7518 41.16 37.7999 47.208 37.7999 54.6C37.7999 61.992 31.7519 68.04 24.3599 68.04C16.9679 68.04 10.9199 61.992 10.9199 54.6ZM14.9519 54.6C14.9519 59.8416 19.1183 64.008 24.3599 64.008C29.6015 64.008 33.7679 59.8416 33.7679 54.6C33.7679 49.3584 29.6015 45.192 24.3599 45.192C19.1183 45.192 14.9519 49.3584 14.9519 54.6Z" fill="black"/>
<path d="M61.3197 38.3879V33.1079C57.3351 33.1079 54.0146 31.656 51.6238 29.28L46.4439 24.264C45.6469 23.34 44.3187 22.68 42.8577 22.68C41.3967 22.68 40.0685 23.208 39.1387 24.264L31.8336 31.524C30.9038 32.4481 30.2397 33.768 30.2397 35.2201C30.2397 36.6722 30.9038 37.9921 31.8336 39.048L40.2012 46.44V59.64H45.5141V43.1399L39.67 37.332L45.9125 30.996L47.9048 32.976C51.2254 36.408 55.874 38.3879 61.3197 38.3879Z" fill="black"/>
<path fill-rule="evenodd" clip-rule="evenodd" d="M47.8799 54.6C47.8799 47.208 53.9279 41.16 61.3199 41.16C68.7119 41.16 74.7599 47.208 74.7599 54.6C74.7599 61.992 68.7119 68.04 61.3199 68.04C53.9279 68.04 47.8799 61.992 47.8799 54.6ZM51.9119 54.6C51.9119 59.8416 56.0783 64.008 61.3199 64.008C66.5615 64.008 70.7279 59.8416 70.7279 54.6C70.7279 49.3584 66.5615 45.192 61.3199 45.192C56.0783 45.192 51.9119 49.3584 51.9119 54.6Z" fill="black"/>
</svg>

