<svg width="72" height="72" viewBox="0 0 72 72" fill="none" xmlns="http://www.w3.org/2000/svg">
<circle cx="36.0999" cy="35.7" r="34.3" stroke="black" stroke-width="2.8"/>
<path fill-rule="evenodd" clip-rule="evenodd" d="M33.2998 35.6999C33.2998 34.1557 34.5556 32.8999 36.0998 32.8999C37.644 32.8999 38.8998 34.1557 38.8998 35.6999C38.8998 37.2441 37.644 38.4999 36.0998 38.4999C34.5556 38.4999 33.2998 37.2441 33.2998 35.6999ZM34.6998 35.6999C34.6998 36.472 35.3277 37.0999 36.0998 37.0999C36.8719 37.0999 37.4998 36.472 37.4998 35.6999C37.4998 34.9278 36.8719 34.2999 36.0998 34.2999C35.3277 34.2999 34.6998 34.9278 34.6998 35.6999Z" fill="black"/>
<path fill-rule="evenodd" clip-rule="evenodd" d="M35.568 30.1227C35.9206 30.0926 36.281 30.0926 36.6308 30.1227C38.3988 30.2732 39.9437 31.2147 40.8708 32.7035C41.7838 34.1721 41.9517 35.9277 41.3304 37.5195C41.322 37.5419 41.3122 37.5636 41.301 37.5846L36.7232 46.5193C36.6035 46.7531 36.3628 46.9001 36.1005 46.9001C35.8381 46.9001 35.5974 46.7531 35.477 46.52L30.8992 37.5853C30.888 37.5636 30.8782 37.5426 30.8698 37.5202C30.2485 35.9277 30.4157 34.1728 31.3294 32.7042C32.2565 31.2147 33.8014 30.2732 35.568 30.1227ZM36.1005 44.6657L40.0389 36.9791C40.4838 35.8108 40.3544 34.5235 39.6834 33.4448C38.9915 32.3332 37.8363 31.6305 36.514 31.5178C36.2432 31.4961 35.9598 31.4961 35.6862 31.5178C34.3653 31.6305 33.2101 32.3332 32.5182 33.4448C31.8465 34.5242 31.7171 35.8115 32.162 36.9798L36.1005 44.6657Z" fill="black"/>
<path fill-rule="evenodd" clip-rule="evenodd" d="M36.0999 14C48.065 14 57.7999 23.7342 57.7999 35.7C57.7999 38.8171 57.1482 41.8152 55.8763 44.6257C57.0698 45.9823 57.7999 47.7554 57.7999 49.7C57.7999 53.9455 54.3454 57.4 50.0999 57.4C48.1553 57.4 46.3822 56.6699 45.0256 55.4764C42.2151 56.7483 39.2156 57.4 36.0999 57.4C24.1348 57.4 14.3999 47.6658 14.3999 35.7C14.3999 23.7342 24.1348 14 36.0999 14ZM36.0999 15.4C24.9062 15.4 15.7999 24.507 15.7999 35.7C15.7999 46.893 24.9062 56 36.0999 56C38.8537 56 41.5095 55.4575 44.0106 54.3963C43.4401 53.6578 42.9977 52.8164 42.724 51.9008C40.6233 52.7618 38.4001 53.2 36.0999 53.2C26.4504 53.2 18.5999 45.3495 18.5999 35.7C18.5999 26.0505 26.4504 18.2 36.0999 18.2C45.7494 18.2 53.5999 26.0505 53.5999 35.7C53.5999 38.0002 53.1617 40.2241 52.3 42.3241C53.2163 42.5978 54.0577 43.0402 54.7962 43.6114C55.8574 41.1103 56.3999 38.4545 56.3999 35.7C56.3999 24.507 47.2936 15.4 36.0999 15.4ZM42.3999 49.7C42.3999 49.9688 42.4146 50.2348 42.4412 50.4966C40.6499 51.2666 38.7578 51.6985 36.7999 51.7811V49.7H35.3999V51.7825C27.0783 51.4241 20.3758 44.7216 20.0174 36.4H22.7999V35H20.0174C20.3758 26.6784 27.0783 19.9759 35.3999 19.6175V22.4H36.7999V19.6175C45.1215 19.9759 51.824 26.6784 52.1824 35H49.3999V36.4H52.181C52.0984 38.3579 51.6665 40.25 50.8965 42.0413C50.6347 42.0147 50.3687 42 50.0999 42C45.8544 42 42.3999 45.4545 42.3999 49.7ZM43.7999 49.7C43.7999 53.1741 46.6265 56 50.0999 56C53.5733 56 56.3999 53.1741 56.3999 49.7C56.3999 46.2259 53.5733 43.4 50.0999 43.4C46.6265 43.4 43.7999 46.2259 43.7999 49.7Z" fill="black"/>
<path d="M50.0998 46.1998C50.8719 46.1998 51.4998 46.8277 51.4998 47.5998H52.8998C52.8998 46.0556 51.644 44.7998 50.0998 44.7998C48.5556 44.7998 47.2998 46.0556 47.2998 47.5998C47.2998 49.144 48.5556 50.3998 50.0998 50.3998C50.8719 50.3998 51.4998 51.0277 51.4998 51.7998C51.4998 52.5719 50.8719 53.1998 50.0998 53.1998C49.3277 53.1998 48.6998 52.5719 48.6998 51.7998H47.2998C47.2998 53.344 48.5556 54.5998 50.0998 54.5998C51.644 54.5998 52.8998 53.344 52.8998 51.7998C52.8998 50.2556 51.644 48.9998 50.0998 48.9998C49.3277 48.9998 48.6998 48.3719 48.6998 47.5998C48.6998 46.8277 49.3277 46.1998 50.0998 46.1998Z" fill="black"/>
</svg>
