<svg width="72" height="72" viewBox="0 0 72 72" fill="none" xmlns="http://www.w3.org/2000/svg">
<circle cx="36.2" cy="35.7" r="34.3" stroke="black" stroke-width="2.8"/>
<path fill-rule="evenodd" clip-rule="evenodd" d="M55.516 33.299L58.4651 37.7226C58.5312 37.8571 58.5748 38.0014 58.5944 38.15V56.63C58.5944 57.0552 58.2498 57.4 57.8248 57.4H36.2759C35.8509 57.4 35.5063 57.0552 35.5063 56.63V54.32H13.1879C12.7628 54.32 12.4183 53.9752 12.4183 53.55C12.4183 53.1247 12.7628 52.78 13.1879 52.78H15.4967V29.6361C14.2165 29.8095 12.9902 29.0614 12.558 27.8434C12.1258 26.6254 12.6061 25.2711 13.7089 24.598L35.1007 11.3156C35.3492 11.1614 35.6635 11.1614 35.9119 11.3156L44.7415 16.7987V13.51C44.7415 13.0848 45.0861 12.7401 45.5111 12.7401H50.1288C50.5538 12.7401 50.8984 13.0848 50.8984 13.51V20.6225L57.3038 24.598C58.399 25.2746 58.8734 26.6245 58.4425 27.838C58.0116 29.0516 56.7924 29.7994 55.516 29.633V33.299ZM45.6504 37.38H48.4503L47.9377 34.3H46.163L45.6504 37.38ZM44.0897 37.38H37.7135L39.7661 34.3H44.603L44.0897 37.38ZM48.5896 38.92H45.5111V44.4109L46.6232 43.6693C46.8818 43.4967 47.2189 43.4967 47.4775 43.6693L48.5896 44.4109V38.92ZM50.011 37.38L49.4977 34.3H54.3346L56.3872 37.38H50.011ZM49.3591 14.28H46.2807V17.7581L49.3591 19.67V14.28ZM14.5731 27.9637C14.2027 27.7592 13.9685 27.3735 13.9577 26.9504C13.9469 26.5272 14.1613 26.1301 14.5208 25.907L35.5063 12.8763L56.4918 25.907C57.0476 26.256 57.217 26.9887 56.871 27.5464C56.5249 28.1041 55.7934 28.2772 55.2343 27.9337L35.9119 15.9355C35.6635 15.7814 35.3492 15.7814 35.1007 15.9355L15.7783 27.9352C15.4124 28.1657 14.9496 28.1766 14.5731 27.9637ZM21.6535 35.84V52.78H30.8887V35.84H21.6535ZM32.4279 52.78V35.07C32.4279 34.6447 32.0833 34.3 31.6583 34.3H20.8839C20.4588 34.3 20.1143 34.6447 20.1143 35.07V52.78H17.0359V28.9662L35.5063 17.4933L53.9768 28.9662V32.76H39.3543C39.0971 32.76 38.8568 32.8885 38.714 33.1027L35.6356 37.7226C35.5695 37.8571 35.5259 38.0014 35.5063 38.15V52.78H32.4279ZM37.0455 38.92V55.86H57.0552V38.92H50.1288V45.85C50.1282 46.1337 49.9718 46.3942 49.7215 46.5278C49.4713 46.6615 49.1679 46.6466 48.932 46.4891L47.0503 45.234L45.1687 46.4906C44.9325 46.6483 44.6288 46.663 44.3785 46.529C44.1282 46.395 43.9719 46.134 43.9719 45.85V38.92H37.0455Z" fill="black"/>
<path d="M29.2008 43.3999H28.5008C28.1142 43.3999 27.8008 43.7133 27.8008 44.0999C27.8008 44.4865 28.1142 44.7999 28.5008 44.7999H29.2008C29.5874 44.7999 29.9008 44.4865 29.9008 44.0999C29.9008 43.7133 29.5874 43.3999 29.2008 43.3999Z" fill="black"/>
<path fill-rule="evenodd" clip-rule="evenodd" d="M40.4008 25.55C40.4008 23.0371 38.3637 21 35.8508 21C33.3379 21 31.3008 23.0371 31.3008 25.55C31.3008 28.0629 33.3379 30.1 35.8508 30.1C38.3626 30.0975 40.3983 28.0619 40.4008 25.55ZM36.6091 28.4756V26.3083H38.7764C38.499 27.3695 37.6703 28.1982 36.6091 28.4756ZM36.6091 24.7917H38.7764C38.499 23.7305 37.6703 22.9018 36.6091 22.6243V24.7917ZM35.0924 22.6243V24.7917H32.9251C33.2026 23.7305 34.0313 22.9018 35.0924 22.6243ZM35.0924 26.3083H32.9251C33.2026 27.3695 34.0313 28.1982 35.0924 28.4756V26.3083Z" fill="black"/>
</svg>
