<svg width="72" height="72" viewBox="0 0 72 72" fill="none" xmlns="http://www.w3.org/2000/svg">
<circle cx="35.9998" cy="35.9998" r="34.3" stroke="black" stroke-width="2.8"/>
<path fill-rule="evenodd" clip-rule="evenodd" d="M58.9961 20.1226C58.7879 20.644 58.3194 21.0089 57.7468 21.0089H56.4455V40.5093H58.4235C58.7879 40.5093 59.1002 40.8222 59.1002 41.1872V54.2222C59.1002 54.5872 58.7879 54.9 58.4235 54.9H12.8769C12.5125 54.9 12.2002 54.5872 12.2002 54.2743V41.2393C12.2002 40.8743 12.5125 40.5615 12.8769 40.5615H30.4188V21.0089H29.1175C28.5449 21.0089 28.0244 20.644 27.8682 20.1226C27.7121 19.6012 27.8682 18.9755 28.3367 18.6626L42.7034 8.23463C43.1198 7.92179 43.7445 7.92179 44.213 8.23463L58.5276 18.6626C58.9961 18.9755 59.1522 19.6012 58.9961 20.1226ZM25.0053 53.3879L30.2106 48.1739C30.4709 47.9132 30.4709 47.5482 30.3147 47.1311L25.1094 41.9171C24.9012 41.7086 24.6409 41.6564 24.3807 41.7607C24.1204 41.865 23.9642 42.1257 23.9642 42.3864V44.3677H14.1782C13.8138 44.3677 13.5015 44.6805 13.5015 45.0455V50.2595C13.5015 50.6245 13.8138 50.9374 14.1782 50.9374H23.8601V52.9187C23.8601 53.2315 24.0163 53.4401 24.2766 53.5444C24.3807 53.5965 24.4327 53.5965 24.5368 53.5965C24.693 53.5965 24.9012 53.4922 25.0053 53.3879ZM43.4322 10.8938L53.7387 18.4019H33.1256L43.4322 10.8938ZM54.4675 52.3451C54.8318 52.3451 55.1441 52.0323 55.1441 51.6673V40.5093H53.8428V19.6533H33.0215V40.5093H31.564V43.7942C31.564 44.1591 31.8763 44.472 32.2407 44.472H34.2187V46.4012C34.2187 46.7661 34.531 47.079 34.8954 47.079H36.8734V49.0082C36.8734 49.3731 37.1858 49.686 37.5501 49.686H39.5282V51.6673C39.5282 52.0323 39.8405 52.3451 40.2049 52.3451H54.4675Z" fill="black"/>
<path fill-rule="evenodd" clip-rule="evenodd" d="M51.4 38.1002H46.5V33.2002H51.4V38.1002ZM50.175 34.4252H47.725V36.8752H50.175V34.4252Z" fill="black"/>
<path fill-rule="evenodd" clip-rule="evenodd" d="M40.9 38.1002H36V33.2002H40.9V38.1002ZM39.675 34.4252H37.225V36.8752H39.675V34.4252Z" fill="black"/>
<path fill-rule="evenodd" clip-rule="evenodd" d="M40.9 27.6002H36V22.7002H40.9V27.6002ZM39.675 23.9252H37.225V26.3752H39.675V23.9252Z" fill="black"/>
<path fill-rule="evenodd" clip-rule="evenodd" d="M51.4 27.6002H46.5V22.7002H51.4V27.6002ZM50.175 23.9252H47.725V26.3752H50.175V23.9252Z" fill="black"/>
<path d="M25.3321 45.3999C25.3321 45.7499 25.0221 46.0499 24.6605 46.0499H15V49.7499H24.7122C25.0738 49.7499 25.3838 50.0499 25.3838 50.3999V51.3999L29 47.8999L25.3838 44.3999L25.3321 45.3999Z" fill="black"/>
<path d="M35.1803 43.3674C35.5451 43.3674 35.8578 43.6824 35.8578 44.0499V46.0449H37.8379C38.2027 46.0449 38.5153 46.3599 38.5153 46.7274V48.7224H40.4955C40.8602 48.7224 41.1729 49.0374 41.1729 49.4049V51.3999H54.2002V40.8999H33.2002V43.5249H35.1803V43.3674Z" fill="black"/>
</svg>
