<svg width="69" height="68" viewBox="0 0 69 68" fill="none" xmlns="http://www.w3.org/2000/svg">
<path fill-rule="evenodd" clip-rule="evenodd" d="M52.1295 38.9333C52.5377 38.1197 52.0754 37.2811 51.2491 35.8037L49.1786 32.0252C48.7669 31.142 48.2116 30.3355 47.536 29.6394C48.2394 28.9603 48.6391 28.0192 48.6426 27.0339V23.2255C48.6156 22.2073 48.19 21.2421 47.4599 20.5432C46.7298 19.8444 45.7555 19.4697 44.7524 19.5019H23.0393C20.9614 19.4516 19.235 21.1168 19.1787 23.2255V27.0339C19.1836 28.0425 19.6003 29.004 20.3295 29.6893C19.6809 30.3721 19.1491 31.1599 18.7557 32.0203L16.6705 35.7638L16.6396 35.8139C15.7147 37.3146 15.2005 38.149 15.6869 38.9932C15.734 39.0804 15.7901 39.1624 15.8541 39.2378C15.6382 39.5955 15.5226 40.0062 15.5197 40.4257V47.214C15.517 47.8176 15.7508 48.3976 16.1695 48.8263C16.5883 49.255 17.1577 49.4974 17.7524 49.5H50.4672C51.062 49.4974 51.6313 49.255 52.0501 48.8263C52.4688 48.3976 52.7026 47.8176 52.7 47.214V40.4257C52.6937 39.8746 52.491 39.3445 52.1295 38.9333ZM47.595 32.9437C38.5803 33.6075 34.8082 32.0752 31.8574 30.7724H44.7524C45.0569 30.7707 45.3603 30.7356 45.6573 30.6676C46.4147 30.8473 46.7541 31.4163 47.5803 32.9237L47.595 32.9437ZM31.9951 28.3466C32.0328 27.9453 31.9789 27.5405 31.8377 27.1637C31.7254 26.6422 31.7271 26.1021 31.8426 25.5814C31.8468 25.5516 31.8517 25.5192 31.8567 25.4856C31.8754 25.3617 31.8967 25.2203 31.8967 25.1222C31.7351 25.0875 31.57 25.0724 31.4049 25.0773C30.6917 25.1051 29.9824 25.1969 29.2852 25.3518H29.1131H25.5475H25.4442C24.8139 25.1837 24.1675 25.085 23.5164 25.0573C23.3808 25.0528 23.2452 25.0662 23.1131 25.0972C23.1329 25.3344 23.1707 25.5697 23.2262 25.801C23.3245 26.1676 23.3806 26.5444 23.3934 26.9241V27.2635C23.3904 27.4755 23.3756 27.6871 23.3492 27.8974C23.3197 27.9872 23.3197 28.102 23.3197 28.1819C23.536 28.2817 24.259 28.4714 26.6147 28.4714L29.8606 28.3167L30.1311 28.3416L30.2018 28.348L30.2019 28.348L30.202 28.348C30.6682 28.3903 31.0678 28.4265 31.4049 28.4265C31.6051 28.4475 31.8073 28.4202 31.9951 28.3466ZM45.2196 27.3633C45.3622 27.738 45.4145 28.1419 45.3721 28.5413C45.1845 28.6156 44.9821 28.643 44.7819 28.6211C44.4416 28.6211 44.0265 28.5832 43.5503 28.5397L43.5131 28.5363L43.2377 28.5113L39.9869 28.6661C37.641 28.6661 36.918 28.4764 36.7016 28.3766V28.097C36.7357 27.8955 36.7587 27.6922 36.7705 27.4881V27.1487C36.7645 26.758 36.7133 26.3693 36.618 25.9907C36.5609 25.7576 36.5198 25.5208 36.4951 25.2819C36.6279 25.2562 36.7631 25.2445 36.8983 25.247C37.5513 25.2724 38.1995 25.3712 38.8311 25.5415H38.9295H42.4852H42.6573C43.3578 25.3865 44.0704 25.2946 44.7868 25.2669C44.952 25.2619 45.1171 25.2769 45.2787 25.3119C45.2697 25.4642 45.2517 25.6159 45.2246 25.7661C45.1192 26.2939 45.1259 26.8384 45.2442 27.3633H45.2196ZM21.6186 21.8376C21.2319 22.1954 21.0016 22.6949 20.9787 23.2255H21.0131V27.0339C21.0181 27.5259 21.2206 27.9946 21.5738 28.3316C21.5654 28.1182 21.5753 27.9044 21.6033 27.6927C21.6239 27.5422 21.6354 27.3905 21.6377 27.2385V26.9041C21.6123 26.6687 21.5645 26.4364 21.4951 26.2103L21.492 26.1969C21.3351 25.5053 21.1396 24.6435 21.6869 23.9492C22.1524 23.4298 22.8329 23.165 23.5213 23.2355C24.2748 23.2589 25.0235 23.366 25.7541 23.5549H29.0295C29.8109 23.3848 30.606 23.2879 31.4049 23.2654C32.0948 23.2006 32.7784 23.4428 33.2787 23.9293C33.6664 24.4877 33.7839 25.1943 33.5983 25.8509C33.5397 26.1213 33.528 26.4 33.5639 26.6745C33.7846 27.3462 33.8403 28.0624 33.7262 28.7609H34.9655C34.9258 28.4728 34.9258 28.1805 34.9655 27.8924C35 27.7327 35 27.5829 35 27.4332V27.0988C34.9786 26.8644 34.9374 26.6323 34.877 26.405L34.874 26.3915C34.7171 25.6999 34.5215 24.8381 35.0639 24.1439C35.528 23.6321 36.2012 23.3699 36.8836 23.4351C37.6435 23.4551 38.399 23.5605 39.136 23.7496H42.3869C43.1716 23.5796 43.97 23.4827 44.7721 23.4601C45.4617 23.3973 46.1446 23.6392 46.6459 24.1239C46.7108 24.1997 46.7684 24.2816 46.818 24.3685V23.2255C46.7951 22.694 46.5641 22.1937 46.1763 21.8357C45.7885 21.4777 45.276 21.2917 44.7524 21.3188H23.0393C22.5166 21.293 22.0054 21.4797 21.6186 21.8376ZM18.2197 36.7022L20.3295 32.9037C21.1115 31.4363 21.4803 30.8672 22.1885 30.6726C22.468 30.7345 22.7532 30.7663 23.0393 30.7674H27.1115C28.4375 31.1385 29.7178 31.6609 30.9278 32.3247C33.3869 33.6325 36.7754 34.9103 43.5918 34.9103C45.0672 34.9103 46.7344 34.8404 48.5786 34.6806L49.7049 36.7022C49.7902 36.8626 49.8787 37.023 49.9642 37.1783L49.9643 37.1784C50.1449 37.5062 50.313 37.8111 50.4131 38.0448C49.2598 38.1387 48.1024 38.1704 46.9459 38.1397H20.9787C19.7942 38.1697 18.6091 38.138 17.4279 38.0448C17.6 37.7004 17.9147 37.1863 18.2197 36.6972V36.7022ZM50.7843 47.5416C50.8673 47.4536 50.9124 47.3358 50.9098 47.214V40.4257C50.9193 40.2992 50.8773 40.1743 50.7937 40.08C50.7101 39.9857 50.5921 39.9303 50.4672 39.9266H17.7475C17.6226 39.9303 17.5046 39.9857 17.421 40.08C17.3374 40.1743 17.2954 40.2992 17.3049 40.4257V47.214C17.3023 47.3358 17.3474 47.4536 17.4304 47.5416C17.5135 47.6296 17.6275 47.6805 17.7475 47.6831H50.4672C50.5872 47.6805 50.7012 47.6296 50.7843 47.5416Z" fill="#3F3D56"/>
<circle cx="34.25" cy="33.75" r="32.55" stroke="#3F3D56" stroke-width="2.4"/>
</svg>