<svg width="86" height="86" viewBox="0 0 86 86" fill="none" xmlns="http://www.w3.org/2000/svg">
<circle cx="42.84" cy="42.84" r="41.16" stroke="black" stroke-width="3.36"/>
<path fill-rule="evenodd" clip-rule="evenodd" d="M73 22.0846V26.0308H69.6699V52.5462H72.9306V56.4923H69.6005V58.7077C69.6005 60.1615 68.7679 61.0615 67.7273 61.4077V63.1385C69.7392 63.5538 71.2655 65.3538 71.2655 67.5C71.2655 69.9923 69.2536 72 66.756 72C64.2584 72 62.2464 69.9923 62.2464 67.5C62.2464 65.3538 63.7727 63.6231 65.7847 63.1385V61.4077C64.744 61.0615 63.9115 60.1615 63.9115 58.7077V56.4923H60.7895V58.7077C60.7895 60.5769 59.4019 61.5462 57.945 61.5462C56.5574 61.5462 55.1005 60.6462 55.1005 58.7077V56.4923H51.9785V58.7077C51.9785 60.5769 50.5909 61.5462 49.134 61.5462C47.7464 61.5462 46.2895 60.6462 46.2895 58.7077V56.4923H43.1675V58.7077C43.1675 60.5769 41.7799 61.5462 40.323 61.5462C38.9354 61.5462 37.4785 60.6462 37.4785 58.7077V56.4923H34.3565V58.7077C34.3565 60.5769 32.9689 61.5462 31.512 61.5462C30.1244 61.5462 28.6675 60.6462 28.6675 58.7077V56.4923H26.6555V59.8154V61.6154H22.7703V63.1385C24.7823 63.5538 26.3086 65.3538 26.3086 67.5C26.3086 69.9923 24.2967 72 21.799 72C19.3014 72 17.2895 69.9923 17.2895 67.5C17.2895 65.3538 18.8158 63.6231 20.8278 63.1385V61.6154H18.6077C17.2895 61.6154 16.11 60.8538 15.4856 59.8154C15.2081 59.3308 15 58.7077 15 58.0154V21.6C15 20.9769 15.1388 20.3538 15.4856 19.8C16.11 18.6923 17.2895 18 18.6077 18H26.6555V19.8V22.0846H28.7368V20.8385C28.7368 18.9692 30.1244 18 31.5813 18C32.9689 18 34.4258 18.9692 34.4258 20.8385V22.0846H37.5478V20.8385C37.5478 18.9692 38.9354 18 40.3923 18C41.7799 18 43.2368 18.9692 43.2368 20.8385V22.0846H46.3589V20.8385C46.3589 18.9692 47.7464 18 49.2034 18C50.5909 18 52.0478 18.9692 52.0478 20.8385V22.0846H55.1699V20.8385C55.1699 18.9692 56.5574 18 58.0144 18C59.4019 18 60.8589 18.9692 60.8589 20.8385V22.0846H63.9809V20.8385C63.9809 18.9692 65.3684 18 66.8254 18C68.2129 18 69.6699 18.9692 69.6699 20.8385V22.0846H73ZM21.8684 69.9231C23.1866 69.9231 24.2966 68.8154 24.2966 67.5C24.2966 66.1846 23.1866 65.1462 21.8684 65.0769C20.5502 65.0769 19.4402 66.1846 19.4402 67.5C19.4402 68.8154 20.5502 69.9231 21.8684 69.9231ZM24.2967 35.5846H17.3589V33.5769H24.2967V35.5846ZM17.3589 31.2923H24.2967V29.2846H17.3589V31.2923ZM28.5981 52.5462H26.6555V26.0308H28.6675V52.5462H28.5981ZM34.2871 52.5462H37.4091V26.0308H34.2871V52.5462ZM46.2895 52.5462H43.1675V26.0308H46.2895V52.5462ZM51.9785 52.5462H55.1005V26.0308H51.9785V52.5462ZM63.9115 52.5462H60.7895V26.0308H63.9115V52.5462ZM66.756 69.9231C68.0742 69.9231 69.1842 68.8154 69.1842 67.5C69.1842 66.1846 68.1435 65.1462 66.756 65.0769C65.4378 65.0769 64.3278 66.1846 64.3278 67.5C64.3278 68.8154 65.4378 69.9231 66.756 69.9231Z" fill="#3F3D56"/>
</svg>
