<svg width="73" height="72" viewBox="0 0 73 72" fill="none" xmlns="http://www.w3.org/2000/svg">
<circle cx="36.4998" cy="35.7" r="34.3" stroke="black" stroke-width="2.8"/>
<circle cx="31.5994" cy="46.9002" r="0.7" fill="black"/>
<circle cx="31.5994" cy="52.5003" r="0.7" fill="black"/>
<circle cx="40.6995" cy="46.9002" r="0.7" fill="black"/>
<circle cx="40.6995" cy="52.5003" r="0.7" fill="black"/>
<path fill-rule="evenodd" clip-rule="evenodd" d="M37.5494 35.7002C43.4257 35.7002 47.6994 27.9822 47.6994 21.1617C47.6994 19.7258 47.5213 18.2899 46.9871 17.0335L47.1652 16.854C48.3829 13.6322 46.7382 10.8037 46.2349 9.93808C46.1494 9.79103 46.0968 9.70062 46.0968 9.67455L45.7406 9.31558C42.3573 7.7002 40.0424 7.7002 37.5494 7.7002C35.0564 7.7002 32.7415 7.87968 29.3582 9.31558C29.2481 9.31558 29.2061 9.38414 29.148 9.47888C29.1121 9.53744 29.0701 9.606 29.002 9.67455C28.824 9.85404 26.5091 13.0848 27.9336 16.854C27.9336 17.0335 28.1117 17.0335 28.1117 17.0335C27.7556 18.2899 27.3994 19.7258 27.3994 21.1617C27.3994 28.1617 31.6731 35.7002 37.5494 35.7002ZM29.7143 17.7515C31.1389 18.1105 33.8099 18.4694 37.5494 18.4694H39.8643C38.4398 19.0079 36.1249 19.5463 32.0292 19.1874H31.6731C31.1389 19.3669 30.0705 19.9053 29.1801 21.3412C29.1801 19.9053 29.3582 18.8284 29.7143 17.7515ZM45.9187 20.6233C45.9187 19.5463 45.7406 18.6489 45.3845 17.7515C45.0909 17.8501 44.6899 17.8945 44.2403 17.9443C43.8718 17.9852 43.4707 18.0296 43.0696 18.1105C43.9599 18.4694 45.0284 19.3669 45.9187 20.6233ZM37.5494 33.9053C33.988 33.9053 30.7827 29.5976 29.7143 25.1105C29.8924 22.4181 31.317 21.3412 32.2073 20.8028C37.3713 21.3412 40.2205 20.4438 41.8231 19.3669C42.8915 19.9053 45.3845 21.5207 45.7406 24.3925C44.4942 29.2387 41.2889 33.9053 37.5494 33.9053ZM37.5494 9.49507C35.2345 9.49507 33.0977 9.67455 30.2485 10.931C30.232 10.9643 30.214 11.0003 30.1946 11.0389C29.7967 11.8325 28.8488 13.7232 29.3582 15.7771C29.4272 15.7887 29.5036 15.8018 29.5874 15.8161C30.8005 16.0239 33.5517 16.4951 37.5494 16.4951C41.5471 16.4951 44.2983 16.0239 45.5115 15.8161C45.5952 15.8018 45.6716 15.7887 45.7406 15.7771C46.2749 13.6233 45.2064 11.4694 44.8503 10.931C41.8231 9.67455 39.8643 9.49507 37.5494 9.49507Z" fill="black"/>
<path fill-rule="evenodd" clip-rule="evenodd" d="M54.7246 37.8124L47.3218 34.7003L45.3357 32.5035C44.9746 32.1374 44.4329 32.1374 44.0718 32.3204C41.9052 33.968 41.1829 34.3341 41.0024 34.3341C40.6413 34.5172 40.4607 34.8833 40.4607 35.2495V37.4462C40.4607 37.9954 38.8357 38.7277 36.8496 39.0938C34.8635 38.9107 33.2385 38.1785 33.2385 37.4462V35.2495C33.2385 34.8833 33.0579 34.5172 32.6968 34.3341C32.5163 34.3341 31.9746 33.968 29.6274 32.3204C29.2663 32.1374 28.7246 32.1374 28.3635 32.5035L26.3774 34.7003L18.9746 37.8124C14.0996 39.8261 14.0996 42.389 14.0996 44.9518V56.4849C14.0996 57.0341 14.4607 57.4002 15.0024 57.4002H58.6968C59.2385 57.4002 59.5996 57.0341 59.5996 56.4849V44.9518C59.5996 42.389 59.5996 39.8261 54.7246 37.8124ZM42.2663 37.4462V35.7987C42.4895 35.6855 42.8506 35.4325 43.3496 35.0829L43.3497 35.0828C43.6581 34.8668 44.0192 34.6138 44.4329 34.3341L46.0579 36.1648C46.0579 36.3478 46.2385 36.3478 46.4191 36.3478L47.6829 36.897C46.7802 38.5446 44.2524 42.389 37.7524 42.7551V40.7414C39.5579 40.3753 42.2663 39.643 42.2663 37.4462ZM27.4607 36.2563C27.4156 36.3021 27.3704 36.3478 27.2802 36.3478L26.0163 36.714C26.9191 38.3615 29.4468 42.2059 35.9468 42.572V40.7414C34.1413 40.3753 31.4329 39.643 31.4329 37.4462V35.7987C31.2098 35.6855 30.8487 35.4325 30.3496 35.0829L30.3496 35.0829L30.3495 35.0829C30.0411 34.8668 29.68 34.6138 29.2663 34.3341L27.6413 36.1648C27.551 36.1648 27.5059 36.2105 27.4607 36.2563ZM15.9052 44.7688C15.9052 42.389 15.9052 40.9244 19.6968 39.4599L24.3913 37.4462C25.2941 39.4599 28.3635 44.0365 35.9468 44.5857V55.5696H15.9052V44.7688ZM37.7524 55.3865H57.7941V44.5857C57.7941 42.2059 57.7941 40.9244 54.0024 39.2769L49.3079 37.2632C48.4052 39.2769 45.3357 43.8535 37.7524 44.4027V55.3865Z" fill="black"/>
</svg>
