<svg width="68" height="68" viewBox="0 0 68 68" fill="none" xmlns="http://www.w3.org/2000/svg">
<circle cx="34.25" cy="33.75" r="32.55" stroke="#3F3D56" stroke-width="2.4"/>
<path fill-rule="evenodd" clip-rule="evenodd" d="M25.4978 52C25.6307 52.001 25.7584 51.9458 25.8527 51.8465C25.947 51.7472 26 51.6121 26 51.4712V18.5329C26 18.2387 25.7752 18.0002 25.4978 18.0002H11.5132C11.3781 17.9971 11.2475 18.0518 11.151 18.1521C11.0544 18.2523 11 18.3896 11 18.5329V51.4712C11 51.6121 11.053 51.7472 11.1473 51.8465C11.2416 51.9458 11.3693 52.001 11.5022 52H25.4978ZM12.0117 50.9385V29.7314H24.9993V50.9385H12.0117ZM24.9993 28.6699V19.054L12.0117 19.0618V28.6699H24.9993Z" fill="#3F3D56"/>
<path fill-rule="evenodd" clip-rule="evenodd" d="M55.6376 31.9297H57.472C57.7621 31.9297 57.9979 32.1648 58 32.4562V51.4735C57.9979 51.7649 57.7621 52 57.472 52H27.5241C27.2347 52 27 51.7643 27 51.4735V32.4639C27 32.1731 27.2347 31.9374 27.5241 31.9374H44.265V30.9889H43.5598C43.4038 30.9902 43.2554 30.9216 43.1548 30.8019C43.0543 30.6822 43.012 30.5236 43.0395 30.3694L43.3787 28.4336C43.4252 28.1819 43.6441 27.9994 43.8989 28H56.0808C56.3357 27.9994 56.5546 28.1819 56.6011 28.4336L56.9248 30.2765C56.9446 30.3338 56.9551 30.3939 56.9556 30.4546C56.9535 30.746 56.7177 30.9811 56.4276 30.9811H55.6376V31.9297ZM55.6415 29.0569H44.3421L44.188 29.9242H55.7918L55.6415 29.0569ZM45.321 30.9927H54.5701V31.9413H45.321V30.9927ZM28.0405 50.9469H56.9441V32.9711H28.0405V50.9469Z" fill="#3F3D56"/>
<path d="M23.5018 27C23.6346 27 23.7619 26.9448 23.8554 26.8468C23.9489 26.7487 24.001 26.6159 24 26.4777V23.4777C23.9777 23.2075 23.7605 23 23.5 23C23.2395 23 23.0223 23.2075 23 23.4777V26.4777C22.999 26.6166 23.0516 26.75 23.1459 26.8482C23.2402 26.9463 23.3684 27.001 23.5018 27Z" fill="#3F3D56"/>
<path d="M23.5018 37C23.3691 36.9989 23.2414 37.0585 23.1472 37.1656C23.053 37.2727 23 37.4185 23 37.5705V42.4744C23.0222 42.7716 23.2395 43 23.5 43C23.7605 43 23.9778 42.7716 24 42.4744V37.5705C24 37.2554 23.777 37 23.5018 37Z" fill="#3F3D56"/>
<path fill-rule="evenodd" clip-rule="evenodd" d="M38.4877 35H30.5199C30.3811 34.999 30.2477 35.0555 30.1499 35.1568C30.052 35.2581 29.9981 35.3957 30.0001 35.5384V49.4655C30.0001 49.7592 30.2305 49.9979 30.5161 50H38.4839C38.7695 49.9979 38.9999 49.7592 38.9999 49.4655V35.5384C39.0019 35.397 38.949 35.2606 38.8528 35.1596C38.7566 35.0585 38.6252 35.0011 38.4877 35ZM37.9679 36.065V39.8063H31.0359V36.065H37.9679ZM31.0359 40.8713V48.9389L37.9679 48.9272V40.8713H31.0359Z" fill="#3F3D56"/>
<path d="M32.5424 37.9982H34.4576C34.6456 38.0143 34.8268 37.923 34.9258 37.7622C35.0247 37.6014 35.0247 37.3986 34.9258 37.2378C34.8268 37.077 34.6456 36.9857 34.4576 37.0018H32.5424C32.3544 36.9857 32.1732 37.077 32.0742 37.2378C31.9753 37.3986 31.9753 37.6014 32.0742 37.7622C32.1732 37.923 32.3544 38.0143 32.5424 37.9982Z" fill="#3F3D56"/>
<path d="M31.5 43C31.3674 43 31.2402 43.0542 31.1464 43.1507C31.0527 43.2471 31 43.378 31 43.5144V45.4856C31 45.7697 31.2239 46 31.5 46C31.7761 46 32 45.7697 32 45.4856V43.5144C32 43.2303 31.7761 43 31.5 43Z" fill="#3F3D56"/>
<path fill-rule="evenodd" clip-rule="evenodd" d="M40 38.513C40.0021 38.2291 40.2335 38 40.5183 38H55.4855C55.6219 38 55.7528 38.0541 55.8493 38.1503C55.9458 38.2465 56 38.377 56 38.513V48.4832C56 48.7672 55.7702 48.9979 55.4855 49H40.5183C40.2329 48.9979 40.0021 48.7678 40 48.4832V38.513ZM41.0367 47.9664H54.9671V39.0298H41.0367V47.9664Z" fill="#3F3D56"/>
<path d="M54.4503 37.0018H40.5497C40.3591 36.9857 40.1756 37.077 40.0752 37.2378C39.9749 37.3986 39.9749 37.6014 40.0752 37.7622C40.1756 37.923 40.3591 38.0143 40.5497 37.9982H54.4503C54.6409 38.0143 54.8244 37.923 54.9248 37.7622C55.0251 37.6014 55.0251 37.3986 54.9248 37.2378C54.8244 37.077 54.6409 36.9857 54.4503 37.0018Z" fill="#3F3D56"/>
<path fill-rule="evenodd" clip-rule="evenodd" d="M45 35.4893C45.0059 36.3156 44.3424 36.9911 43.5161 36.9999C43.1155 37.0042 42.7298 36.8481 42.445 36.5663C42.1602 36.2845 42 35.9005 42 35.4999C42 34.6736 42.6684 34.0029 43.4947 34C44.321 33.9971 44.9941 34.663 45 35.4893ZM43.9182 35.4999C43.9182 35.2778 43.7382 35.0978 43.5161 35.0978C43.294 35.0978 43.1139 35.2778 43.1139 35.4999C43.1139 35.722 43.294 35.9021 43.5161 35.9021C43.7382 35.9021 43.9182 35.722 43.9182 35.4999Z" fill="#3F3D56"/>
<path fill-rule="evenodd" clip-rule="evenodd" d="M50 35.5C50 36.3284 49.3284 37 48.5 37C47.6725 36.9978 47.0022 36.3275 47 35.5C47 34.6716 47.6716 34 48.5 34C49.3284 34 50 34.6716 50 35.5ZM48.9021 35.5C48.9021 35.2779 48.7221 35.0979 48.5 35.0979C48.2779 35.0979 48.0979 35.2779 48.0979 35.5C48.0979 35.7221 48.2779 35.9021 48.5 35.9021C48.7221 35.9021 48.9021 35.7221 48.9021 35.5Z" fill="#3F3D56"/>
<path fill-rule="evenodd" clip-rule="evenodd" d="M54 35.5C54 36.3284 53.3284 37 52.5 37C51.6725 36.9978 51.0022 36.3275 51 35.5C51 34.6716 51.6716 34 52.5 34C53.3284 34 54 34.6716 54 35.5ZM52.9021 35.5C52.9021 35.2779 52.7221 35.0979 52.5 35.0979C52.2779 35.0979 52.0979 35.2779 52.0979 35.5C52.0979 35.7221 52.2779 35.9021 52.5 35.9021C52.7221 35.9021 52.9021 35.7221 52.9021 35.5Z" fill="#3F3D56"/>
<path d="M42.5523 44.9998C42.7079 45.0039 42.8584 44.9438 42.9683 44.8336L45.8346 41.9706C46.0551 41.7487 46.0551 41.3906 45.8346 41.1687C45.729 41.0608 45.5842 41 45.4332 41C45.2821 41 45.1374 41.0608 45.0317 41.1687L42.1654 44.0316C41.9449 44.2536 41.9449 44.6116 42.1654 44.8336C42.2676 44.9374 42.4065 44.9971 42.5523 44.9998Z" fill="#3F3D56"/>
<path d="M43.1449 45.842C43.2487 45.9465 43.3908 46.0035 43.5378 45.9996C43.6852 46.0055 43.8281 45.9482 43.9308 45.842L47.8601 41.9026C48.0529 41.6898 48.0456 41.3629 47.8433 41.1591C47.6411 40.9553 47.315 40.9462 47.1017 41.1384L43.1724 45.0778C43.0674 45.1753 43.0055 45.3108 43.0004 45.4542C42.9952 45.5976 43.0472 45.7371 43.1449 45.842Z" fill="#3F3D56"/>
</svg>
