<svg width="86" height="86" viewBox="0 0 86 86" fill="none" xmlns="http://www.w3.org/2000/svg">
<circle cx="42.84" cy="42.84" r="41.16" stroke="black" stroke-width="3.36"/>
<path d="M12.0029 51.897L18.1256 49.396L25.4608 67.1032L19.3381 69.6043L12.0029 51.897Z" fill="#3F3D56"/>
<path fill-rule="evenodd" clip-rule="evenodd" d="M60 34.0278C60 40.4109 55.5544 45 48.9863 45C42.3465 45 37.9152 40.4109 38.0012 34.0278C38.0012 30.9267 39.9803 27.7143 44.684 20.5107C46.4327 17.8338 47.8753 14.9801 48.9863 12C50.0484 15.0024 51.4988 17.8622 53.3029 20.5107C58.1214 27.6448 60 30.9267 60 34.0278ZM55.7408 34.89C55.9869 38.0074 53.8482 40.8318 50.7072 41.5373V41.4956C50.4237 41.5648 50.2237 41.8102 50.2196 42.0936C50.2156 42.257 50.2808 42.4149 50.4 42.5305C50.5192 42.6461 50.682 42.7093 50.8506 42.7054H50.9796C54.7118 41.8959 57.2724 38.5615 57.0028 34.8622C56.8994 33.3879 56.4374 31.9582 55.6547 30.6903C55.4805 30.422 55.1238 30.3272 54.8329 30.4719C54.5419 30.6165 54.4131 30.9528 54.5362 31.2465C55.2131 32.3586 55.6248 33.6035 55.7408 34.89Z" fill="#3F3D56"/>
<path d="M69.7407 53.3637C69.1121 52.2415 67.7551 51.8207 65.9266 52.4098C64.0981 52.999 57.7269 54.9066 57.7269 54.9066L51.3558 56.3093C51.4099 57.29 51.1716 58.2649 50.6701 59.1147C50.0009 60.1358 48.8497 60.7538 47.6131 60.7558C47.1199 60.7551 46.6326 60.6498 46.1846 60.4472L39.5277 57.5296C39.3754 57.4598 39.2579 57.3329 39.2016 57.1774C39.1452 57.0219 39.1546 56.8507 39.2277 56.7021C39.3755 56.4063 39.7301 56.2719 40.042 56.3935L46.6988 59.3111C47.7608 59.7716 49.0062 59.4095 49.6416 58.4554C50.0961 57.5967 50.2228 56.6065 49.9987 55.6641C49.9835 55.5869 49.9595 55.5116 49.9273 55.4396C49.6899 55.1579 49.3988 54.9244 49.0702 54.7523C49.0702 54.7523 39.0706 48.7769 35.885 47.3601C34.5867 46.88 33.1549 46.88 31.8566 47.3601L24.4712 50.3479L20 52.1153L24.9141 63.8277L29.9996 61.7517L43.3561 66.7593C44.2804 67.0802 45.2888 67.0802 46.2131 66.7593C51.0884 65.2188 55.8277 63.2907 60.384 60.9943C63.4695 59.4233 65.8266 58.3151 68.3122 56.7862C69.3264 56.2812 70.5407 54.8225 69.7407 53.3637Z" fill="#3F3D56"/>
</svg>
