<svg width="99" height="99" viewBox="0 0 99 99" fill="none" xmlns="http://www.w3.org/2000/svg">
<circle cx="49.5" cy="49.5" r="48" fill="white" stroke="#3B69B6" stroke-width="3"/>
<path fill-rule="evenodd" clip-rule="evenodd" d="M64.1981 27.2153C72.4673 35.5024 72.4673 48.9893 64.1981 57.2764C60.6933 60.7762 56.2656 62.8011 51.7007 63.3511V70.4632H56.6897C58.0617 70.4632 59.1842 71.5882 59.1842 72.9631C59.1842 74.338 58.0741 75.463 56.6897 75.463H51.7007V82.5001C51.7007 83.8751 50.5907 85 49.2062 85C47.8343 85 46.7118 83.8751 46.7118 82.5001V75.4505H41.7228C40.3508 75.4505 39.2283 74.3255 39.2283 72.9506C39.2283 71.5757 40.3383 70.4507 41.7228 70.4507H46.7118V63.3386C42.1344 62.8011 37.7067 60.7887 34.2019 57.2764C25.9327 48.9893 25.9327 35.5024 34.2019 27.2153C42.4711 18.9282 55.9289 18.9282 64.1981 27.2153ZM37.7191 30.7526C31.3956 37.0898 31.3956 47.4018 37.7191 53.739C44.0427 60.0762 54.3449 60.0762 60.6559 53.739C66.9794 47.4018 66.9794 37.0898 60.6559 30.7526C54.3324 24.4155 44.0427 24.4155 37.7191 30.7526Z" fill="#3B69B6"/>
</svg>
