<svg width="72" height="72" viewBox="0 0 72 72" fill="none" xmlns="http://www.w3.org/2000/svg">
<circle cx="35.9002" cy="35.7" r="34.3" stroke="black" stroke-width="2.8"/>
<circle cx="36.2503" cy="49.3499" r="5.95" fill="#030104"/>
<path d="M49.6114 36.1666C49.5275 36.0811 49.439 36.0049 49.3527 35.9264L49.0987 35.6884C49.0568 35.6445 49.0102 35.6122 48.9566 35.5706C41.6463 28.9868 30.4584 29.2479 23.4814 36.1643L22.6634 36.9775L21.5309 38.1002C20.1513 39.4678 20.1583 41.697 21.5402 43.0669C22.9244 44.4414 25.1732 44.4437 26.5504 43.0761L28.5032 41.1403C32.9402 36.7441 40.1572 36.7441 44.5919 41.138L46.0017 42.4917C47.3673 43.8454 49.5951 43.8431 50.9677 42.4801C51.6318 41.8241 51.9977 40.9485 52 40.0176C52.0023 39.0912 51.6411 38.2157 50.977 37.5619L49.6114 36.1666Z" fill="#030104"/>
<path d="M59.4628 29.3325L58.2905 28.1259C58.2858 28.1211 58.2835 28.1139 58.2742 28.1116L57.3485 27.1539C57.1857 26.9887 57.0089 26.8451 56.8229 26.7206C44.9305 15.9736 26.842 16.304 15.3288 27.7046C15.2729 27.7572 15.2101 27.7931 15.1543 27.8506L13.0377 30.0316C11.7818 31.322 11.7887 33.4216 13.0517 34.7216C14.3123 36.0192 16.3522 36.0288 17.6081 34.7336L19.7247 32.5574C19.7387 32.5382 19.7503 32.5214 19.7643 32.5095C29.0748 23.2516 43.8443 23.1941 53.2293 32.3203L54.8947 34.0369C56.1483 35.3273 58.1928 35.3225 59.4534 34.0249C60.7118 32.7249 60.7164 30.6229 59.4628 29.3325Z" fill="#030104"/>
</svg>
