<svg width="68" height="68" viewBox="0 0 68 68" fill="none" xmlns="http://www.w3.org/2000/svg">
<circle cx="34.25" cy="33.75" r="32.55" stroke="#3F3D56" stroke-width="2.4"/>
<path d="M30.0007 23.992C29.9909 24.2553 30.0884 24.5112 30.2707 24.7013C30.4531 24.8913 30.7047 24.9991 30.968 25H37.1194C37.6227 24.9362 38 24.5077 38 24C38 23.4923 37.6227 23.0638 37.1194 23H30.968C30.7075 23.001 30.4585 23.1066 30.2766 23.2932C30.0947 23.4797 29.9953 23.7315 30.0007 23.992Z" fill="#3F3D56"/>
<path fill-rule="evenodd" clip-rule="evenodd" d="M34.5412 10.1756L53.6072 24.1734C53.8583 24.3745 54.0031 24.6817 53.9993 25.0055V51.0003C54.0089 51.2617 53.9128 51.5159 53.733 51.7042C53.5533 51.8926 53.3054 51.9989 53.0464 51.9987H46.6976C46.4421 51.9936 46.1993 51.8849 46.0238 51.6972C45.8483 51.5094 45.7548 51.2583 45.7643 51.0003V42.0025H31.2079L21.969 51.6659C21.9245 51.7208 21.8699 51.7665 21.8082 51.8006C21.7769 51.8006 21.7769 51.8006 21.7455 51.8323C21.7321 51.8459 21.7128 51.8544 21.6953 51.8621C21.6719 51.8725 21.6514 51.8815 21.6514 51.8997C21.6514 51.9314 21.62 51.9314 21.5886 51.9314C21.5734 51.9314 21.5582 51.9398 21.5425 51.9484C21.5259 51.9576 21.5088 51.967 21.4906 51.967C21.4314 51.9931 21.3667 52.004 21.3024 51.9987H14.9536C14.6946 51.9989 14.4467 51.8926 14.267 51.7042C14.0872 51.5159 13.9911 51.2617 14.0007 51.0003V25.0055C14.0016 24.6783 14.1539 24.3705 14.4124 24.1734L33.4588 10.1756C33.7824 9.94147 34.2176 9.94147 34.5412 10.1756ZM47.6505 50.0177H52.0935V25.5403L34 12.2438L15.9065 25.5403V50.0177H20.3495V30.6711C20.3399 30.4097 20.436 30.1555 20.6158 29.9672C20.7955 29.7789 21.0434 29.6725 21.3024 29.6727H46.6976C46.9566 29.6725 47.2045 29.7789 47.3842 29.9672C47.564 30.1555 47.6601 30.4097 47.6505 30.6711V50.0177Z" fill="#3F3D56"/>
</svg>
