<svg width="73" height="72" viewBox="0 0 73 72" fill="none" xmlns="http://www.w3.org/2000/svg">
<circle cx="36.5999" cy="35.9998" r="34.3" stroke="black" stroke-width="2.8"/>
<path d="M17.6815 49.9998H12.7998L22.6181 28.2998H27.4998L17.6815 49.9998Z" fill="black"/>
<path d="M28.8817 49.9998H24L33.8183 28.2998H38.7L28.8817 49.9998Z" fill="black"/>
<path d="M34.5362 49.9998H29.5996L39.4179 28.2998H44.2996L34.5362 49.9998Z" fill="black"/>
<path d="M60.3997 49.9998L50.331 28.2998H50.2747H45.3247H45.2685L35.1997 49.9998H40.206L47.7997 33.6413L55.3935 49.9998H60.3997Z" fill="black"/>
<path d="M32.1126 28.0409V24.0996H28.273V28.0409H28.2182L18.3999 49.9996H23.3365L33.0999 28.0409H32.1126Z" fill="black"/>
<rect x="45" y="42.2998" width="2.86364" height="2.24" fill="black"/>
<rect x="48.4365" y="42.2998" width="2.86364" height="2.24" fill="black"/>
<rect x="48.4365" y="45.0996" width="2.86364" height="2.8" fill="black"/>
<rect x="45" y="45.0996" width="2.86364" height="2.8" fill="black"/>
</svg>
