<svg width="99" height="99" viewBox="0 0 99 99" fill="none" xmlns="http://www.w3.org/2000/svg">
<circle cx="49.5" cy="49.5" r="49.5" fill="#3B69B6"/>
<path fill-rule="evenodd" clip-rule="evenodd" d="M72.255 30.1962C72.3154 30.3533 72.3517 30.5104 72.3758 30.6796C72.3758 30.7037 72.3789 30.7249 72.3819 30.746C72.3849 30.7672 72.3879 30.7883 72.3879 30.8125C72.3879 30.8306 72.3909 30.8518 72.394 30.8729C72.397 30.8941 72.4 30.9152 72.4 30.9333V44.4667C72.4 45.53 71.53 46.4 70.4667 46.4C69.4033 46.4 68.5333 45.53 68.5333 44.4667V35.5975L56.9937 47.1371C59.4587 50.2183 60.8 54.0125 60.8 58C60.8 67.5942 52.9942 75.4 43.4 75.4C33.8058 75.4 26 67.5942 26 58C26 48.4058 33.8058 40.6 43.4 40.6C47.3996 40.6 51.1817 41.9412 54.2629 44.4062L65.8025 32.8667H56.9333C55.87 32.8667 55 31.9967 55 30.9333C55 29.87 55.87 29 56.9333 29H70.4667C70.6102 29 70.7461 29.0227 70.8745 29.0442C70.9082 29.0498 70.9415 29.0554 70.9742 29.0604C71.0225 29.0725 71.0588 29.0846 71.095 29.0967C71.2521 29.145 71.3971 29.2175 71.53 29.3021C71.53 29.3142 71.5421 29.3142 71.5421 29.3142C71.6871 29.4108 71.8079 29.5317 71.9167 29.6525C71.9287 29.6706 71.9408 29.6857 71.9529 29.7008C71.965 29.7159 71.9771 29.731 71.9892 29.7492C72.0979 29.8821 72.1825 30.0271 72.255 30.1842V30.1962ZM29.8667 58C29.8667 65.4675 35.9325 71.5333 43.4 71.5333C50.8675 71.5333 56.9333 65.4675 56.9333 58C56.9333 54.3871 55.5196 50.9796 52.97 48.4179C50.4204 45.8683 47.0129 44.4667 43.4 44.4667C35.9325 44.4667 29.8667 50.5325 29.8667 58Z" fill="white"/>
</svg>
