<svg width="83" height="84" viewBox="0 0 83 84" fill="none" xmlns="http://www.w3.org/2000/svg">
<path d="M81 42C81 64.114 63.2927 82 41.5 82C19.7073 82 2 64.114 2 42C2 19.886 19.7073 2 41.5 2C63.2927 2 81 19.886 81 42Z" stroke="black" stroke-width="3.36"/>
<ellipse cx="19.1229" cy="52.247" rx="1.22059" ry="1.23419" fill="#3F3D56"/>
<ellipse cx="19.5295" cy="48.5445" rx="0.813725" ry="1.64559" fill="#3F3D56"/>
<ellipse cx="19.5295" cy="55.9496" rx="0.813725" ry="1.64559" fill="#3F3D56"/>
<ellipse rx="1.83936" ry="0.76113" transform="matrix(0.703227 -0.710965 0.703127 0.711064 21.9947 49.7168)" fill="#3F3D56"/>
<ellipse rx="1.83923" ry="0.761076" transform="matrix(0.703177 -0.711015 0.703177 0.711015 16.9237 54.7845)" fill="#3F3D56"/>
<ellipse cx="23.1915" cy="52.6584" rx="2.03431" ry="0.822795" fill="#3F3D56"/>
<ellipse cx="15.8678" cy="52.6584" rx="2.03431" ry="0.822795" fill="#3F3D56"/>
<ellipse rx="0.761076" ry="1.83923" transform="matrix(0.703177 -0.711015 0.703177 0.711015 21.9784 54.7749)" fill="#3F3D56"/>
<ellipse rx="0.761076" ry="1.83923" transform="matrix(0.703177 -0.711015 0.703177 0.711015 16.9369 49.7216)" fill="#3F3D56"/>
<path d="M22.329 68.2604V68.2604H26.8531C26.8531 66.9209 24.1204 66.6094 22.9363 66.5782C23.1184 65.6126 23.1792 64.678 23.1792 63.7746C23.1792 59.8185 21.7825 56.9526 21.7825 56.9214C21.7217 56.7968 21.5396 56.7345 21.4181 56.7968C21.2967 56.8591 21.2359 57.046 21.2967 57.1707V57.1707C21.2967 57.1707 21.3878 57.3264 21.5092 57.6691C21.9039 58.6347 22.663 60.9088 22.663 63.8058C22.663 64.678 22.6023 65.6437 22.4201 66.6094C21.1449 66.6717 18.7158 67.0143 18.7158 68.2915L22.329 68.2604V68.2604Z" fill="#3F3D56"/>
<path d="M19.6733 61.4305C21.241 61.9264 21.774 61.6931 21.9307 61.2555C22.0875 60.818 21.8367 60.3222 20.269 59.8263C18.7014 59.3305 16.444 59.0096 16.2872 59.4471C16.0991 59.8846 18.1057 60.9347 19.6733 61.4305Z" fill="#3F3D56"/>
<path d="M24.0102 60.8313C24.4185 61.0232 24.8813 60.7674 25.3986 59.2005C25.9159 57.6337 26.2698 55.3314 25.8614 55.1396C25.453 54.9477 24.4185 56.9622 23.9013 58.529C23.384 60.0959 23.6018 60.6395 24.0102 60.8313Z" fill="#3F3D56"/>
<path d="M60.5936 56.3101C59.2684 56.867 57.6041 57.9251 57.7891 58.287C57.974 58.649 59.9464 58.2035 61.2716 57.6466C62.5968 57.0897 62.7817 56.6442 62.5968 56.2822C62.4119 55.9202 61.9188 55.7532 60.5936 56.3101Z" fill="#3F3D56"/>
<path d="M56.0084 57.5841C56.3895 57.3883 55.9205 55.3982 55.3929 54.0606C54.8359 52.723 54.3963 52.5273 54.0445 52.723C53.6634 52.9188 53.5169 53.4081 54.0738 54.7458C54.5721 56.0834 55.6274 57.7472 56.0084 57.5841Z" fill="#3F3D56"/>
<path d="M45.8096 66.6698C45.7493 66.0578 45.5986 64.9868 45.1466 63.7629C45.1466 63.7323 45.1466 63.7323 45.1767 63.7017C45.1767 63.7017 45.2069 63.5487 45.2973 63.2733C45.5384 62.4777 46.2918 60.7335 48.0397 59.7544C48.1603 59.6932 48.2206 59.5096 48.1301 59.3872C48.0699 59.2648 47.8891 59.2036 47.7685 59.2648C45.9603 60.3052 45.1466 62.0187 44.8452 62.9367C44.3932 61.9881 43.7904 61.0089 42.8863 60.1522C42.7658 60.0604 42.6151 60.0604 42.4945 60.1522C42.4041 60.2746 42.4041 60.4276 42.4945 60.55C43.8808 61.8657 44.6041 63.5181 44.9356 64.8338C45.1164 65.507 45.2069 66.0578 45.237 66.4862C45.237 66.5474 45.237 66.578 45.237 66.6392C43.9712 66.7004 41.5 67.037 41.5 68.2915H49.637C49.6671 67.037 47.0151 66.7004 45.8096 66.6698Z" fill="#3F3D56"/>
<path d="M52.8921 68.2915H61.0293C61.0293 67.0197 58.7389 66.6283 57.4429 66.5631C57.4128 66.4001 57.3826 66.1718 57.3224 65.9435C57.1717 65.0304 57.021 63.7911 57.021 62.3562C57.021 59.682 57.5635 56.486 59.5827 53.9749C59.6731 53.8445 59.6731 53.6814 59.5526 53.551C59.432 53.4531 59.2813 53.4531 59.1608 53.5836C56.9909 56.2578 56.4484 59.6168 56.4484 62.3562C56.4484 64.0846 56.6593 65.5848 56.8402 66.5305C55.7552 66.5305 52.8921 66.8566 52.8921 68.2915Z" fill="#3F3D56"/>
<path d="M59.4504 46.4723C59.8872 47.1741 60.324 47.876 60.7272 48.5445L61.0296 48.4108C60.7608 47.6755 60.492 46.9068 60.1896 46.138C59.9208 45.3359 59.7528 44.9014 59.6856 44.7677C59.6184 44.6006 59.5176 44.5003 59.3496 44.4669C59.2152 44.4001 59.0472 44.4335 58.9128 44.5003C58.7784 44.5672 58.6776 44.6675 58.6104 44.8346C58.5768 44.9683 58.5768 45.1354 58.644 45.2691C58.7112 45.3359 58.98 45.7704 59.4504 46.4723Z" fill="#3F3D56"/>
<path d="M63.142 53.4351C63.2782 53.369 63.3804 53.2698 63.4486 53.1044C63.4827 52.9721 63.4827 52.8068 63.4145 52.6745C63.3464 52.5422 63.0738 52.1453 62.631 51.4177C62.1881 50.7232 61.7452 50.0287 61.3364 49.3672L61.0298 49.4995C61.3023 50.2271 61.5749 50.9878 61.8815 51.7484C62.154 52.5422 62.3244 52.9721 62.3925 53.1044C62.4606 53.2698 62.5628 53.369 62.7332 53.4021C62.8354 53.5013 62.9716 53.5013 63.142 53.4351Z" fill="#3F3D56"/>
<path d="M61.4736 43.6077C61.3503 43.6077 61.2517 43.6384 61.1777 43.7305C61.1038 43.8226 61.0544 43.9454 61.0298 44.0989C61.0298 44.2217 61.0298 44.6822 61.0544 45.4498C61.0791 46.2173 61.1038 46.9541 61.1038 47.691L61.3503 47.7217C61.449 47.0155 61.5476 46.2787 61.6709 45.5112C61.7942 44.7436 61.8435 44.3138 61.8435 44.191C61.8435 44.0375 61.8189 43.9147 61.7449 43.7919C61.6956 43.6998 61.5969 43.6384 61.4736 43.6077Z" fill="#3F3D56"/>
<path d="M60.4073 52.4005C60.2876 53.1681 60.2398 53.5979 60.2158 53.7207C60.2158 53.8742 60.2398 53.997 60.3116 54.1198C60.3834 54.2426 60.4791 54.304 60.5987 54.304C60.7184 54.304 60.8141 54.2733 60.8859 54.1812C60.9577 54.0891 61.0056 53.9663 61.0295 53.8128C61.0295 53.69 61.0295 53.2295 61.0056 52.4619C60.9817 51.6944 60.9577 50.9576 60.9577 50.2207L60.7184 50.19C60.6227 50.9269 60.527 51.633 60.4073 52.4005Z" fill="#3F3D56"/>
<path d="M64.1038 44.5488C63.9907 44.4436 63.8777 44.4086 63.7364 44.4436C63.5951 44.4787 63.5103 44.5838 63.4255 44.724C63.369 44.8642 63.1429 45.3199 62.832 46.091C62.4928 46.8621 62.1819 47.5981 61.8428 48.3342L62.0689 48.5445C62.4928 47.9136 62.9167 47.2476 63.3972 46.5817C63.8494 45.9157 64.132 45.5302 64.1886 45.39C64.2734 45.2498 64.3016 45.0745 64.2734 44.9343C64.2734 44.7591 64.2168 44.6189 64.1038 44.5488Z" fill="#3F3D56"/>
<path d="M59.465 51.33C59.0179 51.996 58.7386 52.3815 58.6827 52.5217C58.5989 52.6619 58.5709 52.8372 58.5989 52.9774C58.6268 53.1526 58.6827 53.2578 58.7944 53.3629C58.9062 53.4681 59.0179 53.5031 59.1576 53.4681C59.2973 53.433 59.3812 53.3279 59.465 53.1877C59.5208 53.0475 59.7444 52.5918 60.0517 51.8207C60.387 51.0496 60.6943 50.3136 61.0296 49.5775L60.806 49.3672C60.359 50.0332 59.9399 50.6641 59.465 51.33Z" fill="#3F3D56"/>
<path d="M65.5779 46.0987C65.4457 46.0642 65.2804 46.0642 65.1482 46.1331C65.016 46.202 64.6193 46.4776 63.8921 46.9254C63.198 47.3732 62.5039 47.8211 61.8428 48.2344L61.975 48.5445C62.7022 48.2689 63.4624 47.9933 64.2227 47.6833C65.016 47.4077 65.4787 47.2355 65.5779 47.1666C65.7432 47.0977 65.8423 46.9943 65.8754 46.8221C65.9415 46.6843 65.9084 46.5121 65.8423 46.3743C65.8423 46.2709 65.7101 46.1676 65.5779 46.0987Z" fill="#3F3D56"/>
<path d="M57.8092 50.194C57.0286 50.4696 56.6058 50.6418 56.4756 50.7107C56.313 50.7796 56.2154 50.8829 56.1829 51.0552C56.1179 51.193 56.1504 51.3652 56.2154 51.503C56.2805 51.6408 56.3781 51.7441 56.5407 51.813C56.6708 51.8475 56.8334 51.8475 56.9635 51.7786C57.0936 51.7097 57.4839 51.4341 58.1995 50.9863C58.8825 50.5385 59.5656 50.0906 60.2161 49.6773L60.086 49.3672C59.3054 49.6084 58.5898 49.9184 57.8092 50.194Z" fill="#3F3D56"/>
<path d="M65.7292 49.284C65.8507 49.2101 65.9114 49.1115 65.9114 48.9882C65.9114 48.8649 65.881 48.7663 65.7899 48.6924C65.6989 48.6184 65.5774 48.5691 65.4256 48.5444C65.3041 48.5444 64.8487 48.5444 64.0896 48.5691C63.3306 48.5938 62.6018 48.6184 61.8731 48.6184L61.8428 48.8649C62.5411 48.9636 63.2698 49.0622 64.0289 49.1854C64.788 49.3087 65.2131 49.358 65.3345 49.358C65.5167 49.3827 65.6381 49.358 65.7292 49.284Z" fill="#3F3D56"/>
<path d="M56.6333 49.3672C56.7547 49.3672 57.2102 49.3672 57.9692 49.3423C58.7283 49.3174 59.457 49.2924 60.1857 49.2924L60.2161 49.0431C59.5177 48.9434 58.789 48.8436 58.03 48.719C57.2709 48.5943 56.8458 48.5444 56.7244 48.5444C56.5725 48.5444 56.4511 48.5694 56.3296 48.6442C56.2082 48.719 56.1475 48.8187 56.1475 48.9434C56.1475 49.068 56.1778 49.1678 56.2689 49.2426C56.36 49.3174 56.4815 49.3423 56.6333 49.3672Z" fill="#3F3D56"/>
<path d="M65.4131 51.8254C65.5864 51.7972 65.6904 51.7407 65.7944 51.6277C65.8984 51.5146 65.9331 51.4016 65.8984 51.2603C65.8637 51.1191 65.7597 51.0343 65.6211 50.9495C65.4824 50.893 65.0318 50.667 64.2692 50.3562C63.5066 50.0171 62.7787 49.7063 62.0508 49.3672L61.8428 49.5933C62.4667 50.0171 63.1253 50.4409 63.7839 50.9213C64.4425 51.3734 64.8238 51.6559 64.9625 51.7124C65.1011 51.8254 65.2745 51.8537 65.4131 51.8254Z" fill="#3F3D56"/>
<path d="M57.2508 46.9441C57.3894 47.0013 57.84 47.2299 58.6026 47.5442C59.3652 47.8872 60.0932 48.2015 60.8211 48.5445L61.0291 48.3158C60.4051 47.8872 59.7465 47.4585 59.0879 46.9727C58.4293 46.5154 58.048 46.2297 57.9094 46.1725C57.7707 46.0868 57.5974 46.0582 57.4587 46.0868C57.2854 46.1154 57.1814 46.1725 57.0774 46.2868C56.9734 46.4011 56.9388 46.5154 56.9734 46.6583C57.0081 46.7441 57.1121 46.8584 57.2508 46.9441Z" fill="#3F3D56"/>
<path fill-rule="evenodd" clip-rule="evenodd" d="M49.6848 34.605C55.0462 40.0262 41.7871 40.0262 47.1485 34.605C41.7871 40.0262 41.7871 26.6517 47.1485 32.0405C41.7871 26.6193 55.0462 26.6193 49.6848 32.0405C55.0462 26.6193 55.0462 40.0262 49.6848 34.605ZM49.3635 33.3061C49.3314 32.7867 48.9141 32.3647 48.4004 32.3647C47.8867 32.3647 47.4694 32.7867 47.4694 33.3386C47.5015 33.858 47.9188 34.28 48.4325 34.28C48.9462 34.2475 49.3635 33.8255 49.3635 33.3061Z" fill="#3F3D56"/>
<path fill-rule="evenodd" clip-rule="evenodd" d="M26.201 35.543C30.3256 39.7136 20.1261 39.7136 24.2507 35.543C20.1261 39.7459 20.1261 29.4327 24.2507 33.5709C20.1261 29.4003 30.3256 29.4003 26.201 33.5709C30.3256 29.4003 30.3256 39.7136 26.201 35.543ZM25.9766 34.5733C25.9766 34.153 25.6569 33.8297 25.2412 33.8297C24.8256 33.8297 24.5058 34.153 24.5058 34.5733C24.5058 34.9936 24.8256 35.3169 25.2412 35.3169C25.6569 35.3169 25.9766 34.9936 25.9766 34.5733Z" fill="#3F3D56"/>
<path fill-rule="evenodd" clip-rule="evenodd" d="M46.9042 49.8629C49.0883 55.4665 39.5368 51.2803 45.0786 49.0719C39.5368 51.2803 43.6769 41.6554 45.861 47.226C43.6769 41.6224 53.2284 45.8086 47.6865 48.0171C53.2284 45.8086 49.0883 55.4665 46.9042 49.8629ZM46.6759 47.8857C46.2847 47.7209 45.8609 47.8857 45.6979 48.2812C45.5349 48.6438 45.6979 49.0723 46.0891 49.2701C46.4803 49.4349 46.9041 49.2701 47.0671 48.8745C47.23 48.479 47.0671 48.0505 46.6759 47.8857Z" fill="#3F3D56"/>
<path d="M28.0693 37.5444C27.9118 37.4813 27.7542 37.5444 27.6911 37.6707C27.6281 37.8286 27.6911 37.9864 27.8487 38.0495C31.6621 39.7858 33.6161 42.3743 34.6246 44.5841C35.1289 45.689 35.4125 46.6676 35.5386 47.3621C35.6962 48.0881 35.6962 48.4985 35.6962 48.4985C35.6962 48.5616 35.7277 48.6248 35.7592 48.6563C33.8052 54.528 33.4901 60.81 33.4901 64.1562C33.4901 65.5767 33.5531 66.4922 33.5531 66.5869C32.2609 66.6184 29.5821 66.9657 29.5821 68.2915H38.0914C38.0914 66.9657 35.4125 66.65 34.1204 66.5869V66.5553V66.5553C34.1204 66.5553 34.0573 65.6398 34.0573 64.1246C34.0573 62.1674 34.1519 59.2 34.6561 55.8854C34.6561 55.8538 34.6877 55.8222 34.6877 55.7591C34.9713 55.0646 36.4841 52.0657 42.283 50.4241C42.4406 50.3926 42.5351 50.2347 42.4721 50.0769C42.4406 49.919 42.283 49.8243 42.1254 49.8875C37.9653 51.0555 35.8853 52.9811 34.9083 54.307C36.0744 47.9303 38.7217 40.8275 44.6152 37.5444C44.7412 37.4813 44.8042 37.2919 44.7097 37.1656C44.6467 37.0394 44.4576 36.9762 44.3315 37.0709C40.2975 39.3438 37.7447 43.2898 36.1374 47.5515C35.7907 45.4364 34.278 40.3224 28.0693 37.5444Z" fill="#3F3D56"/>
<path d="M32.2898 50.2036C33.1568 50.5745 34.9908 51.0128 34.9908 51.0128C34.9908 51.0128 34.5573 49.1584 34.1905 48.2818C33.4569 46.461 31.3561 45.517 30.4558 46.4273C29.5555 47.3714 30.4891 49.4619 32.2898 50.2036Z" fill="#3F3D56"/>
<path d="M29.6799 42.3336C30.4247 41.87 31.7356 40.7442 31.7356 40.7442C31.7356 40.7442 30.2162 39.9495 29.4118 39.6515C27.7433 39.0887 25.9259 40.1151 26.0451 41.4064C26.1643 42.6647 28.1306 43.2607 29.6799 42.3336Z" fill="#3F3D56"/>
<path d="M33.5904 40.3165C33.5904 40.3165 34.4769 38.8096 34.7725 38.026C35.4292 36.3684 34.5098 34.4696 33.2292 34.56C31.9487 34.6203 31.2591 36.5793 32.1128 38.1767C32.5069 38.9301 33.5904 40.3165 33.5904 40.3165Z" fill="#3F3D56"/>
<path d="M39.2867 40.3165C39.2867 40.3165 40.1732 38.8096 40.4688 38.026C41.1255 36.3684 40.2061 34.4696 38.9255 34.56C37.6449 34.6203 36.9554 36.5793 37.8091 38.1767C38.2031 38.9301 39.2867 40.3165 39.2867 40.3165Z" fill="#3F3D56"/>
<path d="M38.5276 48.6441C38.8295 49.1703 39.6221 50.19 39.6221 50.19C39.6221 50.19 40.2637 49.1375 40.5278 48.5454C41.0185 47.3612 40.3014 46.0126 39.3579 46.0784C38.4144 46.1113 37.886 47.4928 38.5276 48.6441Z" fill="#3F3D56"/>
<path d="M39.873 51.8356C39.873 51.8356 40.3793 52.8839 40.6771 53.3604C41.3322 54.3451 42.6424 54.5992 43.0295 53.9321C43.4166 53.2651 42.6126 52.1215 41.4811 51.9309C40.9748 51.8356 39.873 51.8356 39.873 51.8356Z" fill="#3F3D56"/>
<path d="M46.3807 42.0972C46.4403 40.8023 44.5918 39.8727 42.952 40.5367C42.1768 40.8355 40.686 41.7319 40.686 41.7319C40.686 41.7319 42.0575 42.7944 42.8327 43.226C44.3533 44.0892 46.3211 43.392 46.3807 42.0972Z" fill="#3F3D56"/>
<path d="M43.1771 58.6552C43.2628 59.145 43.6055 60.0636 43.6055 60.0636C43.6055 60.0636 44.2338 59.3288 44.4623 58.9307C44.9763 58.0734 44.7764 56.9099 44.1481 56.7875C43.5484 56.6344 42.9487 57.6754 43.1771 58.6552Z" fill="#3F3D56"/>
<path d="M51.2239 57.2095C50.9742 56.6358 49.7572 56.6085 49.0083 57.2368C48.6339 57.5373 48.0098 58.2203 48.0098 58.2203C48.0098 58.2203 49.0083 58.4115 49.5076 58.4115C50.5374 58.4935 51.4735 57.7832 51.2239 57.2095Z" fill="#3F3D56"/>
<path d="M47.1968 60.226C47.1968 60.226 47.8267 60.9267 48.1732 61.2232C48.9291 61.843 50.1574 61.87 50.4094 61.304C50.6614 60.7381 49.748 60.0374 48.7086 60.0643C48.2047 60.0643 47.1968 60.226 47.1968 60.226Z" fill="#3F3D56"/>
<path d="M46.3955 56.9687C46.4511 57.4621 46.7292 58.418 46.7292 58.418C46.7292 58.418 47.3686 57.7396 47.6467 57.3387C48.2028 56.5061 48.0915 55.3343 47.5077 55.1493C46.896 54.9643 46.2843 55.9511 46.3955 56.9687Z" fill="#3F3D56"/>
<path d="M38.2693 58.911C38.0846 59.4838 39.0079 60.1385 40.0542 60.0566C40.5465 60.0021 41.5005 59.7839 41.5005 59.7839C41.5005 59.7839 40.8543 59.102 40.4542 58.8292C39.6849 58.2292 38.4847 58.311 38.2693 58.911Z" fill="#3F3D56"/>
<path d="M42.3135 61.0465C42.3135 61.0465 41.3056 60.9137 40.8017 60.8871C39.7623 60.8605 38.8489 61.5777 39.1009 62.1355C39.3528 62.6933 40.5812 62.6667 41.3371 62.0292C41.6836 61.7371 42.3135 61.0465 42.3135 61.0465Z" fill="#3F3D56"/>
<path d="M21.6635 22.7718C22.0997 23.0275 22.3801 22.676 22.9409 23.1553C23.1279 23.3151 23.9068 24.1779 24.5923 23.5388C24.5923 23.5388 24.0314 24.5933 24.9973 25.1685C25.9632 25.7437 27.0536 25.52 27.334 24.9768C27.6145 24.4335 27.1471 22.9955 27.0225 22.7079C27.0225 22.7079 27.5833 23.379 27.7079 23.2512L27.7391 23.2192C27.8637 23.0914 27.2717 22.4523 27.2717 22.4523C27.5521 22.644 28.8919 23.2512 29.4527 23.0275C30.0135 22.8038 30.3562 21.7173 29.8889 20.6627C29.4527 19.6401 28.3622 20.0875 28.3622 20.0875C29.0788 19.4484 28.2999 18.5536 28.1753 18.3619C27.7702 17.7227 28.113 17.4991 27.926 17.0197C27.5521 16.1569 27.1471 16.5404 27.1471 16.5404C25.4023 18.234 26.337 21.3657 26.337 21.3657C26.337 21.3657 26.2124 21.2379 26.0878 21.2379C25.9943 20.9823 25.6204 20.0875 25.7762 19.6082C25.7762 19.4803 25.6516 19.5442 25.6516 19.5762C25.6516 19.5762 25.4646 20.2153 26.0566 21.2699C26.0255 21.2699 25.9943 21.2699 25.9943 21.3018V21.3018C25.9632 21.3338 25.9632 21.3338 25.9632 21.3657C24.9973 20.6308 24.3742 20.7586 24.3742 20.7586C24.343 20.7586 24.2807 20.8544 24.4053 20.8864C24.9038 20.7905 25.7451 21.2379 25.9632 21.3657C25.932 21.4936 26.0566 21.6214 26.0566 21.6214C26.0566 21.6214 23.1279 20.3112 21.2585 21.909C21.2585 21.909 20.8534 22.2925 21.6635 22.7718Z" fill="#3F3D56"/>
<path d="M60.6493 27.4008C61.1893 27.7188 62.6188 27.3371 62.9365 27.2099C62.9365 27.2099 62.2376 27.7506 62.3647 27.8779L62.3965 27.9097C62.4918 28.0369 63.1906 27.4962 63.1906 27.4962C63 27.7506 62.3012 29.0865 62.4918 29.6908C62.6824 30.2634 63.7624 30.6769 64.8107 30.2952C65.859 29.9135 65.4778 28.7684 65.4778 28.7684C66.0496 29.5318 67.0026 28.8003 67.2249 28.7048C67.8603 28.3232 68.0826 28.7048 68.5591 28.5458C69.4486 28.2277 69.0992 27.7824 69.0992 27.7824C67.4791 25.874 64.3342 26.6692 64.3342 26.6692C64.3342 26.6692 64.493 26.5738 64.4613 26.4466C64.7154 26.3511 65.6049 26.0649 66.1131 26.2557C66.2402 26.2557 66.1767 26.1285 66.1767 26.1285C66.1767 26.1285 65.5731 25.9058 64.493 26.4466C64.493 26.4147 64.493 26.3829 64.4613 26.3829V26.3829C64.4295 26.3511 64.4295 26.3511 64.3977 26.3511C65.1601 25.4287 65.0966 24.7608 65.0966 24.7608C65.0966 24.729 65.0013 24.6654 64.9695 24.7926C65.0331 25.3015 64.5248 26.1285 64.3977 26.3511C64.2707 26.3193 64.1436 26.4147 64.1436 26.4147C64.1436 26.4147 65.6366 23.5203 64.1436 21.5165C64.1436 21.5165 63.7942 21.0712 63.2859 21.8664C63 22.3117 63.3495 22.5979 62.8094 23.1386C62.6506 23.2977 61.7294 24.061 62.3329 24.8244C62.3329 24.8244 61.3164 24.1883 60.7129 25.1107C59.9822 25.9694 60.1411 27.1145 60.6493 27.4008Z" fill="#3F3D56"/>
</svg>
