<svg width="86" height="86" viewBox="0 0 86 86" fill="none" xmlns="http://www.w3.org/2000/svg">
<circle cx="42.84" cy="42.84" r="41.16" stroke="black" stroke-width="3.36"/>
<path fill-rule="evenodd" clip-rule="evenodd" d="M22.9225 72.2401H63.6591C64.2004 72.2401 64.7418 71.7635 64.6741 71.1508V23.7693C64.6741 23.1566 64.2004 22.6801 63.5914 22.6801H22.9225C22.3135 22.6801 21.8398 23.1566 21.8398 23.7693V71.1508C21.8398 71.7635 22.3135 72.2401 22.9225 72.2401ZM62.5764 70.0616H24.0052V24.8585H62.5764V70.0616Z" fill="black"/>
<path d="M63.6647 33.6001H22.9227C22.3136 33.6001 21.8398 33.0488 21.8398 32.3401C21.8398 31.6313 22.3136 31.0801 22.9227 31.0801H63.597C64.2061 31.0801 64.6798 31.6313 64.6798 32.3401C64.6798 33.0488 64.2061 33.6001 63.6647 33.6001Z" fill="black"/>
<path d="M34.8596 33.6001C34.1509 33.6001 33.5996 33.1037 33.5996 32.4655V23.8146C33.5996 23.1764 34.1509 22.6801 34.8596 22.6801C35.5684 22.6801 36.1196 23.1764 36.1196 23.8146V32.4655C36.1196 33.1037 35.5684 33.6001 34.8596 33.6001Z" fill="black"/>
<path d="M31.6191 29.4H26.3413C25.6994 29.4 25.2002 28.8488 25.2002 28.14C25.2002 27.4313 25.6994 26.88 26.3413 26.88H31.6191C32.261 26.88 32.7602 27.4313 32.7602 28.14C32.7602 28.8488 32.1896 29.4 31.6191 29.4Z" fill="black"/>
<path fill-rule="evenodd" clip-rule="evenodd" d="M30.2402 52.0458C30.2402 59.5011 36.3121 65.52 43.6802 65.52C51.0484 65.52 57.1202 59.5695 57.1202 52.1142C57.1202 44.6589 51.0484 38.64 43.6802 38.64C36.2439 38.64 30.2402 44.5905 30.2402 52.0458ZM32.4234 52.0458C32.4234 45.8217 37.4719 40.7603 43.6802 40.7603C49.8886 40.7603 54.9371 45.8217 54.9371 52.0458C54.9371 58.2699 49.8886 63.3313 43.6802 63.3313C37.4719 63.3313 32.4234 58.2699 32.4234 52.0458Z" fill="black"/>
<path fill-rule="evenodd" clip-rule="evenodd" d="M34.4395 52.0801C34.4395 57.145 38.5461 61.3201 43.6795 61.3201C48.7443 61.3201 52.9195 57.145 52.9195 52.0116C52.9195 46.9468 48.7443 42.8401 43.6795 42.8401C38.6146 42.8401 34.4395 46.9468 34.4395 52.0801ZM36.6297 52.0116C36.6297 48.1103 39.7781 44.9619 43.6795 44.9619C47.5808 44.9619 50.7292 48.1103 50.7292 52.0116C50.7292 55.913 47.5808 59.0614 43.6795 59.0614C39.7781 59.0614 36.6297 55.913 36.6297 52.0116Z" fill="black"/>
<path d="M55.6607 55.44C55.0638 55.44 54.5996 54.95 54.5996 54.32C54.5996 53.69 55.0638 53.2 55.6607 53.2C56.7217 53.2 57.5175 52.29 57.5175 51.24C57.5175 50.19 56.6554 49.28 55.6607 49.28C55.0638 49.28 54.5996 48.79 54.5996 48.16C54.5996 47.53 55.0638 47.04 55.6607 47.04C57.8491 47.04 59.6396 48.93 59.6396 51.24C59.6396 53.55 57.8491 55.44 55.6607 55.44Z" fill="black"/>
<circle cx="53.3401" cy="28.14" r="1.26" fill="black"/>
<circle cx="52.9194" cy="27.7201" r="2.52" fill="black"/>
<circle cx="58.3801" cy="28.14" r="1.26" fill="black"/>
<circle cx="57.9595" cy="27.7201" r="2.52" fill="black"/>
<path d="M54.2056 25.2C54.0681 25.2 53.9306 25.2 53.8619 25.13C53.3119 24.92 53.0369 24.29 53.2432 23.73L57.0931 13.16H31.1748L35.0247 23.73C35.231 24.29 34.956 24.92 34.406 25.13C33.856 25.34 33.2373 25.06 33.031 24.5L28.6311 12.46C28.4936 12.11 28.5624 11.76 28.7686 11.41C28.9748 11.13 29.2498 10.92 29.6623 10.92H58.5368C58.8805 10.92 59.2243 11.13 59.4305 11.41C59.6368 11.69 59.7055 12.11 59.568 12.46L55.1681 24.5C55.0306 24.92 54.6181 25.2 54.2056 25.2Z" fill="black"/>
<path d="M56.0943 16.8H31.3346C30.719 16.8 30.2402 16.2488 30.2402 15.54C30.2402 14.8313 30.719 14.28 31.3346 14.28H56.0259C56.6415 14.28 57.1202 14.8313 57.1202 15.54C57.1202 16.2488 56.6415 16.8 56.0943 16.8Z" fill="black"/>
<path d="M44.0998 24.36C43.3911 24.36 42.8398 23.87 42.8398 23.24V12.04C42.8398 11.41 43.3911 10.92 44.0998 10.92C44.8086 10.92 45.3598 11.41 45.3598 12.04V23.24C45.3598 23.87 44.8086 24.36 44.0998 24.36Z" fill="black"/>
<path d="M48.8782 25.2C48.8162 25.2 48.8162 25.2 48.7542 25.2C48.1965 25.1301 47.8246 24.5704 47.8866 23.9407L49.25 11.9071C49.312 11.2775 49.8697 10.8577 50.3655 10.9276C50.9233 10.9976 51.2951 11.5573 51.2331 12.187L49.8697 24.2206C49.8078 24.7803 49.374 25.2 48.8782 25.2Z" fill="black"/>
<path d="M39.2284 25.2C38.7634 25.2 38.2985 24.8491 38.232 24.3577L35.3094 12.2844C35.1765 11.6527 35.5086 11.0912 36.1064 10.9508C36.7043 10.8104 37.2357 11.1614 37.3685 11.7931L40.2912 23.8664C40.424 24.4981 40.0919 25.0597 39.4941 25.2C39.4277 25.2 39.2948 25.2 39.2284 25.2Z" fill="black"/>
<path d="M54.3616 21.0001H32.9982C32.3917 21.0001 31.9199 20.4489 31.9199 19.7401C31.9199 19.0314 32.3917 18.4801 32.9982 18.4801H54.3616C54.9682 18.4801 55.4399 19.0314 55.4399 19.7401C55.4399 20.4489 54.9682 21.0001 54.3616 21.0001Z" fill="black"/>
</svg>