<svg width="68" height="68" viewBox="0 0 68 68" fill="none" xmlns="http://www.w3.org/2000/svg">
<circle cx="33.75" cy="33.75" r="32.55" stroke="#3F3D56" stroke-width="2.4"/>
<path d="M38.6219 28.5037H19.8781C19.3716 28.4709 18.8756 28.6578 18.5167 29.0167C18.1578 29.3756 17.9709 29.8716 18.0037 30.3781V49.1219C17.9709 49.6284 18.1578 50.1244 18.5167 50.4833C18.8756 50.8422 19.3716 51.0291 19.8781 50.9963H38.6219C39.1284 51.0291 39.6244 50.8422 39.9833 50.4833C40.3422 50.1244 40.5291 49.6284 40.4963 49.1219V30.3781C40.5291 29.8716 40.3422 29.3756 39.9833 29.0167C39.6244 28.6578 39.1284 28.4709 38.6219 28.5037Z" fill="#3F3D56"/>
<path d="M52.5199 44.018L52.0049 44.5906V34.8557L52.5199 35.4064C52.8546 35.7492 53.2932 35.9524 53.7561 35.979C54.2131 35.9531 54.6454 35.7494 54.9716 35.4064C55.308 35.0653 55.4985 34.5915 55.4985 34.0959C55.4985 33.6003 55.308 33.1265 54.9716 32.7854L51.4692 29.0633C51.1502 28.7037 50.707 28.5 50.2434 28.5C49.7798 28.5 49.3365 28.7037 49.0175 29.0633L45.5151 32.8075C45.0771 33.2756 44.9061 33.958 45.0664 34.5976C45.2267 35.2371 45.694 35.7367 46.2923 35.908C46.8905 36.0794 47.5288 35.8966 47.9668 35.4284L48.5025 34.8778V44.6126L47.9668 44.04C47.5252 43.5718 46.8834 43.3911 46.2833 43.5658C45.6832 43.7406 45.216 44.2444 45.0575 44.8873C44.899 45.5303 45.0735 46.2148 45.5151 46.6829L49.0175 50.4271C49.3522 50.77 49.7908 50.9732 50.2537 50.9998C50.7177 51.0081 51.1619 50.7989 51.4692 50.4271L54.9922 46.6829C55.6693 45.9592 55.6693 44.7858 54.9922 44.062C54.3152 43.3383 53.2176 43.3383 52.5405 44.062L52.5199 44.018Z" fill="#3F3D56"/>
<path d="M18.5646 19.9619L22.3178 23.4636C22.6563 23.8056 23.1325 24 23.6314 24C24.1302 24 24.6064 23.8056 24.9449 23.4636C25.3054 23.1447 25.5096 22.7015 25.5096 22.238C25.5096 21.7745 25.3054 21.3314 24.9449 21.0124L24.3709 20.4975H34.1291L33.5771 21.0124C33.2167 21.3314 33.0125 21.7745 33.0125 22.238C33.0125 22.7015 33.2167 23.1447 33.5771 23.4636C33.9117 23.8045 34.3843 23.9986 34.8797 23.9986C35.3751 23.9986 35.8477 23.8045 36.1822 23.4636L39.9354 19.9619C40.2958 19.6429 40.5 19.1998 40.5 18.7363C40.5 18.2728 40.2958 17.8296 39.9354 17.5107L36.1822 14.0089C35.4444 13.4161 34.3409 13.4566 33.6553 14.1017C32.9697 14.7468 32.9355 15.7768 33.5771 16.4601L34.1291 16.9957H24.3709L24.9449 16.4601C25.3054 16.1412 25.5096 15.698 25.5096 15.2345C25.5096 14.771 25.3054 14.3279 24.9449 14.0089C24.597 13.6831 24.1243 13.5 23.6314 13.5C23.1384 13.5 22.6657 13.6831 22.3178 14.0089L18.5646 17.5107C18.2042 17.8296 18 18.2728 18 18.7363C18 19.1998 18.2042 19.6429 18.5646 19.9619Z" fill="#3F3D56"/>
</svg>