<svg width="73" height="72" viewBox="0 0 73 72" fill="none" xmlns="http://www.w3.org/2000/svg">
<circle cx="36.4002" cy="35.7" r="34.3" stroke="black" stroke-width="2.8"/>
<path d="M21.7002 28.6997H23.1002V42.6997H21.7002V28.6997Z" fill="black"/>
<path fill-rule="evenodd" clip-rule="evenodd" d="M51.6988 13.2998H24.6016L21.7002 16.2152V27.286H22.9656V24.7431H53.3348V52.8854H47.6406V54.1568H52.4401L51.1747 55.4283H28.027V56.6998H51.6988L54.6002 53.7844V16.2152L51.6988 13.2998ZM25.1257 14.5713H51.1747L52.4401 15.8428H23.8603L25.1257 14.5713ZM22.9656 17.1143V23.4716H53.3348V17.1143H22.9656Z" fill="black"/>
<path fill-rule="evenodd" clip-rule="evenodd" d="M37.8001 51.0997C31.6244 51.0997 26.6001 46.0754 26.6001 39.8997C26.6001 33.7239 31.6244 28.6997 37.8001 28.6997C43.9759 28.6997 49.0001 33.7239 49.0001 39.8997C49.0001 46.0754 43.9759 51.0997 37.8001 51.0997ZM37.8001 49.8318C43.2767 49.8318 47.7322 45.3763 47.7322 39.8997C47.7322 34.4231 43.2767 29.9676 37.8001 29.9676C32.3235 29.9676 27.868 34.4231 27.868 39.8997C27.868 45.3763 32.3235 49.8318 37.8001 49.8318Z" fill="black"/>
<path fill-rule="evenodd" clip-rule="evenodd" d="M38.1504 49C33.3257 49 29.4004 45.0747 29.4004 40.25C29.4004 35.4252 33.3257 31.5 38.1504 31.5C42.9752 31.5 46.9004 35.4252 46.9004 40.25C46.9004 42.3318 46.1567 44.349 44.8064 45.9299L43.8331 45.0987C44.5625 44.2448 45.0837 43.2416 45.3687 42.1698H39.1652L36.6055 39.61H30.708C30.69 39.821 30.6803 40.0343 30.6803 40.25C30.6803 44.3691 34.0314 47.7201 38.1504 47.7201C39.9276 47.7201 41.6496 47.0854 42.9991 45.9327L43.8303 46.9059C42.2493 48.2563 40.2321 49 38.1504 49ZM41.0406 38.3302H45.37C44.5205 35.1385 41.6059 32.7799 38.1504 32.7799C34.6949 32.7799 31.7803 35.1385 30.9308 38.3302H37.1356L39.6952 40.89H45.5925C45.6108 40.6779 45.6205 40.4644 45.6205 40.25C45.6205 40.0344 45.6108 39.8211 45.5928 39.6101H41.0406V38.3302Z" fill="black"/>
<path fill-rule="evenodd" clip-rule="evenodd" d="M48.3003 19.9497C48.3003 18.9847 49.0854 18.1997 50.0503 18.1997C51.0152 18.1997 51.8003 18.9848 51.8003 19.9497C51.8003 20.9146 51.0152 21.6997 50.0503 21.6997C49.0854 21.6997 48.3003 20.9147 48.3003 19.9497ZM49.467 19.9497C49.467 20.2714 49.7286 20.533 50.0503 20.533C50.372 20.533 50.6336 20.2714 50.6336 19.9497C50.6336 19.628 50.372 19.3664 50.0503 19.3664C49.7286 19.3664 49.467 19.628 49.467 19.9497Z" fill="black"/>
<path fill-rule="evenodd" clip-rule="evenodd" d="M43.4004 19.9497C43.4004 18.9847 44.1855 18.1997 45.1504 18.1997C46.1153 18.1997 46.9004 18.9847 46.9004 19.9497C46.9004 20.9147 46.1153 21.6997 45.1504 21.6997C44.1855 21.6997 43.4004 20.9147 43.4004 19.9497ZM44.5671 19.9497C44.5671 20.2714 44.8287 20.533 45.1504 20.533C45.4721 20.533 45.7337 20.2714 45.7337 19.9497C45.7337 19.628 45.4721 19.3664 45.1504 19.3664C44.8287 19.3664 44.5671 19.628 44.5671 19.9497Z" fill="black"/>
<path fill-rule="evenodd" clip-rule="evenodd" d="M38.5 19.9497C38.5 18.9847 39.2851 18.1997 40.25 18.1997C41.2149 18.1997 42 18.9847 42 19.9497C42 20.9147 41.2149 21.6997 40.25 21.6997C39.2851 21.6997 38.5 20.9147 38.5 19.9497ZM39.6667 19.9497C39.6667 20.2714 39.9283 20.533 40.25 20.533C40.5717 20.533 40.8333 20.2714 40.8333 19.9497C40.8333 19.628 40.5717 19.3664 40.25 19.3664C39.9283 19.3664 39.6667 19.628 39.6667 19.9497Z" fill="black"/>
<path fill-rule="evenodd" clip-rule="evenodd" d="M32.9003 21.6997H23.8003V18.1997H32.9003V21.6997ZM31.6003 19.3664H25.1003V20.533H31.6003V19.3664Z" fill="black"/>
<path fill-rule="evenodd" clip-rule="evenodd" d="M12.8412 44.0996L11.2002 45.7286V47.5105L12.2065 48.5096L11.2002 49.5086V51.2905L12.2065 52.2896L11.2002 53.2886V55.0705L12.8412 56.6996H24.9592L26.6002 55.0705V53.2886L25.5938 52.2896L26.6002 51.2905V49.5086L25.5938 48.5096L26.6002 47.5105V45.7286L24.9592 44.0996H12.8412ZM25.331 54.5487L24.4334 55.4396H13.3669L12.4694 54.5487V53.8105L13.3669 52.9196H15.6425V51.6596H13.3669L12.4694 50.7687V50.0305L13.3669 49.1396H24.4334L25.331 50.0305V50.7687L24.4334 51.6596H16.9117V52.9196H24.4335L25.331 53.8105V54.5487ZM24.4334 47.8796L25.331 46.9887V46.2505L24.4334 45.3596H13.3669L12.4694 46.2505V46.9887L13.3669 47.8796H24.4334Z" fill="black"/>
<path d="M30.1001 53.1997H31.5001V54.5997H30.1001V53.1997Z" fill="black"/>
<path d="M44.1001 25.8999H45.5001V27.2999H44.1001V25.8999Z" fill="black"/>
<path d="M28 53.1997H29.4V54.5997H28V53.1997Z" fill="black"/>
<path d="M46.9004 25.8999H51.8004V27.2999H46.9004V25.8999Z" fill="black"/>
</svg>