<svg width="68" height="68" viewBox="0 0 68 68" fill="none" xmlns="http://www.w3.org/2000/svg">
<circle cx="33.75" cy="33.75" r="32.55" stroke="#3F3D56" stroke-width="2.4"/>
<path d="M50.3003 16.5H35.1997C35.0137 16.4987 34.835 16.5708 34.7035 16.7C34.572 16.8292 34.4987 17.0048 34.5 17.1875V24.1338C34.5304 24.4926 34.8357 24.7686 35.2021 24.7686C35.5685 24.7686 35.8738 24.4926 35.9042 24.1338V17.9036H49.5958V49.6179H44.1299C43.8651 49.5962 43.6104 49.7228 43.4713 49.9452C43.3321 50.1675 43.3321 50.4479 43.4713 50.6703C43.6104 50.8927 43.8651 51.0193 44.1299 50.9976H50.3003C50.4863 50.9989 50.665 50.9269 50.7965 50.7977C50.928 50.6685 51.0013 50.4929 51 50.3101V17.1875C51.0013 17.0048 50.928 16.8292 50.7965 16.7C50.665 16.5708 50.4863 16.4987 50.3003 16.5Z" fill="#3F3D56"/>
<path fill-rule="evenodd" clip-rule="evenodd" d="M47.325 19.5C47.6978 19.5 48 19.8262 48 20.2285V24.7664C48 25.1696 47.6986 25.4972 47.325 25.5H38.175C37.8059 25.5 37.5052 25.18 37.5 24.7816V20.2285C37.4988 20.0349 37.5695 19.8488 37.6963 19.7119C37.8232 19.575 37.9956 19.4987 38.175 19.5H47.325ZM38.8547 24.0329H46.6453V20.9621H38.8547V24.0329Z" fill="#3F3D56"/>
<path d="M47.9956 27.7336C47.9956 27.3304 47.7152 27.0028 47.3677 27H44.0798C43.7521 27.0317 43.5 27.3495 43.5 27.731C43.5 28.1126 43.7521 28.4304 44.0798 28.4621H46.7354V31.5379H44.263C43.9352 31.5696 43.6831 31.8874 43.6831 32.269C43.6831 32.6505 43.9352 32.9683 44.263 33H47.3721C47.7179 32.9972 47.9976 32.6727 48 32.2715L47.9956 27.7336Z" fill="#3F3D56"/>
<path d="M47.9974 35.1704C47.965 34.7915 47.6401 34.5 47.25 34.5C46.8599 34.5 46.535 34.7915 46.5026 35.1704V39.7082C46.4791 39.983 46.6162 40.2473 46.8572 40.3917C47.0981 40.5361 47.4019 40.5361 47.6428 40.3917C47.8838 40.2473 48.0209 39.983 47.9974 39.7082V35.1704Z" fill="#3F3D56"/>
<path d="M45.6134 46.5416C45.4005 46.5187 45.1958 46.6522 45.0839 46.8869C44.972 47.1216 44.972 47.4175 45.0839 47.6521C45.1958 47.8868 45.4005 48.0203 45.6134 47.9975H47.4375C47.7488 47.9947 48 47.6685 48 47.267V42.733C48 42.3315 47.7488 42.0053 47.4375 42.0025H45.6134C45.4005 41.9797 45.1958 42.1132 45.0839 42.3479C44.972 42.5825 44.972 42.8784 45.0839 43.1131C45.1958 43.3478 45.4005 43.4813 45.6134 43.4584H46.8711V46.5214L45.6134 46.5416Z" fill="#3F3D56"/>
<path fill-rule="evenodd" clip-rule="evenodd" d="M24.644 29.887H24.5044H20.1202V50.363C20.089 50.723 19.7756 51 19.3995 51C19.0233 51 18.7099 50.723 18.6787 50.363V29.887H14.2197C13.9814 29.8895 13.758 29.7759 13.6262 29.5852C13.4903 29.3951 13.4622 29.1524 13.5514 28.9384L16.6737 21.436C16.7822 21.1727 17.0472 20.9998 17.342 21H21.6564C21.9512 20.9998 22.2162 21.1727 22.3248 21.436L25.4471 28.9384C25.5191 29.1086 25.5176 29.2994 25.4427 29.4685C25.3677 29.6376 25.2257 29.771 25.048 29.8391C24.9622 29.8712 24.8708 29.8874 24.7787 29.887C24.734 29.8917 24.6888 29.8917 24.644 29.887ZM21.1676 22.3845H17.8308L15.2871 28.5024H23.7113L21.1676 22.3845Z" fill="#3F3D56"/>
<path fill-rule="evenodd" clip-rule="evenodd" d="M45.4815 35.9311C46.2672 36.5839 46.638 37.6011 46.4533 38.5972C46.1763 40.0475 44.8595 41.2633 44.0384 41.7898L43.8926 46.8779C43.8821 47.2519 43.5727 47.5504 43.1929 47.5528H43.1443L42.775 50.396C42.7274 50.7547 42.4081 51.0172 42.0413 50.9991H40.9238C40.5717 50.9973 40.275 50.7398 40.2289 50.396L39.8596 47.5241C39.672 47.5143 39.4965 47.4296 39.3737 47.2896H29.6169C29.4934 47.4288 29.3183 47.5133 29.131 47.5241L28.7617 50.396C28.7176 50.7409 28.4197 50.9994 28.0669 50.9991H26.9493C26.5973 50.9973 26.3006 50.7398 26.2545 50.396L25.8706 47.5528H25.8269C25.4452 47.553 25.1329 47.2537 25.1223 46.8779L24.9766 41.7898C24.1408 41.2633 22.8143 40.0379 22.5471 38.602C22.3616 37.6044 22.7323 36.5854 23.5189 35.9311C24.6559 34.878 25.8074 34.878 26.7064 35.3567C26.2836 32.2981 26.2788 28.78 28.0474 27.1478C30.4575 24.9507 38.8878 24.9507 41.2736 27.1478C43.0131 28.7369 43.0326 32.188 42.6293 35.2131C43.4747 34.9068 44.5097 35.0073 45.4815 35.9311ZM40.3164 28.1625C38.4165 26.425 30.9045 26.425 28.9998 28.1625C27.4595 29.5698 27.7753 33.5665 28.3778 36.7927C29.1593 37.5965 29.6466 38.634 29.7627 39.7412H39.2328C39.3545 38.6 39.8689 37.5342 40.6905 36.7209L41.0161 36.4002C41.57 33.265 41.7741 29.5123 40.3164 28.1625ZM39.2037 41.1245V42.4073H29.7918V41.1245H39.2037ZM39.2085 43.7906H29.7918V45.9302H39.2085V43.7906ZM23.927 38.3531C23.8239 37.81 24.0377 37.2557 24.4809 36.9171C24.9377 36.4959 25.6471 36.0316 26.5266 36.9171L26.8084 37.1899C26.8595 37.2403 26.9128 37.2917 26.9667 37.3438C27.0768 37.4501 27.1899 37.5594 27.2943 37.6686C27.9969 38.3561 28.3906 39.2922 28.3876 40.2677V46.1551H26.512L26.3711 41.3686C26.3651 41.095 26.1954 40.8508 25.9386 40.7463C25.5888 40.5932 24.1457 39.5162 23.927 38.3531ZM27.7122 47.5528H27.2943L27.5032 49.1419L27.7122 47.5528ZM41.502 49.1419L41.3173 47.5528H41.7303L41.502 49.1419ZM42.6293 41.3686C42.6352 41.095 42.8049 40.8508 43.0617 40.7463C43.4116 40.5932 44.8595 39.5162 45.0782 38.3483C45.1813 37.8052 44.9675 37.2509 44.5243 36.9123C44.0675 36.5055 43.363 36.0412 42.4786 36.9123L42.1774 37.2043C42.1262 37.2547 42.0741 37.3056 42.0212 37.3571C41.9132 37.4624 41.8024 37.5705 41.6915 37.683C40.9978 38.3693 40.6097 39.2992 40.6128 40.2677V46.1551H42.4883L42.6293 41.3686Z" fill="#3F3D56"/>
</svg>