<svg width="72" height="72" viewBox="0 0 72 72" fill="none" xmlns="http://www.w3.org/2000/svg">
<circle cx="35.8001" cy="35.7" r="34.3" stroke="black" stroke-width="2.8"/>
<path fill-rule="evenodd" clip-rule="evenodd" d="M12 35C12 21.8556 22.6556 11.2 35.8 11.2C48.9383 11.2147 59.5852 21.8617 59.6 35C59.6 48.1443 48.9444 58.7999 35.8 58.7999C22.6556 58.7999 12 48.1443 12 35ZM15.9667 35C15.9667 45.9536 24.8464 54.8333 35.8 54.8333C46.7485 54.8209 55.6209 45.9484 55.6333 35C55.6333 24.0463 46.7536 15.1666 35.8 15.1666C24.8464 15.1666 15.9667 24.0463 15.9667 35Z" fill="black"/>
<path fill-rule="evenodd" clip-rule="evenodd" d="M31.5125 25.2H38.5562C42.4464 25.2 45.6 28.2912 45.6 32.1045C45.6 35.9178 42.4464 39.009 38.5562 39.009H33.525V46.9H29.5V27.1727C29.5 26.0832 30.401 25.2 31.5125 25.2ZM33.525 35.0636H38.5562C40.2235 35.0636 41.575 33.7388 41.575 32.1045C41.575 30.4702 40.2235 29.1454 38.5562 29.1454H33.525V35.0636Z" fill="black"/>
</svg>
