<svg width="72" height="72" viewBox="0 0 72 72" fill="none" xmlns="http://www.w3.org/2000/svg">
<circle cx="36.1004" cy="35.7" r="34.3" stroke="black" stroke-width="2.8"/>
<path fill-rule="evenodd" clip-rule="evenodd" d="M57.0136 32.2841C57.018 32.2936 57.0225 32.3031 57.0253 32.3131C57.0619 32.4305 57.0863 32.5498 57.0975 32.6722C57.1015 32.7031 57.1002 32.7344 57.0989 32.7664L57.0989 32.7666C57.0982 32.7829 57.0975 32.7993 57.0975 32.8159C57.1036 33.0415 57.0731 33.2681 56.9979 33.4896L56.9827 33.5312C56.956 33.6047 56.9298 33.6766 56.8922 33.7455C56.8912 33.7486 56.8902 33.7526 56.8881 33.7557C56.8776 33.7784 56.8641 33.7978 56.8505 33.8173C56.8418 33.8298 56.8331 33.8423 56.8251 33.8558C56.7834 33.9246 56.7418 33.9924 56.692 34.0571C56.6583 34.0996 56.6188 34.1368 56.5786 34.1745L56.5497 34.2018C56.5345 34.2169 56.5204 34.2326 56.5064 34.2481C56.4838 34.2732 56.4616 34.2979 56.4359 34.3191C56.3576 34.3798 56.2814 34.4294 56.2031 34.479C56.1903 34.4876 56.1775 34.4973 56.1649 34.5069C56.1555 34.514 56.1462 34.521 56.1371 34.5275L56.1177 34.5366L56.1056 34.5427L45.3132 40.5283L54.6786 45.2302C55.2102 45.4973 55.5517 45.9829 55.6665 46.515C55.6696 46.5203 55.6729 46.5255 55.6762 46.5307C55.6837 46.5422 55.6916 46.5535 55.6995 46.5647L55.6995 46.5648C55.7155 46.5874 55.7313 46.61 55.7437 46.6353C56.2194 47.562 55.8474 48.6939 54.9165 49.1664L36.2598 58.5955C36.1857 58.6313 36.108 58.6551 36.0318 58.6784L36.022 58.6814L35.991 58.6946L35.9909 58.6946L35.9909 58.6946C35.9527 58.7111 35.9144 58.7275 35.8736 58.7371C35.7191 58.7786 35.5595 58.7998 35.4071 58.7998H35.403C35.2435 58.7998 35.0819 58.7765 34.9233 58.7351C34.8887 58.7249 34.8557 58.711 34.8226 58.6971C34.8032 58.689 34.7837 58.6808 34.7638 58.6734C34.7342 58.6615 34.7043 58.6512 34.6743 58.6409C34.6198 58.6221 34.5652 58.6033 34.5127 58.5752L15.7392 48.5675C15.7322 48.5657 15.7262 48.561 15.72 48.5561C15.7154 48.5525 15.7108 48.5488 15.7057 48.5462C15.6805 48.5318 15.6571 48.5157 15.6337 48.4996L15.6336 48.4996L15.6101 48.4835C15.5105 48.4168 15.417 48.3459 15.3327 48.266C15.3012 48.2357 15.2707 48.2053 15.2412 48.173C15.1416 48.0627 15.0522 47.9464 14.982 47.8199C14.9804 47.8155 14.9775 47.8124 14.9745 47.8089C14.9719 47.806 14.9691 47.8029 14.9668 47.7987C14.9668 47.7966 14.9658 47.7946 14.9647 47.7926C14.9058 47.6803 14.857 47.563 14.8204 47.4487C14.8151 47.4302 14.812 47.4115 14.809 47.393C14.8062 47.3761 14.8035 47.3594 14.7991 47.3435L14.7946 47.3246C14.7758 47.2465 14.7578 47.1713 14.7493 47.0926C14.7461 47.0567 14.7469 47.0235 14.7477 46.9897C14.7482 46.9692 14.7487 46.9484 14.7483 46.9267C14.7483 46.9065 14.7477 46.8858 14.7471 46.8648C14.7458 46.8187 14.7444 46.7713 14.7493 46.7254C14.7538 46.6853 14.7619 46.6476 14.77 46.6096C14.7748 46.5871 14.7797 46.5645 14.7838 46.5413C14.7879 46.5227 14.7917 46.5038 14.7956 46.4847C14.8052 46.437 14.8151 46.3882 14.8296 46.342C14.8652 46.2347 14.9068 46.1285 14.9607 46.0253C14.9618 46.0242 14.9623 46.0231 14.9629 46.0218C14.9631 46.0212 14.9634 46.0207 14.9637 46.0201C14.964 46.0195 14.9643 46.0189 14.9647 46.0183C14.9762 45.9976 14.9902 45.9784 15.0039 45.9597C15.0096 45.9518 15.0153 45.9441 15.0206 45.9363C15.0654 45.8605 15.1121 45.7826 15.169 45.7138C15.1916 45.6865 15.2163 45.6625 15.2414 45.6381C15.2582 45.6217 15.2753 45.6052 15.292 45.5873C15.3051 45.5743 15.3179 45.5611 15.3306 45.5479L15.3306 45.5479C15.3623 45.5151 15.394 45.4824 15.4302 45.4528C15.489 45.4017 15.5545 45.3618 15.6199 45.3219L15.6376 45.3112C15.6546 45.3014 15.6701 45.2906 15.6857 45.2796L15.6858 45.2796L15.6858 45.2796C15.7009 45.269 15.7161 45.2584 15.7331 45.2484L30.5115 37.3044L14.7401 29.3835C14.109 29.0659 13.7086 28.4266 13.7004 27.7235C13.6923 27.0204 14.0795 26.371 14.7025 26.0412L25.0995 20.5209C25.6372 20.2357 26.2825 20.2255 26.8273 20.4956L36.0372 25.0266L39.3565 23.3726C39.9003 23.1035 40.5395 23.1086 41.0792 23.3888L56.0974 31.2085C56.1172 31.2189 56.1354 31.2317 56.1536 31.2445C56.1671 31.254 56.1807 31.2636 56.195 31.2722C56.2086 31.2806 56.2225 31.289 56.2366 31.2976L56.2366 31.2976C56.2918 31.331 56.3491 31.3656 56.3993 31.4067C56.436 31.4358 56.4683 31.4682 56.5002 31.5002L56.5127 31.5127L56.5344 31.5342C56.5413 31.5409 56.5482 31.5475 56.5552 31.554C56.5622 31.5606 56.5693 31.5672 56.5763 31.5737L56.5764 31.5738L56.5764 31.5738C56.607 31.6023 56.6377 31.6308 56.6655 31.6627C56.7146 31.7217 56.757 31.7874 56.7987 31.8522L56.8109 31.8711C56.8197 31.884 56.8287 31.8961 56.8375 31.908L56.8376 31.908L56.8376 31.9081C56.8502 31.925 56.8626 31.9417 56.8739 31.9601C56.8759 31.9631 56.878 31.9661 56.878 31.9702C56.9298 32.0602 56.9694 32.1543 57.0009 32.2514C57.0036 32.2627 57.0086 32.2733 57.0136 32.284L57.0136 32.2841ZM26.0254 24.2992L19.7018 27.6557L25.8445 30.7411L32.0136 27.245L26.0254 24.2992ZM50.3318 47.2575L35.4305 54.7878L20.6287 46.8983L34.6296 39.37L50.3318 47.2575ZM35.4762 35.5796L41.2428 38.4738L51.2384 32.9292L40.1798 27.1722L36.9367 28.7897L29.8976 32.7774L35.4762 35.5796Z" fill="black"/>
</svg>
