<svg width="72" height="72" viewBox="0 0 72 72" fill="none" xmlns="http://www.w3.org/2000/svg">
<circle cx="36.3001" cy="35.7" r="34.3" stroke="black" stroke-width="2.8"/>
<path fill-rule="evenodd" clip-rule="evenodd" d="M59.8882 28.3954C60.3634 29.7869 60.0307 31.3835 58.974 32.7753L58.8705 32.8941L51.3089 40.6752L52.6438 52.028C52.6982 53.4891 52.2908 54.7149 51.4665 55.5715C50.7665 56.2987 49.7903 56.7 48.7195 56.7C47.9976 56.7 47.243 56.5243 46.4775 56.1793L46.391 56.1357L36.3025 50.6322L26.1274 56.1793C24.2274 57.0373 22.3127 56.7922 21.1379 55.5713C20.3136 54.7149 19.907 53.4889 19.9611 52.0278L19.9686 51.9254L21.2942 40.6752L13.6292 32.7744C12.5757 31.3867 12.239 29.7847 12.7052 28.3815C13.1714 26.9776 14.3995 25.899 16.0736 25.4195L16.2145 25.3877L26.4711 23.663L32.3295 13.3554C33.342 11.9662 34.7046 11.2 36.1678 11.2C37.6897 11.2 39.1226 12.0589 40.0987 13.5556L40.1742 13.6868L45.1258 23.6644L56.4837 25.4985C58.1707 25.9481 59.411 27.0048 59.8882 28.3954ZM48.6067 39.7566L56.9666 31.1555C57.469 30.4695 57.6409 29.7883 57.4522 29.2317C57.2604 28.6728 56.7043 28.2396 55.8809 28.0066L43.4105 26.0007L37.9046 14.9077C36.9395 13.4802 35.4881 13.445 34.4534 14.8199L28.107 26.003L16.7177 27.9197C15.8968 28.1682 15.3413 28.6203 15.1501 29.1964C14.9586 29.772 15.132 30.4648 15.6368 31.1563L23.9957 39.7571L22.5325 52.1739C22.5145 52.8842 22.6767 53.4535 22.9928 53.7827C23.4058 54.2108 24.1642 54.225 25.0262 53.8464L36.3009 47.6948L47.577 53.8457C48.4405 54.2253 49.1978 54.2095 49.6096 53.7811C49.9256 53.4537 50.0884 52.8826 50.0699 52.1723L48.6067 39.7566Z" fill="black"/>
<path d="M36.3467 26.5434C36.2077 27.0252 36.0012 27.4095 35.7288 27.6984C35.3321 28.1207 34.8169 28.4019 34.1843 28.5426C33.7875 28.6319 33.0923 28.6981 32.1001 28.7428V30.8965H35.8709V41.9999H39.1001V25.8999H36.4687C36.4687 26.0401 36.4277 26.2551 36.3467 26.5434Z" fill="black"/>
</svg>
