<svg width="68" height="68" viewBox="0 0 68 68" fill="none" xmlns="http://www.w3.org/2000/svg">
<circle cx="34.25" cy="33.75" r="32.55" stroke="#3F3D56" stroke-width="2.4"/>
<path fill-rule="evenodd" clip-rule="evenodd" d="M59.7227 18C59.7227 18 59.8613 18.0699 59.9307 18.1398C59.9601 18.1694 59.977 18.1864 59.9868 18.2069C60 18.2348 60 18.2689 60 18.3494V45.1819C60 45.2518 59.9307 45.3916 59.792 45.4614L34.1387 58.9476C34.0693 59.0175 34 59.0175 33.8613 58.9476L8.208 45.4614C8.06933 45.3916 8 45.3217 8 45.1819V18.3494C8 18.2471 8.03716 18.2197 8.08427 18.1849C8.10151 18.1722 8.12009 18.1585 8.13867 18.1398C8.13867 18.0699 8.27733 18 8.34667 18L34.0693 21.983L59.7227 18ZM33.6533 22.8215L8.832 18.8385V44.6928L18.4693 43.0158V25.7563V25.6864C18.4693 25.4768 18.6773 25.337 18.8853 25.337L27.0667 26.1755C27.2747 26.1755 27.4133 26.3852 27.4133 26.5948V41.4086L33.6533 40.3605V22.8215ZM19.232 42.876V26.1755L22.9067 26.5249V42.2471L19.232 42.876ZM23.2533 26.5948V42.1772L26.5813 41.6182V26.9442L23.2533 26.5948ZM12.5067 46.9288L9.73333 45.4614L34 41.199L35.7333 41.4785L12.7147 46.9987L12.5067 46.9288ZM36.3573 41.6182L13.0613 47.2084L16.112 48.8854L39.2 42.1074L36.3573 41.6182ZM16.4587 48.9553L39.6853 42.1772L42.5973 42.7363L19.648 50.6323L16.4587 48.9553ZM43.0827 42.7363L19.9253 50.772L23.184 52.519L46.48 43.2953L43.0827 42.7363ZM23.4613 52.5888L46.8267 43.435L50.5013 44.0639L26.72 54.3357L23.4613 52.5888ZM50.9173 44.1338L26.9973 54.4755L30.3947 56.2923L54.2453 44.6928L50.9173 44.1338ZM34 58.179L30.6027 56.432L54.5227 44.8326L58.2667 45.4614L34 58.179ZM34.4853 40.3605L59.2373 44.6928V18.7686L34.4853 22.7516V40.3605Z" fill="#3F3D56"/>
</svg>