<svg width="52" height="52" viewBox="0 0 52 52" fill="none" xmlns="http://www.w3.org/2000/svg">
<path fill-rule="evenodd" clip-rule="evenodd" d="M26 0C11.6406 0 0 11.6406 0 26C0 40.3594 11.6406 52 26 52C40.3594 52 52 40.3594 52 26C52 11.6406 40.3594 0 26 0ZM26 7.8C30.3078 7.8 33.8 11.2922 33.8 15.6C33.8 19.9078 30.3078 23.4 26 23.4C21.6922 23.4 18.2 19.9078 18.2 15.6C18.2006 11.2926 21.6926 7.80108 26 7.80108V7.8ZM10.4 37.0251C13.9061 42.2061 19.7442 45.3218 26 45.3505C32.2544 45.3164 38.0902 42.2019 41.6 37.0251C41.4754 31.8251 31.2 28.9629 26 28.9629C20.8 28.9629 10.5246 31.8251 10.4 37.0251Z" fill="white"/>
</svg>