<svg width="72" height="72" viewBox="0 0 72 72" fill="none" xmlns="http://www.w3.org/2000/svg">
<g opacity="0.7">
<rect x="17.3999" y="23.6777" width="38.4471" height="33.3049" fill="url(#paint0_linear)"/>
</g>
<rect x="18.1001" y="24.1001" width="37.1" height="32.9" fill="#EEEEEE"/>
<g opacity="0.7">
<rect x="25.2212" y="13.6797" width="4.54547" height="8.84691" fill="url(#paint1_linear)"/>
</g>
<rect x="25.1001" y="13.6001" width="4.2" height="9.1" fill="#535461"/>
<g opacity="0.7">
<path d="M50.8073 56.9H22.5659V22.5588L36.8094 22.2441L50.8073 22.5588V56.9Z" fill="url(#paint2_linear)"/>
</g>
<path d="M50.3 56.2999H23V21.9244L36.65 12.2L50.3 21.9244V56.2999Z" fill="white"/>
<rect x="33.5" y="45.1001" width="7" height="11.2" fill="#535461"/>
<rect opacity="0.5" x="30.6997" y="27.6001" width="12.6" height="7.7" fill="#225FC7"/>
<rect x="30" y="34.6001" width="14" height="1.4" fill="#535461"/>
<g opacity="0.1">
<rect x="30.7915" y="27.708" width="12.3251" height="3.10625" fill="black"/>
</g>
<g opacity="0.7">
<path d="M52.4868 25.434L37.0473 13.239L22.1042 25.425L20.9321 23.925L37.0296 10.8L53.6353 23.916L52.4868 25.434Z" fill="url(#paint3_linear)"/>
</g>
<path d="M52.6444 25.5L37.112 13.25L22.079 25.491L20.8999 23.9873L37.0943 10.8L53.7999 23.9782L52.6444 25.5Z" fill="#225FC7"/>
<circle cx="39.4501" cy="51.0499" r="0.35" fill="#E0E0E0"/>
<circle cx="36.3001" cy="36" r="35" stroke="black" stroke-width="1.4"/>
<defs>
<linearGradient id="paint0_linear" x1="55.847" y1="56.9826" x2="55.847" y2="23.6777" gradientUnits="userSpaceOnUse">
<stop stop-color="#808080" stop-opacity="0.25"/>
<stop offset="0.54" stop-color="#808080" stop-opacity="0.12"/>
<stop offset="1" stop-color="#808080" stop-opacity="0.1"/>
</linearGradient>
<linearGradient id="paint1_linear" x1="27.2403" y1="11.6379" x2="27.2403" y2="20.4848" gradientUnits="userSpaceOnUse">
<stop stop-color="#808080" stop-opacity="0.25"/>
<stop offset="0.54" stop-color="#808080" stop-opacity="0.12"/>
<stop offset="1" stop-color="#808080" stop-opacity="0.1"/>
</linearGradient>
<linearGradient id="paint2_linear" x1="24.6356" y1="-22.1676" x2="24.6356" y2="12.4883" gradientUnits="userSpaceOnUse">
<stop stop-color="#808080" stop-opacity="0.25"/>
<stop offset="0.54" stop-color="#808080" stop-opacity="0.12"/>
<stop offset="1" stop-color="#808080" stop-opacity="0.1"/>
</linearGradient>
<linearGradient id="paint3_linear" x1="22.9898" y1="8.91305" x2="22.9898" y2="23.547" gradientUnits="userSpaceOnUse">
<stop stop-color="#808080" stop-opacity="0.25"/>
<stop offset="0.54" stop-color="#808080" stop-opacity="0.12"/>
<stop offset="1" stop-color="#808080" stop-opacity="0.1"/>
</linearGradient>
</defs>
</svg>
