<svg width="68" height="68" viewBox="0 0 68 68" fill="none" xmlns="http://www.w3.org/2000/svg">
<circle cx="34.25" cy="33.75" r="32.55" stroke="#3F3D56" stroke-width="2.4"/>
<path fill-rule="evenodd" clip-rule="evenodd" d="M14.6578 56H35.2133H51V54.606H35.9533V15.656C35.9533 15.246 35.6244 15 35.2956 15H14.74C14.3289 15 14 15.328 14 15.656V55.262C14 55.672 14.3289 56 14.6578 56ZM15.3978 16.394H24.2778V18.444H20.8244C20.4133 18.444 20.1667 18.772 20.1667 19.1V21.806C20.1667 22.216 20.4956 22.462 20.8244 22.462H29.0467C29.4578 22.462 29.7044 22.134 29.7044 21.806V19.1C29.7044 18.69 29.3756 18.444 29.0467 18.444H25.5933V16.394H34.5556V54.688H25.6756V41.65H27.0733V40.256H25.6756V38.206H24.2778V54.606H15.3978V16.394ZM28.3889 21.15V19.756H21.5644V21.15H28.3889Z" fill="#3F3D56"/>
<rect x="53" y="55" width="2" height="1" fill="#3F3D56"/>
<rect x="22" y="24" width="1" height="2" fill="#3F3D56"/>
<rect x="22" y="27" width="1" height="1" fill="#3F3D56"/>
<rect x="24" y="24" width="1" height="4" fill="#3F3D56"/>
<rect x="24" y="30" width="1" height="1" fill="#3F3D56"/>
<rect x="27" y="24" width="1" height="2" fill="#3F3D56"/>
<rect x="27" y="27" width="1" height="1" fill="#3F3D56"/>
<path fill-rule="evenodd" clip-rule="evenodd" d="M52.0833 37.3949H54.3333C54.6667 37.3949 55 37.7261 55 38.0573V46.3376C55 46.6688 54.75 47 54.3333 47H37.6667C37.3333 47 37 46.7516 37 46.3376V38.0573C37 37.7261 37.25 37.3949 37.6667 37.3949H39.9167C39.4167 36.6497 39.0833 35.6561 39.0833 34.6624C39.0833 34.3312 39.3333 34 39.75 34H52.25C52.5833 34 52.9167 34.2484 52.9167 34.6624C52.9167 35.6561 52.6667 36.5669 52.0833 37.3949ZM51.5 35.3248H40.5C40.6667 36.1529 41.1667 36.8981 41.9167 37.3949H50.1667C50.8333 36.8981 51.3333 36.1529 51.5 35.3248ZM53.5833 38.8025V40.2102H38.3333V38.8025H53.5833ZM38.3333 41.535V45.6752H53.5833V41.535H38.3333Z" fill="#3F3D56"/>
<rect x="44" y="43" width="5" height="1" fill="#3F3D56"/>
<path fill-rule="evenodd" clip-rule="evenodd" d="M45.28 33V31.5899C41.2 31.1751 38 27.6083 38 23.2949C38 18.7327 41.6 15 46 15C50.4 15 54 18.7327 54 23.2949C54 27.6912 50.72 31.2581 46.64 31.5899V33H45.28ZM48.56 16.9078C47.76 16.576 46.88 16.4101 46 16.4101C42.32 16.4101 39.36 19.5622 39.36 23.3779C39.36 27.1935 42.32 30.2627 46 30.2627C49.68 30.2627 52.64 27.1935 52.64 23.3779C52.64 20.9724 51.52 18.8986 49.76 17.6544L44.48 23.129L43.52 22.1336L48.56 16.9078Z" fill="#3F3D56"/>
<path d="M42.9014 26.7954L49.0475 20.6493L50.0332 21.635L43.8871 27.7811L42.9014 26.7954Z" fill="#3F3D56"/>
<path d="M40.8369 24.7405L42.2285 23.3489L43.2142 24.3346L41.8226 25.7262L40.8369 24.7405Z" fill="#3F3D56"/>
</svg>