<svg width="57" height="60" viewBox="0 0 57 60" fill="none" xmlns="http://www.w3.org/2000/svg">
<path fill-rule="evenodd" clip-rule="evenodd" d="M24.8159 29.804C24.8159 27.6862 26.4581 25.9639 28.4773 25.9639C30.4966 25.9639 32.1388 27.6862 32.1388 29.804C32.1388 31.9218 30.4966 33.6441 28.4773 33.6441C26.4581 33.6441 24.8159 31.9218 24.8159 29.804ZM26.6464 29.8041C26.6464 30.863 27.4675 31.7241 28.4771 31.7241C29.4868 31.7241 30.3079 30.863 30.3079 29.8041C30.3079 28.7452 29.4868 27.884 28.4771 27.884C27.4675 27.884 26.6464 28.7452 26.6464 29.8041Z" fill="black"/>
<path fill-rule="evenodd" clip-rule="evenodd" d="M27.7815 22.155C28.2426 22.1137 28.7138 22.1137 29.1712 22.155C31.4832 22.3614 33.5034 23.6526 34.7156 25.6946C35.9096 27.7087 36.1292 30.1165 35.3167 32.2995C35.3058 32.3303 35.293 32.36 35.2783 32.3888L29.292 44.6426C29.1356 44.9632 28.8208 45.1648 28.4777 45.1648C28.1346 45.1648 27.8199 44.9632 27.6625 44.6435L21.6762 32.3898C21.6616 32.36 21.6488 32.3312 21.6378 32.3005C20.8254 30.1165 21.044 27.7097 22.2389 25.6955C23.4512 23.6526 25.4713 22.3614 27.7815 22.155ZM28.4779 42.1002L33.6279 31.5582C34.2098 29.9559 34.0406 28.1904 33.1632 26.711C32.2583 25.1865 30.7478 24.2226 29.0186 24.0681C28.6645 24.0383 28.294 24.0383 27.9362 24.0681C26.2089 24.2226 24.6983 25.1865 23.7935 26.711C22.9152 28.1914 22.7459 29.9569 23.3278 31.5591L28.4779 42.1002Z" fill="black"/>
<path fill-rule="evenodd" clip-rule="evenodd" d="M28.4771 0.0429688C44.1233 0.0429688 56.8532 13.3932 56.8532 29.804C56.8532 34.079 56.001 38.1908 54.3378 42.0454C55.8985 43.9059 56.8532 46.3377 56.8532 49.0046C56.8532 54.8272 52.3359 59.565 46.7843 59.565C44.2414 59.565 41.9228 58.5637 40.1488 56.9268C36.4737 58.6712 32.5514 59.565 28.4771 59.565C12.8309 59.565 0.101074 46.2148 0.101074 29.804C0.101074 13.3932 12.8309 0.0429688 28.4771 0.0429688ZM28.4771 1.96313C13.8397 1.96313 1.9318 14.4532 1.9318 29.8041C1.9318 45.155 13.8397 57.645 28.4771 57.645C32.0782 57.645 35.551 56.901 38.8216 55.4456C38.0756 54.4328 37.4971 53.2788 37.1392 52.0231C34.3922 53.2039 31.485 53.8049 28.4771 53.8049C15.859 53.8049 5.59322 43.0381 5.59322 29.8041C5.59322 16.57 15.859 5.80327 28.4771 5.80327C41.0953 5.80327 51.3611 16.57 51.3611 29.8041C51.3611 32.9587 50.7881 36.0088 49.6612 38.8889C50.8594 39.2642 51.9597 39.871 52.9254 40.6544C54.3131 37.2242 55.0225 33.5818 55.0225 29.8041C55.0225 14.4532 43.1146 1.96313 28.4771 1.96313ZM36.7153 49.0051C36.7153 49.3738 36.7345 49.7386 36.7693 50.0976C34.4269 51.1537 31.9527 51.746 29.3924 51.8593V49.0051H27.5617V51.8612C16.6799 51.3697 7.91539 42.1774 7.44673 30.7645H11.0853V28.8444H7.44673C7.91539 17.4316 16.6799 8.23924 27.5617 7.74771V11.5638H29.3924V7.74771C40.2742 8.23924 49.0387 17.4316 49.5074 28.8444H45.8688V30.7645H49.5055C49.3975 33.4497 48.8328 36.0447 47.8259 38.5014C47.4835 38.4649 47.1357 38.4447 46.7842 38.4447C41.2325 38.4447 36.7153 43.1825 36.7153 49.0051ZM38.5461 49.0047C38.5461 53.7694 42.2423 57.645 46.7843 57.645C51.3263 57.645 55.0225 53.7694 55.0225 49.0047C55.0225 44.2401 51.3263 40.3644 46.7843 40.3644C42.2423 40.3644 38.5461 44.2401 38.5461 49.0047Z" fill="black"/>
<path d="M46.7845 44.2042C47.7941 44.2042 48.6152 45.0654 48.6152 46.1243H50.4459C50.4459 44.0065 48.8038 42.2842 46.7845 42.2842C44.7652 42.2842 43.123 44.0065 43.123 46.1243C43.123 48.2421 44.7652 49.9644 46.7845 49.9644C47.7941 49.9644 48.6152 50.8256 48.6152 51.8845C48.6152 52.9434 47.7941 53.8046 46.7845 53.8046C45.7748 53.8046 44.9538 52.9434 44.9538 51.8845H43.123C43.123 54.0023 44.7652 55.7246 46.7845 55.7246C48.8038 55.7246 50.4459 54.0023 50.4459 51.8845C50.4459 49.7667 48.8038 48.0444 46.7845 48.0444C45.7748 48.0444 44.9538 47.1832 44.9538 46.1243C44.9538 45.0654 45.7748 44.2042 46.7845 44.2042Z" fill="black"/>
</svg>
