<svg width="72" height="72" viewBox="0 0 72 72" fill="none" xmlns="http://www.w3.org/2000/svg">
<circle cx="35.8001" cy="35.7" r="34.3" stroke="black" stroke-width="2.8"/>
<path fill-rule="evenodd" clip-rule="evenodd" d="M48.4003 49.7002C49.5903 49.7002 50.5003 50.6102 50.5003 51.8002C50.5003 52.9902 49.5903 53.9002 48.4003 53.9002H20.4003C19.2103 53.9002 18.3003 52.9902 18.3003 51.8002C18.3003 50.6102 19.2103 49.7002 20.4003 49.7002H48.4003ZM26.0003 51.1002C25.5803 51.1002 25.3003 51.3802 25.3003 51.8002C25.3003 52.2202 25.5803 52.5002 26.0003 52.5002C26.4203 52.5002 26.7003 52.2202 26.7003 51.8002C26.7003 51.3802 26.4203 51.1002 26.0003 51.1002ZM24.0403 52.5002H22.3603C22.5003 52.0802 22.5003 51.5202 22.3603 51.1002H24.0403C23.8303 51.5202 23.8303 52.0802 24.0403 52.5002ZM29.6403 51.1002H27.9603C28.1703 51.5202 28.1703 52.0802 27.9603 52.5002H29.6403C29.5003 52.0802 29.5003 51.5202 29.6403 51.1002ZM30.9003 51.8002C30.9003 51.3802 31.1803 51.1002 31.6003 51.1002C32.0203 51.1002 32.3003 51.3802 32.3003 51.8002C32.3003 52.2202 32.0203 52.5002 31.6003 52.5002C31.1803 52.5002 30.9003 52.2202 30.9003 51.8002ZM35.2403 51.1002H33.5603C33.7703 51.5202 33.7703 52.0802 33.5603 52.5002H35.2403C35.1003 52.0802 35.1003 51.5202 35.2403 51.1002ZM36.5003 51.8002C36.5003 51.3802 36.7803 51.1002 37.2003 51.1002C37.6203 51.1002 37.9003 51.3802 37.9003 51.8002C37.9003 52.2202 37.6203 52.5002 37.2003 52.5002C36.7803 52.5002 36.5003 52.2202 36.5003 51.8002ZM40.8403 51.1002H39.1603C39.3703 51.5202 39.3703 52.0802 39.1603 52.5002H40.8403C40.7003 52.0802 40.7003 51.5202 40.8403 51.1002ZM42.1003 51.8002C42.1003 51.3802 42.3803 51.1002 42.8003 51.1002C43.2203 51.1002 43.5003 51.3802 43.5003 51.8002C43.5003 52.2202 43.2203 52.5002 42.8003 52.5002C42.3803 52.5002 42.1003 52.2202 42.1003 51.8002ZM46.4403 51.1002H44.7603C44.9703 51.5202 44.9703 52.0802 44.7603 52.5002H46.4403C46.3003 52.0802 46.3003 51.5202 46.4403 51.1002ZM49.1003 51.8002C49.1003 52.2202 48.8203 52.5002 48.4003 52.5002C47.9803 52.5002 47.7003 52.2202 47.7003 51.8002C47.7003 51.3802 47.9803 51.1002 48.4003 51.1002C48.8203 51.1002 49.1003 51.3802 49.1003 51.8002ZM20.4003 51.1002C19.9803 51.1002 19.7003 51.3802 19.7003 51.8002C19.7003 52.2202 19.9803 52.5002 20.4003 52.5002C20.8203 52.5002 21.1003 52.2202 21.1003 51.8002C21.1003 51.3802 20.8203 51.1002 20.4003 51.1002Z" fill="black"/>
<path fill-rule="evenodd" clip-rule="evenodd" d="M56.7302 42.7702C56.9402 42.7002 57.1502 42.7702 57.2902 42.9102C57.4302 42.9802 57.5002 43.1902 57.5002 43.4002V56.0002C57.5002 56.4202 57.2202 56.7002 56.8002 56.7002H20.4002H19.7002C17.0402 56.3502 15.1502 53.8302 15.5002 51.1702C15.9202 48.6502 18.0202 46.8302 20.5402 46.9002H33.6302V39.3402L33.1402 38.7102L31.4602 41.5802C31.3902 41.7902 31.2502 41.8602 31.0402 41.9302L25.1602 43.2602L24.8802 44.0302C24.6002 44.9402 23.8302 45.5002 22.9202 45.5002H21.8002C21.3802 45.5002 21.1002 45.2202 21.1002 44.8002V40.6002C21.1002 40.3202 21.3102 40.0402 21.5902 39.9002L28.1702 37.8702L28.8002 32.7602V27.7902L27.3302 28.2102L27.2602 30.5202C27.2602 31.6402 26.2802 32.5502 25.1602 32.5502H25.0902C24.3902 32.5502 23.7602 32.1302 23.4102 31.5702C23.1302 31.2202 23.0602 30.7302 23.0602 30.3102L23.1302 27.4402C23.1302 25.9002 24.1102 24.6402 25.5102 24.1502L28.6602 23.1002C28.7652 23.1002 28.8702 23.0827 28.9752 23.0652C29.0802 23.0477 29.1852 23.0302 29.2902 23.0302C29.4302 23.0302 29.5702 22.9602 29.7102 22.8902C29.3602 22.6802 29.0802 22.4002 28.8702 22.0502C27.5402 20.1602 27.8902 17.5002 29.7802 16.1702C31.6702 14.8402 34.2602 15.1902 35.6602 17.0802C36.9902 18.9702 36.6402 21.5602 34.7502 22.9602C35.0302 23.1702 35.2402 23.5202 35.3802 23.8702L36.2902 26.6002H38.6002C38.7402 26.6002 38.8802 26.6002 39.0202 26.6702C40.2102 26.8802 40.9102 28.0002 40.7002 29.1202C40.4202 30.1002 39.5802 30.8002 38.5302 30.8002H35.8002V32.7602L38.5302 38.2202C38.6002 38.3602 38.6002 38.5002 38.6002 38.6402L37.6902 44.3102L38.4602 44.5202C39.3702 44.8002 40.0002 45.6402 40.0002 46.5502V46.9002H44.2002V44.8002C44.2002 44.4502 44.4802 44.1702 44.8302 44.1002L47.7002 43.7502L49.5202 29.8202L45.9502 32.0602C45.8802 32.1302 45.7402 32.2002 45.6002 32.2002H45.4602C45.3202 32.2002 45.1102 32.0602 45.0402 31.9202L43.5702 29.5402C43.3602 29.1902 43.4302 28.7702 43.7802 28.5602L53.8602 22.1902C54.2102 21.9802 54.6302 22.0502 54.8402 22.4002L56.3802 24.7802C56.5902 25.1302 56.5202 25.5502 56.1702 25.7602L54.7002 26.6702V42.9102L56.7302 42.7702ZM45.1102 29.3302L45.8802 30.5202L54.7702 24.9202L54.0002 23.7302L45.1102 29.3302ZM51.2002 28.8402L53.3002 27.5102V43.0502L49.2402 43.5402L51.2002 28.8402ZM35.8002 28.0002C35.5202 28.0002 35.2402 27.7902 35.1702 27.5102L34.1202 24.3602C33.9802 24.0102 33.7002 23.8002 33.3502 23.8002H33.2102C32.9302 23.8002 32.6502 23.9402 32.5102 24.2202C32.4402 24.4302 32.4402 24.6402 32.5102 24.8502L34.1902 29.4002H38.6002C39.0202 29.4002 39.3002 29.1202 39.3002 28.7002C39.3002 28.2802 39.0202 28.0002 38.6002 28.0002H35.8002ZM32.3002 16.8002C33.8402 16.8002 35.1002 18.0602 35.1002 19.6002C35.1002 21.1402 33.8402 22.4002 32.3002 22.4002C30.7602 22.4002 29.5002 21.1402 29.5002 19.6002C29.5002 18.0602 30.7602 16.8002 32.3002 16.8002ZM25.9302 27.7202C25.9302 27.4402 26.1402 27.1602 26.4202 27.0902L28.8002 26.3902V24.6402L26.0002 25.6202C25.1602 25.9002 24.5302 26.6702 24.5302 27.5802L24.4602 30.5202C24.4602 30.8702 24.7402 31.2202 25.1602 31.2202C25.5102 31.2202 25.8602 30.8702 25.8602 30.5202L25.9302 27.7202ZM30.4802 40.6702L24.4602 42.0002C24.2502 42.0702 24.0402 42.2102 23.9702 42.4902L23.6202 43.6102C23.4802 43.8902 23.2002 44.1002 22.9202 44.1002H22.5002V41.0902L29.0102 39.1302C29.2902 39.0602 29.5002 38.8502 29.5002 38.5702L29.9902 34.6502L32.3002 37.5902L30.4802 40.6702ZM30.2002 32.6902L34.9602 38.7802C35.0302 38.9202 35.1002 39.0602 35.1002 39.2002V46.9002H38.6002V46.5502C38.6002 46.2002 38.3902 45.9202 38.1102 45.8502L36.7102 45.4302C36.3602 45.3602 36.1502 45.0102 36.2202 44.6602L37.1302 38.5702L34.4002 33.1802C34.3302 33.1102 34.3302 33.0402 34.3302 32.9002V30.8002H33.6302C33.3502 30.8002 33.0702 30.6602 33.0002 30.3802L31.1102 25.4102C30.9702 24.9902 30.9702 24.5002 31.1102 24.0102C31.0649 24.0215 31.0177 24.0328 30.9693 24.0445L30.9691 24.0445L30.969 24.0446C30.7185 24.1047 30.4348 24.1729 30.2002 24.2902V32.6902ZM44.9002 55.3002H20.4002C18.4402 55.3002 16.9002 53.7602 16.9002 51.8002C16.9002 49.8402 18.4402 48.3002 20.4002 48.3002H48.4002C50.3602 48.3002 51.9002 49.8402 51.9002 51.8002C51.9002 53.7602 50.3602 55.3002 48.4002 55.3002H44.9002ZM51.8302 55.3002H56.1002V44.1702L45.6002 45.4302V46.9002H48.4002C49.7302 46.9002 50.9902 47.3902 51.9002 48.3702C53.7902 50.3302 53.7902 53.4102 51.8302 55.3002Z" fill="black"/>
</svg>
