<svg width="73" height="72" viewBox="0 0 73 72" fill="none" xmlns="http://www.w3.org/2000/svg">
<circle cx="36.4002" cy="35.7" r="34.3" stroke="#3B69B6" stroke-width="2.8"/>
<path fill-rule="evenodd" clip-rule="evenodd" d="M60.2001 11.2H36.4001C35.9755 11.2 35.6324 11.5431 35.6324 11.9677V18.1096C35.6324 18.5342 35.9755 18.8774 36.4001 18.8774H37.1678V57.2645H12.6001V58.7999H37.9356H41.0065H47.1485H50.2195H60.2001V57.2645H50.9872V53.4258H60.2001V51.8903H50.2195H47.1485H44.8453V50.3548H60.2001V48.8193H44.0775C43.653 48.8193 43.3098 49.1625 43.3098 49.587V52.658C43.3098 53.0826 43.653 53.4258 44.0775 53.4258H46.3807V57.2645H41.7743V18.8774H60.2001V17.3419H41.0065H37.9356H37.1678V12.7354H60.2001V11.2ZM47.9162 53.4258H49.4517V57.2645H47.9162V53.4258ZM40.2388 57.2645V18.8774H38.7033V57.2645H40.2388Z" fill="black"/>
<path fill-rule="evenodd" clip-rule="evenodd" d="M27.1078 30.0883C27.8436 31.5288 28.2333 33.1421 28.2333 34.7538C28.2333 34.8748 28.2235 34.9955 28.2137 35.116C28.2086 35.1782 28.2035 35.2403 28.1998 35.3025C28.7023 34.9349 29.2755 34.6656 29.8884 34.5156L31.9331 34.0157C32.1976 33.9495 32.4784 34.0271 32.6712 34.2158C32.8641 34.4045 32.9427 34.6785 32.8758 34.938L32.3648 36.9378C32.1564 37.7551 31.7247 38.5024 31.1165 39.0967C30.509 39.6917 29.7453 40.1133 28.9107 40.318H28.9099L28.3873 40.4459L29.3595 40.9215L28.6634 42.2828L26.6777 41.3118V43.1245H32.1221C32.5522 43.1245 32.8999 43.4646 32.8999 43.8854V46.9293C32.8999 47.3501 32.5522 47.6903 32.1221 47.6903H31.2705L30.5627 54.6151C30.523 55.0032 30.1886 55.3 29.7888 55.3H22.0111C21.6113 55.3 21.2769 55.0032 21.2372 54.6151L20.5295 47.6903H19.6778C19.2477 47.6903 18.9 47.3501 18.9 46.9293V43.8854C18.9 43.4646 19.2477 43.1245 19.6778 43.1245H25.1222V41.3118L23.1358 42.2836L22.4397 40.9222L23.4119 40.4466L22.8892 40.3188H22.8884C22.0539 40.1148 21.2901 39.6925 20.6827 39.0974C20.0745 38.5031 19.6436 37.7558 19.4344 36.9393L18.9234 34.9387C18.8565 34.6793 18.935 34.4053 19.1279 34.2166C19.3208 34.0279 19.6031 33.9502 19.866 34.0165L21.91 34.5164C22.5237 34.6663 23.0969 34.9357 23.5993 35.3032C23.5957 35.238 23.5905 35.1728 23.5854 35.1077L23.5854 35.1076L23.5854 35.1076L23.5854 35.1076L23.5854 35.1076C23.576 34.9897 23.5667 34.8719 23.5667 34.7538C23.5667 33.1421 23.9563 31.5288 24.6929 30.0883L25.2046 29.0869C25.4691 28.571 26.3316 28.571 26.5961 29.0869L27.1078 30.0883ZM22.7158 53.778H29.0849L29.7079 47.6903H22.0936L22.7158 53.778ZM31.3444 46.1683H20.4556V44.6464H31.3444V46.1683ZM26.6777 34.7538C26.6777 33.518 26.4094 32.2814 25.9 31.1514C25.3905 32.2814 25.1222 33.518 25.1222 34.7538C25.1222 35.9896 25.3905 37.2262 25.9 38.3562C26.4094 37.2262 26.6777 35.9896 26.6777 34.7538ZM21.7832 38.0207C21.3749 37.6212 21.0848 37.1182 20.9432 36.5695L20.7472 35.8002L21.5328 35.9919C22.0951 36.1304 22.6084 36.4143 23.0168 36.8138C23.4251 37.2133 23.7152 37.7163 23.8568 38.2649L24.0528 39.0343L23.2672 38.8425C22.7057 38.704 22.1916 38.4202 21.7832 38.0207ZM31.0527 35.8002L30.2664 35.9919C29.7056 36.1304 29.1915 36.4143 28.7832 36.8138C28.3748 37.2133 28.0847 37.7155 27.9432 38.2657L27.7472 39.0343L28.5327 38.8425C29.0943 38.704 29.6084 38.4202 30.0167 38.0207C30.425 37.6212 30.7151 37.1189 30.8567 36.5687L31.0527 35.8002Z" fill="black"/>
<path fill-rule="evenodd" clip-rule="evenodd" d="M25.5819 21.7H15.6546C13.9701 21.7 12.6001 20.3545 12.6001 18.7C12.6001 17.0455 13.9701 15.7 15.6546 15.7C15.6546 13.2182 17.7096 11.2 20.2365 11.2C22.2784 11.2 24.002 12.4937 24.5869 14.335C24.9122 14.2457 25.2474 14.2 25.5819 14.2C27.6873 14.2 29.4001 15.8822 29.4001 17.95C29.4001 20.0177 27.6873 21.7 25.5819 21.7ZM16.2526 17.32C16.0617 17.2405 15.8608 17.2 15.6546 17.2C14.8124 17.2 14.1274 17.8727 14.1274 18.7C14.1274 19.5272 14.8124 20.2 15.6546 20.2H25.5819C26.845 20.2 27.8728 19.1905 27.8728 17.95C27.8728 16.7095 26.845 15.7 25.5819 15.7C25.1757 15.7 24.7832 15.8095 24.4143 16.027C24.189 16.1597 23.9088 16.1695 23.6736 16.051C23.4392 15.9325 23.2826 15.7052 23.2612 15.4465C23.1261 13.8805 21.8256 12.7 20.2365 12.7C18.5519 12.7 17.1819 14.0455 17.1819 15.7C17.1819 15.9235 17.2163 16.1597 17.2911 16.4425C17.3629 16.7185 17.269 17.0117 17.049 17.1977C16.8299 17.3837 16.5214 17.4302 16.2526 17.32Z" fill="black"/>
</svg>