<svg width="86" height="86" viewBox="0 0 86 86" fill="none" xmlns="http://www.w3.org/2000/svg">
<circle cx="42.84" cy="42.84" r="41.16" stroke="black" stroke-width="3.36"/>
<path d="M52.5 24.3599C55.5031 24.3599 57.96 21.903 57.96 18.8999C57.96 15.8969 55.5031 13.4399 52.5 13.4399C49.497 13.4399 47.04 15.8969 47.04 18.8999C47.04 21.903 49.497 24.3599 52.5 24.3599Z" fill="black"/>
<path fill-rule="evenodd" clip-rule="evenodd" d="M10.9199 54.5999C10.9199 47.2079 16.9679 41.1599 24.3599 41.1599C31.7518 41.1599 37.7999 47.2079 37.7999 54.5999C37.7999 61.9919 31.7519 68.0399 24.3599 68.0399C16.9679 68.0399 10.9199 61.9919 10.9199 54.5999ZM14.9519 54.5999C14.9519 59.8415 19.1183 64.0079 24.3599 64.0079C29.6015 64.0079 33.7679 59.8415 33.7679 54.5999C33.7679 49.3583 29.6015 45.1919 24.3599 45.1919C19.1183 45.1919 14.9519 49.3583 14.9519 54.5999Z" fill="black"/>
<path d="M61.3202 38.3879V33.1078C57.3356 33.1078 54.0151 31.6559 51.6243 29.2799L46.4444 24.2639C45.6474 23.3399 44.3192 22.6799 42.8582 22.6799C41.3972 22.6799 40.069 23.208 39.1392 24.2639L31.8341 31.524C30.9043 32.448 30.2402 33.7679 30.2402 35.22C30.2402 36.6721 30.9043 37.992 31.8341 39.048L40.2017 46.4399V59.6399H45.5146V43.1399L39.6705 37.3319L45.913 30.9959L47.9053 32.9759C51.2259 36.4079 55.8745 38.3879 61.3202 38.3879Z" fill="black"/>
<path fill-rule="evenodd" clip-rule="evenodd" d="M47.8799 54.5999C47.8799 47.2079 53.9279 41.1599 61.3199 41.1599C68.7119 41.1599 74.7599 47.2079 74.7599 54.5999C74.7599 61.9919 68.7119 68.0399 61.3199 68.0399C53.9279 68.0399 47.8799 61.9919 47.8799 54.5999ZM51.9119 54.5999C51.9119 59.8415 56.0783 64.0079 61.3199 64.0079C66.5615 64.0079 70.7279 59.8415 70.7279 54.5999C70.7279 49.3583 66.5615 45.1919 61.3199 45.1919C56.0783 45.1919 51.9119 49.3583 51.9119 54.5999Z" fill="black"/>
</svg>
