<svg width="20" height="20" viewBox="0 0 20 20" fill="none" xmlns="http://www.w3.org/2000/svg">
<circle cx="10" cy="10" r="9.56224" stroke="#3F3D56" stroke-width="0.87552"/>
<path d="M11.4432 8.44555H5.88947C5.73941 8.43584 5.59244 8.49122 5.48611 8.59756C5.37977 8.70389 5.32439 8.85086 5.3341 9.00092V14.5547C5.32439 14.7047 5.37977 14.8517 5.48611 14.958C5.59244 15.0644 5.73941 15.1197 5.88947 15.11H11.4432C11.5933 15.1197 11.7402 15.0644 11.8466 14.958C11.9529 14.8517 12.0083 14.7047 11.9986 14.5547V9.00092C12.0083 8.85086 11.9529 8.70389 11.8466 8.59756C11.7402 8.49122 11.5933 8.43584 11.4432 8.44555Z" fill="#3F3D56"/>
<path d="M15.5611 13.0424L15.4085 13.212V10.3276L15.5611 10.4908C15.6603 10.5924 15.7903 10.6526 15.9274 10.6605C16.0628 10.6528 16.1909 10.5924 16.2876 10.4908C16.3872 10.3897 16.4437 10.2493 16.4437 10.1025C16.4437 9.95566 16.3872 9.81526 16.2876 9.71422L15.2498 8.61136C15.1553 8.5048 15.024 8.44446 14.8866 8.44446C14.7492 8.44446 14.6179 8.5048 14.5234 8.61136L13.4856 9.72074C13.3559 9.85946 13.3052 10.0617 13.3527 10.2512C13.4002 10.4406 13.5386 10.5887 13.7159 10.6394C13.8932 10.6902 14.0823 10.636 14.2121 10.4973L14.3708 10.3342V13.2186L14.2121 13.0489C14.0812 12.9102 13.8911 12.8566 13.7133 12.9084C13.5354 12.9602 13.397 13.1095 13.35 13.3C13.3031 13.4905 13.3548 13.6933 13.4856 13.832L14.5234 14.9414C14.6225 15.043 14.7525 15.1032 14.8897 15.1111C15.0271 15.1135 15.1588 15.0515 15.2498 14.9414L16.2937 13.832C16.4943 13.6176 16.4943 13.2699 16.2937 13.0554C16.0931 12.841 15.7678 12.841 15.5672 13.0554L15.5611 13.0424Z" fill="#3F3D56"/>
<path d="M5.50031 5.91463L6.61234 6.95219C6.71264 7.0535 6.85374 7.11111 7.00156 7.11111C7.14937 7.11111 7.29047 7.0535 7.39077 6.95219C7.49758 6.85769 7.55807 6.72638 7.55807 6.58905C7.55807 6.45171 7.49758 6.3204 7.39077 6.2259L7.22069 6.07332H10.112L9.94845 6.2259C9.84165 6.3204 9.78116 6.45171 9.78116 6.58905C9.78116 6.72638 9.84165 6.85769 9.94845 6.95219C10.0476 7.05319 10.1876 7.11071 10.3344 7.11071C10.4812 7.11071 10.6212 7.05319 10.7203 6.95219L11.8324 5.91463C11.9392 5.82013 11.9997 5.68883 11.9997 5.55149C11.9997 5.41415 11.9392 5.28285 11.8324 5.18834L10.7203 4.15079C10.5017 3.97514 10.1747 3.98714 9.9716 4.17828C9.76846 4.36942 9.75835 4.6746 9.94845 4.87708L10.112 5.03576H7.22069L7.39077 4.87708C7.49758 4.78257 7.55807 4.65127 7.55807 4.51393C7.55807 4.3766 7.49758 4.24529 7.39077 4.15079C7.28767 4.05426 7.14762 4 7.00156 4C6.85549 4 6.71544 4.05426 6.61234 4.15079L5.50031 5.18834C5.3935 5.28285 5.33301 5.41415 5.33301 5.55149C5.33301 5.68883 5.3935 5.82013 5.50031 5.91463Z" fill="#3F3D56"/>
</svg>
